<?xml version="1.0" encoding="utf-8"?>
<!-- Generator: Adobe Illustrator 16.0.4, SVG Export Plug-In . SVG Version: 6.00 Build 0)  -->
<!DOCTYPE svg PUBLIC "-//W3C//DTD SVG 1.1//EN" "http://www.w3.org/Graphics/SVG/1.1/DTD/svg11.dtd">
<svg version="1.1" xmlns="http://www.w3.org/2000/svg" xmlns:xlink="http://www.w3.org/1999/xlink" x="0px" y="0px"
	 width="5551.398px" height="1301.738px" viewBox="0 0 5551.398 1301.738" enable-background="new 0 0 5551.398 1301.738"
	 xml:space="preserve">
<g id="BG">
	<g id="bg">
		<g>
			<path fill="#010101" stroke="#A8AAAD" stroke-width="1.5" stroke-miterlimit="10" d="M640.963,745.413l0.018-0.018
				c-0.98-1.823-2.306-3.473-3.762-4.956c-0.925-1.023-1.901-1.998-2.939-2.901c7.163-6.007,11.784-15.25,11.784-25.879v-0.229
				v-66.777v-0.229v-21.259v-0.691v-15.021v-0.69v-15.711v-96.583v-4.392v-76.712c0-2.444-0.274-4.844-0.782-7.164h0.089
				c-2.782-14.134-14.896-25.285-29.9-26.841c-0.05-0.005-0.101-0.011-0.146-0.016c-0.479-0.047-0.96-0.084-1.441-0.112
				c-0.104-0.006-0.207-0.016-0.312-0.021c-0.562-0.027-1.127-0.046-1.696-0.046c-0.56,0-1.111,0.018-1.667,0.043
				c-0.151,0.008-0.308,0.021-0.462,0.028c-0.403,0.024-0.81,0.054-1.212,0.091c-0.155,0.019-0.312,0.034-0.471,0.054
				c-0.409,0.044-0.815,0.096-1.221,0.151c-0.131,0.021-0.259,0.039-0.389,0.062c-0.458,0.069-0.913,0.15-1.361,0.243
				c-0.067,0.013-0.138,0.023-0.201,0.04c-5.504,1.126-10.518,3.559-14.687,6.991c-0.251,0.205-0.491,0.417-0.734,0.63
				c-0.103,0.089-0.201,0.173-0.3,0.261c-7.058,6.256-11.493,15.391-11.493,25.604v30.038v15.481v17.792v15.479v2.08v96.583v0.231
				v18.021v15.711v17.562l-0.23,0.229v69.086c0,4.622,0.924,9.243,3.004,13.402c0.338,0.749,0.707,1.479,1.094,2.205
				c0.14,0.265,0.281,0.525,0.43,0.788c0.116,0.209,0.233,0.419,0.354,0.625c0.209,0.354,0.429,0.709,0.646,1.059
				c0.117,0.188,0.233,0.37,0.354,0.554c0.166,0.25,0.336,0.497,0.508,0.743c1.567,2.271,3.373,4.377,5.396,6.272
				c-6.008,5.083-9.704,11.784-11.321,19.41l0.482-0.482c-0.081,0.384-0.164,0.77-0.23,1.153l-0.021,0.021
				c-0.462,2.08-0.924,4.16-0.924,6.239v11.784l0.462-0.462v52.451v0.462v17.561v11.784v17.792v103.052v18.947v71.167v0.692
				c0,18.483,15.25,34.194,34.195,34.194s34.195-15.25,34.195-34.194v-0.692V997.02v-18.947V872.939v-17.792v-9.704v-17.561v-0.462
				V781.9h0.463v-18.254c-0.187-4.282-1.059-8.258-2.488-11.895C643.229,749.525,642.194,747.402,640.963,745.413z"/>
			<path fill="#010101" stroke="#A8AAAD" stroke-width="1.5" stroke-miterlimit="10" d="M556.967,756.203
				c-0.037-0.15-0.078-0.304-0.118-0.456c-0.104-0.394-0.213-0.782-0.329-1.173c-0.064-0.216-0.131-0.431-0.198-0.645
				c-0.146-0.471-0.308-0.938-0.473-1.399c-0.004-0.012-0.009-0.022-0.013-0.037c-0.204-0.564-0.42-1.126-0.646-1.677
				c-0.086-0.217-0.176-0.432-0.267-0.646c-0.051-0.11-0.098-0.223-0.146-0.329c-1.706-3.938-4.131-7.495-7.097-10.502l0.182-0.185
				c-0.242-0.121-0.48-0.242-0.714-0.356c-0.365-0.354-0.741-0.697-1.121-1.034c3.362-3.191,6.484-6.955,8.175-11.116
				c1.575-3.28,2.646-6.888,3.104-10.729c0.01-0.064,0.019-0.13,0.026-0.192c0.015-0.125,0.023-0.25,0.036-0.375
				c0.118-0.996,0.194-1.996,0.194-2.997v-0.693v-82.023v-0.23v-17.33v-15.479v-5.545V434.618v-0.229v-21.026
				c0-5.461-1.34-10.675-3.704-15.315c-0.002-0.007-0.004-0.012-0.006-0.016c-0.168-0.329-0.336-0.657-0.515-0.979
				c-4.391-8.133-12.122-14.34-21.352-16.77c-0.074-0.021-0.15-0.038-0.229-0.057c-0.434-0.11-0.864-0.213-1.302-0.307
				c-0.156-0.034-0.315-0.064-0.477-0.099c-0.362-0.07-0.729-0.14-1.097-0.2c-0.189-0.028-0.38-0.062-0.571-0.09
				c-0.349-0.051-0.698-0.096-1.051-0.136c-0.198-0.023-0.396-0.047-0.595-0.066c-0.371-0.034-0.746-0.062-1.121-0.087
				c-0.176-0.011-0.352-0.024-0.524-0.035c-0.55-0.024-1.103-0.043-1.659-0.043c-0.559,0-1.111,0.019-1.667,0.042
				c-0.151,0.01-0.308,0.021-0.463,0.03c-0.404,0.024-0.809,0.053-1.21,0.091c-0.158,0.019-0.312,0.034-0.472,0.054
				c-0.409,0.045-0.816,0.096-1.222,0.151c-0.131,0.021-0.259,0.039-0.387,0.062c-0.46,0.069-0.916,0.15-1.369,0.243
				c-0.062,0.013-0.13,0.022-0.191,0.036c-13.188,2.696-23.563,12.907-26.522,26.325h0.06c-0.488,2.312-0.751,4.705-0.751,7.164
				v21.026v13.633v17.561v15.714v13.17v96.583v7.162v15.713v17.56v80.178v0.463c0,4.62,0.924,9.242,3.003,13.401
				c0.045,0.099,0.096,0.194,0.141,0.292c0.066,0.141,0.135,0.28,0.202,0.42c2.014,4.232,4.803,8.062,8.194,11.295
				c-7.021,6.24-11.541,15.604-11.541,25.424v1.618v15.711v1.852h-0.462v45.979h0.462v36.044v15.481v9.012v89.42v18.947v71.167
				v0.462c0,18.485,15.249,34.196,34.194,34.196c18.947,0,34.197-15.25,34.197-34.196v-0.462V997.02v-18.947v-89.42v-11.091V861.85
				v-79.946h0.462V763.65c-0.02-0.437-0.056-0.866-0.089-1.296l0.089-0.089C557.836,760.225,557.471,758.189,556.967,756.203z"/>
			<path fill="#010101" stroke="#A8AAAD" stroke-width="1.5" stroke-miterlimit="10" d="M830.193,368.259
				c-19.135,0-34.536,15.399-34.536,34.537v66.506v34.066v69.541c0,10.271,4.667,19.604,11.901,25.901
				c-7.234,6.301-11.901,15.869-11.901,25.903v9.564v88.208v18.203v9.104v0.466v86.809v104.311v0.231v81.207v0.234v24.503v29.401
				c0,18.668,15.401,34.535,34.536,34.535s34.537-15.399,34.537-34.535v-29.401v-24.503v-0.234v-81.207v-0.231V837.066v-86.809
				v-0.468v-10.732v-16.569V634.28v-9.101c0-10.271-4.667-19.604-11.901-25.902c6.77-6.3,11.901-15.868,11.901-26.368v-69.541
				v-34.066v-66.506C864.73,384.125,849.326,368.259,830.193,368.259z"/>
			<path fill="#010101" stroke="#A8AAAD" stroke-width="1.5" stroke-miterlimit="10" d="M739.887,368.259
				c-19.136,0-34.536,15.399-34.536,34.537v66.506v19.6v14.468v69.541c0,10.271,4.666,19.604,11.9,25.901
				c-7.234,6.534-11.9,15.869-11.9,26.137v9.333v88.208v7.701v15.635v3.971v0.466v86.809v104.311v0.231v81.207v0.234v24.503v25.668
				v3.732v0.233c0,18.668,15.4,34.536,34.536,34.536c19.134,0,34.536-15.402,34.536-34.536v-0.233v-29.4v-24.503v-0.234V941.61
				v-0.231V837.067v-86.809v-0.468v-5.603V728.32v-5.834V634.28v-9.101c0-10.271-4.667-19.604-11.901-25.902
				c7.234-6.3,11.901-15.868,11.901-26.368v-69.541v-34.066v-66.506C774.423,384.125,759.021,368.259,739.887,368.259z"/>
			<path fill="#010101" stroke="#A8AAAD" stroke-width="1.5" stroke-miterlimit="10" d="M1317.691,730.439v-0.463v-1.622
				l-0.045,0.044c-0.45-9.562-4.958-18.196-11.764-24.124c6.716-6.02,11.809-15.281,11.809-25.699V636.67v-30.103v-62.515v-15.744
				v-17.597v-8.567v-48.622c0-18.523-15.281-34.268-34.267-34.268c-18.986,0-34.271,15.278-34.271,34.268v48.622v10.65v17.598
				v15.744v60.431v30.103v41.905c0,9.947,4.422,19.003,11.312,25.244l-0.433-0.006l0.687,0.685
				c-5.815,5.171-9.911,12.478-11.158,20.413c-0.348,1.371-0.399,2.907-0.404,4.603l-0.466,0.465v15.281v0.462v2.547h0.462v198.657
				v30.562v0.927v17.6v15.744v63.672c0,18.521,15.281,34.267,34.271,34.267c18.982,0,34.267-15.28,34.267-34.267v-60.199v-5.558
				v-15.744v-16.439v-30.562V748.729v-4.63l0.231-0.231L1317.691,730.439z"/>
			<path fill="#010101" stroke="#A8AAAD" stroke-width="1.5" stroke-miterlimit="10" d="M1227.625,730.439v-0.463
				c0-0.007-0.002-0.014-0.002-0.021c-0.002-1.855-0.034-3.402-0.464-5.533c-0.001-0.008-0.003-0.013-0.004-0.017
				c-0.288-1.707-0.713-3.37-1.248-4.982l0.326-0.326c-0.314,0-0.526-0.438-0.774-0.938c-2.029-5.396-5.384-10.172-9.644-13.883
				c7.177-6.02,11.81-15.281,11.81-25.699v-41.905v-30.103v-45.146v-9.727v-17.829v-15.744v-64.599
				c0-18.521-15.28-34.268-34.269-34.268s-34.267,15.279-34.267,34.268v66.914v15.512v17.365v8.104v45.146v11.345v18.755v41.907
				c0,10.184,4.625,19.438,11.796,25.688l0.012,0.011c-3.988,3.475-7.187,7.951-9.244,12.95l-0.017,0.017
				c0,0-0.003,0.021-0.003,0.028c-0.036,0.088-0.072,0.175-0.107,0.264c-0.065,0.091-0.165,0.172-0.354,0.172
				c-0.929,2.083-1.62,4.631-2.082,6.716c-0.466,2.084-0.466,3.935-0.466,6.02v5.093l0.466-0.464v0.464v13.197v198.194v30.562v8.336
				v15.744v13.661v60.199c0,18.521,15.278,34.267,34.267,34.267c18.987,0,34.267-15.28,34.267-34.267v-60.199V996.47v-15.977v-3.011
				v-30.562V748.729v-14.817l0.232-0.229L1227.625,730.439z"/>
			<path fill="#010101" stroke="#A8AAAD" stroke-width="1.5" stroke-miterlimit="10" d="M105.56,210.557
				c-0.226-18.411-14.587-33.344-32.763-34.259c-0.586-0.027-1.177-0.044-1.771-0.044c-19.004,0-34.3,15.299-34.3,34.303v13.439
				v0.463v28.042v3.245v17.845v15.762v0.693v80.885v6.489v17.147v15.76v17.848V443.7v17.85v15.759v17.383v3.708v114.256v0.695
				c0,2.549,0.464,5.099,0.928,7.184c1.159,6.026,3.708,10.896,7.647,15.298c1.044,1.043,1.915,2.257,3.091,3.168l-0.078,0.075
				h0.174c0.101,0.074,0.188,0.162,0.29,0.231h-0.693c-3.265,2.841-5.896,6.261-7.81,10.097c-0.729,1.383-1.378,2.812-1.927,4.272
				l0.243-0.244c-1.215,3.547-1.866,7.367-1.866,11.369v8.343v15.76v17.381v15.763v15.524v46.584v22.02v1.158v254.935v1.623v3.013
				c0,2.34,0.284,4.673,0.734,6.795c0.204,1.607,0.505,3.157,0.889,4.562c3.939,14.138,17.383,25.03,33.144,25.03
				c15.76,0,29.199-10.895,32.908-25.728c0.928-2.549,1.159-5.562,1.159-8.573V664.342v-3.479c0-0.927,0-1.159-0.464-2.086v-1.159
				c0-0.926-0.465-1.623-0.929-2.549v-0.464c-1.623-6.258-5.562-11.356-10.196-15.76l-0.344-0.343
				c1.135-1.106,2.459-2.021,3.354-3.364c3.708-4.172,6.259-9.271,7.647-15.296c0.465-2.085,0.929-4.638,0.929-7.187v-0.229V498.4
				v-23.177l0.23-0.231v-15.759l-0.23,0.231v-18.078l0.23-0.231v-15.76l-0.23,0.231L105.56,210.557L105.56,210.557z"/>
			<path fill="#010101" stroke="#A8AAAD" stroke-width="1.5" stroke-miterlimit="10" d="M193.395,453.902v-15.76v-17.614V404.77
				v-17.614v-15.76v-0.464V290.05v-37.545v-28.506v-13.439c0-19.004-15.761-34.303-34.3-34.303
				c-19.005,0-34.301,15.299-34.301,34.303v13.439v28.506v15.065v17.845v4.635v80.885v2.55v15.759v17.614v15.76v17.381v13.906
				v19.467v15.763v9.271v0.231V612.89v0.464c0,2.549,0.464,5.099,0.929,7.184c1.158,6.026,3.708,10.896,7.647,15.298
				c1.082,1.08,1.976,2.352,3.218,3.271l-0.205,0.206h-0.232c-2.335,2.035-4.346,4.367-6.005,6.933l-0.251,0.251
				c-3.478,5.563-5.562,11.357-5.562,18.312v3.013l0.464-0.468v17.618v15.76v17.845v15.76v3.244v46.584v22.02v0.464v257.251v3.013
				c0,2.34,0.285,4.673,0.733,6.795c0.077,0.606,0.174,1.196,0.277,1.78h-0.084c0.071,0.283,0.153,0.562,0.232,0.843
				c0.139,0.668,0.292,1.318,0.461,1.938c3.708,14.833,17.381,25.726,32.909,25.726c15.527,0,29.2-10.894,32.908-25.726
				c0.728-1.994,1.021-4.272,1.118-6.611c0.202-1.535,0.271-3.139,0.271-4.745v-3.013h-0.23V806.639v-0.464v-22.02v-46.584v-5.562
				v-15.527v-17.845v-15.76v-17.15v-0.928v-0.462v-3.479c0-0.927,0-1.159-0.464-2.086v-1.159c0-0.926-0.465-1.623-0.927-2.549
				v-0.464c-1.623-6.258-5.562-11.356-10.197-15.76l-0.111-0.111c1.137-1.104,2.459-2.02,3.355-3.365
				c3.708-4.171,6.258-9.269,7.647-15.296c0.465-2.085,0.927-4.634,0.927-7.185V498.4h-0.23v-11.125l0.23-0.229v-15.763l-0.23,0.229
				L193.395,453.902L193.395,453.902z"/>
			<path fill="#010101" stroke="#A8AAAD" stroke-width="1.5" stroke-miterlimit="10" d="M386.019,190.765
				c-19.028,0-34.345,15.313-34.345,34.344v93.75v26.917v13.692v17.869v15.546v17.865v2.091v107.209v15.312
				c0,10.211,4.641,19.493,11.833,25.759c-7.192,6.269-11.833,15.779-11.833,25.758v6.729v0.696v19.026v119.974v10.675v15.548
				v17.869v15.547v25.526V966.75v23.672v0.229v74.954c0,18.562,15.313,34.344,34.345,34.344s34.344-15.314,34.344-34.344v-74.954
				v-0.229V966.75V818.471v-25.526v-2.089v-15.548v-17.403v-15.78v-8.815V613.334v-19.027v-0.696v-6.034v-0.693
				c0-10.034-4.49-19.166-11.473-25.428c6.98-6.902,11.473-15.599,11.473-26.091V412.841v-4.179v-17.866v-15.55v-17.4v-12.068
				V318.86v-93.75v-0.464C420.361,206.08,405.047,190.765,386.019,190.765z"/>
			<path fill="#010101" stroke="#A8AAAD" stroke-width="1.5" stroke-miterlimit="10" d="M316.4,196.001
				c-0.113-0.069-0.228-0.146-0.343-0.218c-0.205-0.124-0.414-0.242-0.621-0.362c-0.309-0.18-0.616-0.357-0.931-0.528
				c-0.022-0.016-0.048-0.024-0.07-0.037c-4.326-2.338-9.204-3.781-14.396-4.044c-0.576-0.03-1.155-0.045-1.736-0.045
				c-19.027,0-34.345,15.313-34.345,34.344v93.75v26.917V365.5v15.551v17.4v14.39v122.521c0,10.211,4.643,19.493,11.835,25.759
				c-7.193,6.497-11.835,15.779-11.835,25.99v6.729v0.464v19.026V747.69v17.869v15.548v37.361v148.278v23.671v0.23v74.954
				c0,18.562,15.314,34.344,34.345,34.344c19.028,0,34.344-15.315,34.344-34.344v-74.954v-0.23v-23.67V818.469v-39.448v-15.548
				v-17.868v-132.27v-19.029v-0.464v-6.269v-0.463c0-10.094-4.539-19.272-11.592-25.537c5.935-5.823,10.077-12.938,11.244-21.333
				c0.221-1.528,0.348-3.081,0.348-4.646v-0.233V412.841v-0.466v-15.549v-17.863v-15.78v-17.405V318.86v-93.75v-0.464
				C332.646,212.656,326.062,202.03,316.4,196.001z"/>
			<path fill="#010101" stroke="#A8AAAD" stroke-width="1.5" stroke-miterlimit="10" d="M1413.188,490.945
				c-19.021,0-34.334,15.312-34.334,34.334v123.188v13.224v13.688v20.646v16.472c0,10.208,4.641,19.487,11.832,25.75
				c-7.191,6.496-11.832,15.775-11.832,25.983v48.717v15.775v17.396v15.544v149.167v23.663v30.855v9.976
				c0,18.56,15.312,34.334,34.334,34.334s34.335-15.312,34.335-34.334v-9.976v-30.855v-23.663V863.75v-3.713v-15.772v-17.632
				v-15.775v-46.629c0-10.208-4.641-19.487-11.832-25.75c7.191-6.496,11.832-15.775,11.832-25.983v-16.472v-20.646v-15.312v-11.6
				V525.28C1447.521,506.721,1432.209,490.945,1413.188,490.945z"/>
			<path fill="#010101" stroke="#A8AAAD" stroke-width="1.5" stroke-miterlimit="10" d="M1502.967,490.945
				c-19.023,0-34.335,15.312-34.335,34.334v123.188v7.652v15.775v3.479v20.646v16.472c0,10.208,4.641,19.487,11.832,25.75
				c-7.191,6.266-11.832,15.775-11.832,25.75v29.929v11.365v17.863v15.775v17.167v7.653v147.079v23.663v30.855v9.741
				c0,18.561,15.312,34.334,34.335,34.334c19.021,0,34.334-15.312,34.334-34.334v-9.741v-30.855v-23.663V863.75v-9.742v-17.399
				v-14.847V803.2v-9.277v-29.693c0-10.208-4.643-19.487-11.832-25.75c7.189-6.496,11.832-15.775,11.832-25.983v-16.472v-20.646
				v-5.104v-16.239V525.28C1537.301,506.721,1521.988,490.945,1502.967,490.945z"/>
			<path fill="#010101" stroke="#A8AAAD" stroke-width="1.5" stroke-miterlimit="10" d="M1093.103,652.665v-12.023
				c0-10.328-4.695-19.717-11.971-26.055c7.272-6.104,11.971-15.492,11.971-26.29v-5.164v-28.64v-24.882V513.65v-17.839v-9.155
				v-16.898v-0.234v-26.525c0.001-19.245-15.257-34.737-34.74-34.737c-19.248,0-34.739,15.493-34.739,34.739v26.523v0.234v16.898
				v11.271v17.604v15.729v18.072v33.804v5.164c0,10.325,4.693,19.717,11.973,26.056c-7.276,6.337-11.973,15.962-11.973,26.055
				v12.259l0,0v70.962v66.897v8.919v15.962v17.605v63.378v4.225v15.962v17.605v15.962v3.756v80.861v5.765v25.455v8.216
				c0,18.778,15.491,34.74,34.739,34.74c19.247,0,34.74-15.493,34.74-34.74v-33.671h0.001v-86.626v-5.633v-15.729v-18.073v-15.962
				v-2.111v-47.65v-1.643V831.37v-18.073v-15.963v-6.807v-66.899L1093.103,652.665L1093.103,652.665z"/>
			<path fill="#010101" stroke="#A8AAAD" stroke-width="1.5" stroke-miterlimit="10" d="M969.781,408.303
				c-0.594-0.03-1.188-0.045-1.793-0.045c-19.248,0-34.741,15.49-34.741,34.737v26.525v0.234v34.976v15.962v17.84v15.962v28.64
				v0.231v4.933v0.231c0,10.27,4.646,19.604,11.85,25.94c-7.204,6.564-11.85,15.902-11.85,26.17v14.553v0.47v65.959v66.9v14.083
				v17.604v15.963v10.562v0.469v47.185v9.389v17.604v15.963v14.555v82.391v0.235v0.938v38.264v0.47
				c0,18.778,15.493,34.74,34.741,34.74c19.247,0,34.74-15.493,34.74-34.74v-0.47v-39.2v-0.235v-82.391V935.7v-15.962v-18.074
				v-7.274v-47.185v-0.469v-12.207v-15.962v-18.074v-11.971v-66.9v-65.959v-0.47V640.64c0-10.328-4.695-19.717-11.972-26.055
				c7.273-6.338,11.972-15.963,11.972-26.059v-5.164v-0.231v-28.64v-2.11v-15.96v-17.605V503.09v-33.333v-0.234v-26.056v-0.473
				C1002.73,424.352,988.19,409.229,969.781,408.303z"/>
			<path fill="#010101" stroke="#A8AAAD" stroke-width="1.5" stroke-miterlimit="10" d="M1638.189,569.259
				c-18.966,0-34.232,15.266-34.232,34.229v9.715v10.643v17.348v6.708v32.15v37.702v20.813c0,10.18,4.626,19.431,11.798,25.675
				c-7.172,6.479-11.798,15.729-11.798,25.905v59.675v6.246v17.812v15.498v4.854v12.259v0.694v15.728v17.351v134.151
				c0,18.506,15.27,34.232,34.232,34.232s34.232-15.266,34.232-34.232V938.411v-17.579v-14.341v-12.259v-6.938v-15.497v-17.352
				v-4.626v-59.675c0-10.177-4.627-19.429-11.798-25.674c7.171-6.479,11.798-15.729,11.798-25.906V717.75v-37.699V647.9v-8.558
				V621.53v-8.327v-9.715C1672.423,584.985,1657.155,569.259,1638.189,569.259z"/>
			<path fill="#010101" stroke="#A8AAAD" stroke-width="1.5" stroke-miterlimit="10" d="M1728.628,569.259
				c-18.969,0-34.232,15.266-34.232,34.229v13.416v15.729v47.416v37.702v20.813c0,10.178,4.627,19.43,11.797,25.675
				c-7.17,6.246-11.797,15.729-11.797,25.678v59.903v15.498v17.812v11.103v12.259v9.716v15.496v17.812v124.67
				c0,18.503,15.267,34.232,34.232,34.232c18.965,0,34.229-15.269,34.229-34.232V954.14v-24.057v-15.729v-7.864v-12.259v-13.185
				v-17.812v-13.416v-59.675c0-10.177-4.626-19.429-11.797-25.674c7.171-6.479,11.797-15.729,11.797-25.906V717.75v-37.699V647.9
				v-16.885v-15.729V603.49C1762.859,584.985,1747.594,569.259,1728.628,569.259z"/>
			<path fill="#010101" stroke="#A8AAAD" stroke-width="1.5" stroke-miterlimit="10" d="M1951.641,599.259
				c-9.438,0-18.178,3.682-23.932,10.124c-6.214,6.212-10.123,14.726-10.123,23.93v49.699l-0.229,0.229v15.646l0.229-0.232v17.258
				l-0.229,0.232v13.806h0.229v37.965c0,1.15,0,2.531,0.459,3.684c0,0.354,0.067,0.604,0.15,0.833
				c0.103,0.681,0.223,1.354,0.363,2.021c0.003,0.016,0.005,0.026,0.008,0.039c0.598,2.775,1.552,5.419,2.929,7.922
				c1.15,2.991,3.451,5.522,5.522,8.056l2.531,2.528h0.688c-0.204,0.146-0.395,0.31-0.591,0.46h-0.56
				c-5.062,4.145-8.743,10.125-10.584,16.8c-0.463,1.608-0.923,2.989-0.923,4.602l-0.165,33.527l-0.062,0.062v13.347h1.609v127.013
				h-1.609V1027h1.609v50.854c0,18.407,15.187,34.053,34.055,34.053c18.867,0,34.054-15.187,34.054-34.053v-258.86v-2.991v-1.147
				v-1.15v-0.46v-0.921c0-0.92-0.46-1.149-0.46-2.071v-0.46c0,0,0-0.461-0.46-0.461c-0.461-1.147-0.921-2.528-1.149-3.681
				c0-0.46,0-0.46-0.461-0.92c-0.921-1.15-1.148-2.531-2.068-4.145c-0.461-0.921-0.922-1.147-1.15-2.068
				c-0.461-0.46-0.921-1.15-1.15-1.611l-0.459-0.46c-0.921-0.92-1.609-1.61-2.99-2.53l-0.46-0.461l0.46-0.46
				c0.921-0.92,1.608-1.149,2.069-2.071c0,0,0-0.46,0.459-0.46c0.462-0.46,0.462-0.921,0.923-1.147
				c0.459-0.46,0.921-1.15,1.148-1.611l0.459-0.46c0-0.46,0.461-0.46,0.461-0.92c0.921-1.15,1.611-2.53,2.071-3.681
				c0.46-0.922,0.92-1.611,1.15-2.532c0-0.46,0.46-0.92,0.46-0.92c0.46-0.921,0.46-1.61,0.92-2.531c0-0.46,0.461-0.92,0.461-0.92
				c0-0.921,0.46-1.61,0.46-2.531c0-0.92,0.46-1.608,0.46-2.068v-137.37c-2.531-9.664-6.213-18.177-12.425-24.39
				C1969.356,602.938,1961.073,599.259,1951.641,599.259z"/>
			<path fill="#010101" stroke="#A8AAAD" stroke-width="1.5" stroke-miterlimit="10" d="M1861.443,599.259
				c-9.204,0-18.177,3.682-23.93,10.124c-6.212,6.212-10.124,14.726-10.124,23.93v40.726h-0.46v15.647l0.46-0.453v17.479
				l-0.46,0.461v15.646l0.46-0.456v41.872h-0.46v3.452c0,5.521,1.147,10.584,3.681,15.186c1.15,2.991,3.452,5.522,5.523,8.056
				l2.527,2.528h0.46c-1.438,1.18-2.752,2.52-3.962,3.968c-0.563,0.57-1.037,1.091-1.409,1.804
				c-0.941,1.306-1.807,2.687-2.576,4.136c-1.235,2.188-2.224,4.481-2.863,6.895c-0.921,2.99-1.382,5.752-1.382,8.74v2.531v18.178
				v15.646v6.212h0.229v127.241h-0.229v38.192h0.229v50.393c0,18.407,15.188,34.054,34.053,34.054
				c18.868,0,34.057-15.188,34.057-34.054V818.073c0-1.147,0-2.992-0.46-4.142c0-1.61-0.46-3.451-0.922-4.604
				c-0.461-1.607-1.148-3.448-1.609-5.062c-0.46-0.92-0.92-1.611-1.15-2.531c-0.921-1.609-2.069-3.452-3.449-4.602v-0.46
				c-1.118-1.565-2.459-2.91-4.015-4.042l1.712-1.713c0.368-0.448,0.707-0.899,1.051-1.354c0.034-0.007,0.059-0.027,0.103-0.027
				c0.92-0.92,1.609-2.068,2.53-2.988c0-0.461,0.461-0.461,0.461-0.922c0.46-0.462,0.46-0.922,0.92-1.149
				c0.461-0.92,0.921-1.61,1.151-2.53v-0.323c0.27-0.502,0.521-1.011,0.759-1.521c0.051-0.077,0.094-0.157,0.161-0.228
				c0-0.052,0.003-0.083,0.003-0.125c0.09-0.197,0.184-0.396,0.27-0.602c0.057-0.058,0.105-0.112,0.188-0.194
				c0-0.46,0.46-0.92,0.46-0.92c0-0.461,0.461-0.921,0.461-1.147c0.46-0.921,0.46-1.151,0.92-2.072c0-0.46,0.46-1.15,0.46-1.61
				c0-0.92,0.46-1.147,0.46-2.067c0-1.151,0.46-2.532,0.46-3.685V632.851c0-9.204-3.681-17.717-10.124-23.93
				C1879.392,602.938,1871.107,599.259,1861.443,599.259z"/>
			<path fill="#010101" stroke="#A8AAAD" stroke-width="1.5" stroke-miterlimit="10" d="M2089.284,599.259
				c-18.592,0-33.555,14.963-33.555,33.555v6.575v10.882V667.5v15.416v44.664v33.104c0,9.976,4.535,19.045,11.562,25.166
				c-7.025,6.349-11.562,15.417-11.562,25.392v12.923v69.604v43.303v6.352v17.458v15.188v6.575v33.1v14.966v40.13
				c0,18.137,14.963,33.555,33.555,33.555c18.591,0,33.556-14.964,33.556-33.555v-40.13v-14.966v-33.1v-8.616V958.61v-16.774v-4.765
				v-43.303v-69.604V811.24c0-9.976-4.533-19.043-11.562-25.165c7.027-5.896,11.562-14.964,11.562-25.393v-33.102v-44.663v-2.04
				v-15.417v-17.006v-9.066v-6.575C2122.841,614.676,2107.875,599.259,2089.284,599.259z"/>
			<path fill="#010101" stroke="#A8AAAD" stroke-width="1.5" stroke-miterlimit="10" d="M2179.066,599.259
				c-18.591,0-33.554,14.963-33.554,33.555v6.575v3.854v15.19v17.004v7.481v44.662v33.103c0,9.976,4.533,19.045,11.562,25.166
				c-7.024,6.122-11.562,15.417-11.562,25.166v13.147v69.604v43.303v14.511v17.006v14.057v33.1v14.965v40.131
				c0,18.137,14.963,33.555,33.554,33.555s33.554-14.964,33.554-33.555v-40.131v-14.965v-33.1v-0.454v-15.188V949.54v-12.472
				v-43.303v-69.604v-12.925c0-9.976-4.533-19.043-11.562-25.165c7.028-5.896,11.562-14.964,11.562-25.393v-33.103v-44.663v-9.067
				v-17.458V640.97v-8.162C2212.618,614.676,2197.656,599.259,2179.066,599.259z"/>
			<path fill="#010101" stroke="#A8AAAD" stroke-width="1.5" stroke-miterlimit="10" d="M2313.584,624.09
				c-18.446,0-33.3,14.85-33.3,33.299v58.724v16.874v15.299v14.399v17.1v39.823v0.45c0,9.783,4.4,18.682,11.233,24.753
				c-6.833,6.288-11.233,15.187-11.233,24.97v78.522v35.771v7.875v15.074v16.874v1.575v33.299v8.55v6.75
				c0,17.999,14.854,33.299,33.3,33.299c18.448,0,33.301-14.85,33.301-33.299v-6.75v-8.55v-33.299v-20.477v-13.049v-7.875v-35.771
				v-78.073c0-9.899-4.5-18.898-11.478-24.974c6.978-6.302,11.478-15.302,11.478-25.649v-56.923v-16.198v-15.075v-17.322v-56.697
				C2346.885,639.388,2332.032,624.09,2313.584,624.09z"/>
			<path fill="#010101" stroke="#A8AAAD" stroke-width="1.5" stroke-miterlimit="10" d="M2424.28,845.256
				c6.75-6.302,11.249-15.302,11.249-25.649v-39.823v-17.1v-8.324v-15.3v-17.099v-15.302v-2.475v-46.798
				c0-17.999-14.624-33.299-33.298-33.299c-18.449,0-33.074,14.85-33.074,33.299v46.798v4.5v15.299v17.324v15.075v6.299v17.1v39.823
				c0,9.9,4.501,18.899,11.478,24.974c-0.386,0-0.438,0.313-0.445,0.409c-6.715,6.076-11.029,15.104-11.029,24.565v78.748v35.771
				v7.875v2.699v4.95v15.299v10.575v26.099v7.2v9.225v6.075c0,17.999,14.854,33.299,33.302,33.299
				c18.446,0,33.299-14.85,33.299-33.299v-82.122v-7.875V870.228C2435.754,860.328,2431.254,851.329,2424.28,845.256z"/>
			<path fill="#010101" stroke="#A8AAAD" stroke-width="1.5" stroke-miterlimit="10" d="M2532.387,598.259
				c-18.887,0-34.083,15.196-34.083,34.083v25.332v17.042v15.657v17.732v28.555c0,10.133,4.604,19.348,11.743,25.562
				c-0.166,0.147-0.322,0.308-0.484,0.461h-0.438c-6.218,5.988-10.593,13.814-11.282,23.029l0.514-0.516
				c-0.019,0.171-0.039,0.34-0.053,0.516l0.098-0.1c-0.06,0.794-0.098,1.592-0.098,2.399v13.354v6.447v62.179v28.098v35.925v17.501
				v15.66v5.758v32.471v24.41v25.562v12.666v7.601c0,18.423,15.196,34.083,34.082,34.083s34.082-15.2,34.082-34.083v-7.601v-12.666
				v-25.562v-24.41v-32.471v-7.83v-15.66v-17.729v-33.622v-28.098v-62.179v-8.06v-11.744c0-1.182-0.066-2.347-0.188-3.495
				l0.188-0.19c-0.213-1.121-0.469-2.227-0.752-3.312c-0.812-3.77-2.252-7.317-4.207-10.523c0.116,0.161,0.235,0.333,0.354,0.479
				c-0.535-0.938-1.146-1.783-1.743-2.562c-0.611-0.854-1.26-1.686-1.945-2.479c0.08,0.064,0.152,0.142,0.233,0.207l-0.448-0.448
				c-1.01-1.148-2.085-2.235-3.234-3.237c7.141-6.444,11.743-15.66,11.743-25.792v-25.792v-4.835v-17.271v-15.663v-17.732v-23.025
				C2566.469,613.916,2551.271,598.259,2532.387,598.259z"/>
			<path fill="#010101" stroke="#A8AAAD" stroke-width="1.5" stroke-miterlimit="10" d="M2622.429,598.259
				c-18.886,0-34.083,15.196-34.083,34.083v16.811v13.357v15.658v17.731v40.76c0,10.132,4.604,19.347,11.742,25.562
				c-3.855,3.357-6.967,7.666-9.018,12.473l-0.193,0.193c-0.687,1.765-1.238,3.573-1.656,5.421
				c-0.037,0.157-0.068,0.314-0.104,0.473c-0.062,0.294-0.122,0.59-0.177,0.889c-0.075,0.389-0.146,0.777-0.203,1.172
				c-0.011,0.072-0.021,0.147-0.032,0.226c-0.154,1.066-0.266,2.144-0.313,3.229c-0.001,0.02,0,0.039-0.002,0.06
				c-0.021,0.478-0.041,0.953-0.041,1.433v0.229v7.139V870v28.097v21.877v7.599v15.66V960.5v44.906v24.41v25.562v12.666v7.366
				c0,18.425,15.198,34.082,34.083,34.082c18.884,0,34.082-15.196,34.082-34.082v-7.366v-12.666v-25.562v-24.41v-46.749v-17.501
				v-15.66v-5.524v-21.877v-28.097V793.08v-5.063c0-3.688-0.461-7.139-1.611-10.594l-0.095,0.095
				c-1.951-5.883-5.475-11.087-10.038-15.064c6.908-6.444,11.742-15.658,11.742-25.792v-25.792v-1.609v-15.432v-17.271v-15.66
				v-11.745v-16.811C2656.511,613.916,2641.312,598.259,2622.429,598.259z"/>
			<path fill="#010101" stroke="#A8AAAD" stroke-width="1.5" stroke-miterlimit="10" d="M2875.78,794.373l-0.457-0.458l-0.916-0.915
				c0.916-0.916,1.604-1.145,2.521-2.061c-0.556-0.138-0.604-0.36-0.509-0.615c0.526-0.587,1.031-1.19,1.521-1.814
				c3.031-3.678,5.229-7.949,6.313-12.769c0.218-0.604,0.309-1.2,0.577-2.091l0.334-0.334c0.458-2.06,0.458-3.662,0.458-5.95
				v-11.673v-0.458v-15.104l-0.229,0.229v-0.229c0-1.146,0-2.521-0.459-4.121v-0.458c0-1.146-0.457-2.062-0.457-3.436v-0.458
				c-0.457-1.145-0.457-2.06-0.915-3.433c-0.458-1.144-0.916-2.06-1.146-3.433c-1.603-3.436-3.662-6.183-6.18-9.155l-2.062-2.062
				c-0.916-0.916-1.604-1.144-2.519-1.603c-2.062-1.146-3.662-2.062-5.723-2.746c-0.915-0.458-2.062-0.916-2.979-1.146
				c-0.915-0.457-2.06-0.914-2.975-0.914c-2.521-0.458-5.036-0.916-7.782-0.916c-5.507,0-10.925,1.333-15.619,3.781
				c-11.361,5.455-19.17,17.058-19.17,30.549v27.234c0,10.07,4.578,19.228,11.674,25.405l-1.146,1.144h0.226
				c-6.489,6.16-10.295,14.535-10.295,24.032v36.62h0.688v0.458h-0.688v27.923v68.205v61.567v21.972v0.229v7.322v17.396v0.229
				v10.528c0,11.663,6.136,22.204,15.437,28.326c5.437,3.769,12.019,6.005,19.126,6.005c18.77,0,33.873-15.105,33.873-33.874
				V818.635C2886.31,809.021,2882.188,800.323,2875.78,794.373z"/>
			<path fill="#010101" stroke="#A8AAAD" stroke-width="1.5" stroke-miterlimit="10" d="M2786.521,793.915h-0.229l-0.916-0.915
				c1.53-1.529,3.009-3.173,4.358-4.964l0,0c1.478-1.956,2.805-4.091,3.88-6.479c1.449-2.897,2.32-6.25,2.718-9.734
				c0.022-0.187,0.048-0.374,0.065-0.561c0.014-0.141,0.022-0.276,0.035-0.414c0.096-1.001,0.153-2.009,0.153-3.023v-0.458v-4.578
				v-17.166v-5.032c0-1.603-0.121-3.18-0.346-4.729c0.283-0.171,0.188-0.468-0.111-0.767c-0.016-0.075-0.032-0.15-0.049-0.228
				c-0.471-2.688-1.264-5.275-2.342-7.729c-0.74-1.78-1.611-3.496-2.646-5.092c-0.543-0.854-1.121-1.643-1.717-2.405l0.114-0.112
				c-1.44-2.082-3.335-3.935-5.358-5.566c-0.918-0.882-1.952-1.78-3.107-2.442c-0.916-0.458-1.604-1.146-2.979-1.604
				c-0.914-0.458-2.06-0.914-2.976-1.145c-2.978-1.146-6.18-2.062-9.613-2.519h-3.202c-1.604,0-2.977,0-4.577,0.457h-1.146
				c-1.603,0.459-2.976,0.459-4.12,0.916c-1.373,0.229-2.746,0.688-3.891,1.146c-0.459,0-0.459,0.458-0.916,0.458
				c-0.916,0.458-1.604,0.688-2.521,1.146c-0.458,0-0.915,0.457-0.915,0.457c-0.688,0.459-1.604,0.916-2.52,1.604
				c-0.457,0-0.457,0.458-0.916,0.458c-1.83,1.831-3.662,3.434-5.265,5.493c0,0.458-0.457,0.458-0.457,0.915
				c-0.457,0.687-1.146,1.602-1.604,2.518c0,0.229-0.457,0.229-0.457,0.688c-0.458,0.916-0.916,1.831-1.146,2.519
				c0,0.458-0.457,0.458-0.457,0.916c-0.457,1.146-0.916,2.519-1.145,3.662c-0.457,1.146-0.915,2.977-0.915,4.12v0.182
				c-0.489,2.16-0.916,4.489-0.916,7.145v7.095l0.458-0.46v16.938l-0.229,0.229v2.519c0,1.113,0.092,2.25,0.229,3.382v0.052
				c0,0.273,0.045,0.525,0.104,0.771c0.328,2.305,0.845,4.562,1.271,6.554l0.213-0.214c0.056,0.176,0.104,0.352,0.165,0.521
				l-0.148,0.147c1.146,4.119,3.662,8.013,6.18,10.759l0.051-0.051c0.934,1.123,1.939,2.182,3.007,3.175l-0.08,0.079l-0.458,0.457
				c-6.637,6.181-10.527,14.646-10.527,24.263v251.989c0,1.866,0.166,3.703,0.469,5.5c1.961,16.565,16.217,29.978,33.636,29.978
				c18.769,0,33.873-15.106,33.873-33.874v-10.528v-0.229v-24.719v-0.229v-21.972V951.61v-68.205v-27.923h-0.229v-0.458h0.688
				v-36.849C2797.048,808.563,2792.929,799.866,2786.521,793.915z"/>
			<path fill="#010101" stroke="#A8AAAD" stroke-width="1.5" stroke-miterlimit="10" d="M2980.907,714.305
				c-14.467,0-26.778,8.852-31.862,21.453c-0.739,1.688-1.356,3.437-1.804,5.248l0.212-0.212c-0.021,0.1-0.046,0.197-0.068,0.3
				l-0.144,0.143c-0.465,2.556-0.93,5.108-0.93,8.126v10.682l0.229-0.232v1.627h-0.464v7.894l0.464-0.448v6.021l-0.464,0.464v17.414
				l0.464-0.464c0,0.303,0.021,0.604,0.025,0.903l-0.025,0.022c0,3.304,0.598,6.364,1.604,9.28
				c1.205,3.778,3.044,7.289,5.396,10.384c0.956,1.311,1.999,2.548,3.104,3.666l-0.354,0.354l1.606,1.604
				c-6.918,6.271-11.358,15.571-11.358,25.327v8.591V869.4v21.361v2.554v15.556v17.881v108.658v22.059v17.182
				c0,18.574,15.324,34.363,34.363,34.363c19.038,0,34.361-15.324,34.361-34.363v-17.182v-22.059V924.66v-17.88v-15.556v-0.464
				v-21.361V852.45v-8.356c0-10.155-4.592-19.392-11.717-25.655c7.125-6.271,11.717-15.732,11.717-25.656v-0.465v-0.696v-0.464
				v-17.182v-0.232v-15.788v-8.82v-0.467C3015.271,730.094,2999.947,714.305,2980.907,714.305z"/>
			<path fill="#010101" stroke="#A8AAAD" stroke-width="1.5" stroke-miterlimit="10" d="M3107.215,748.666
				c0-2.57-0.305-5.089-0.861-7.52c0.055,0.105,0.107,0.212,0.165,0.323c-0.101-0.198-0.169-0.411-0.235-0.625
				c-0.089-0.373-0.184-0.744-0.283-1.113c-0.062-0.275-0.142-0.542-0.229-0.804c-4.233-14.033-17.328-24.622-32.917-24.622
				c-19.038,0-34.362,15.324-34.362,34.362v1.389l-0.696,0.702v17.877l0.231-0.232v0.232l0.465-0.465v15.321l-0.465,0.467v8.821
				c0,2.557,0.465,5.572,0.929,8.125l0.465-0.464c0.467,1.625,0.696,3.483,1.627,5.108c-0.931-1.857-1.16-3.483-1.627-5.108
				l0.064-0.062c0.963,3.891,2.595,7.531,4.77,10.789l-0.188,0.188c0.062,0.092,0.129,0.183,0.188,0.275l-0.397,0.396
				c1.642,2.472,3.521,4.667,5.639,6.833c-6.714,6.264-11.001,15.413-11.001,24.999v8.591v16.95v21.361v10.448v15.788v15.321
				v103.087v22.06v17.182c0,18.574,15.324,34.363,34.362,34.363s34.362-15.324,34.362-34.363v-17.182v-22.06V932.32v-16.949v-15.789
				v-8.819V869.4v-16.95v-8.356c0-10.188-4.617-19.446-11.779-25.714c0.832-0.648,1.583-1.427,2.232-2.194
				c4.057-4.135,7.055-9.417,8.522-15.416l0.325-0.325c0.464-2.554,0.929-5.105,0.929-7.662v-11.145l-0.231,0.229L3107.215,748.666
				L3107.215,748.666z M3095.379,818.328c-0.002-0.002-0.004-0.005-0.009-0.007c0.065-0.055,0.126-0.114,0.191-0.169
				C3095.502,818.209,3095.441,818.27,3095.379,818.328z"/>
			<path fill="#010101" stroke="#A8AAAD" stroke-width="1.5" stroke-miterlimit="10" d="M3041.275,805.782
				c0.231,1.396,0.696,2.322,1.161,2.558C3041.973,807.407,3041.508,806.714,3041.275,805.782z"/>
			<path fill="#010101" stroke="#A8AAAD" stroke-width="1.5" stroke-miterlimit="10" d="M3043.598,812.283l0.255-0.255
				c-0.491-0.741-0.968-1.501-1.415-2.299C3042.668,810.658,3043.133,811.354,3043.598,812.283z"/>
			<path fill="#010101" stroke="#A8AAAD" stroke-width="1.5" stroke-miterlimit="10" d="M3041.039,806.152
				c-0.002-0.355-0.037-0.41-0.461-0.834C3040.972,805.906,3041.031,805.998,3041.039,806.152z"/>
			<path fill="#010101" stroke="#A8AAAD" stroke-width="1.5" stroke-miterlimit="10" d="M3041.039,806.152
				c0.002,0.034,0.004,0.055,0.004,0.095C3041.043,806.214,3041.041,806.182,3041.039,806.152z"/>
			<path fill="#010101" stroke="#A8AAAD" stroke-width="1.5" stroke-miterlimit="10" d="M3237.239,796.507v-0.47v-15.432
				l0.469-0.468v-17.536l-0.469,0.468v-0.231v-3.978c0.469-1.637,0.469-3.04,0-4.677v-0.938c-0.468-1.636-0.468-3.038-1.169-4.676
				c-1.169-4.208-3.507-8.184-6.312-11.457l-3.741-3.739l-0.468-0.47c-1.169-1.169-3.039-2.104-4.208-3.506
				c-3.742-2.572-8.187-4.209-12.86-4.677c-0.936,0-1.637-0.468-2.571-0.468h-0.231h-5.848h-0.231c-0.937,0-1.637,0-2.572,0.468
				h-0.698h-0.233c-0.937,0-2.104,0.467-3.04,0.936c-0.936,0.47-2.104,0.47-3.04,0.938h-0.233c-0.468,0.231-1.168,0.231-1.637,0.701
				c-0.468,0.468-1.402,0.468-1.637,0.699c-0.468,0.47-0.936,0.47-1.87,0.938c-0.468,0.468-1.169,0.936-1.637,1.403
				c-0.468,0.23-0.938,0.698-1.402,0.698c-0.233,0.471-1.17,0.938-1.638,1.403c-0.469,0.467-0.938,0.702-1.169,1.169
				c-0.468,0.467-0.938,0.937-1.403,1.636c-0.467,0.471-0.701,0.938-1.168,1.403c-0.468,0.467-0.938,1.169-1.403,1.636
				c-0.393,0.396-0.462,0.786-0.61,1.182c-0.746,1.023-1.441,2.09-2.089,3.188c-0.086,0.121-0.185,0.231-0.34,0.312
				c-0.028,0.168-0.067,0.322-0.113,0.475c-0.334,0.6-0.646,1.211-0.95,1.829c-0.072,0.125-0.146,0.254-0.218,0.388l-0.354,0.349
				c-0.47,0.937-0.938,1.639-0.938,3.04c-0.469,0.937-0.469,1.639-0.936,3.039v0.471v0.468v0.467c0,0.045-0.013,0.083-0.015,0.128
				c-0.146,0.296-0.195,0.651-0.211,1.071c-0.121,0.361-0.242,0.666-0.242,0.904v47.465c0,3.739,0.935,7.716,2.104,11.457
				c0.469,1.637,1.169,3.507,2.104,5.145c0,0,0,0.467,0.469,0.467c0.935,1.64,2.104,3.04,3.039,4.679
				c1.096,1.532,2.801,3.267,3.976,4.439v0.001l0,0c0.075,0.076,0.155,0.156,0.229,0.229c-0.005,0.004-0.009,0.008-0.013,0.012
				c-0.377,0.014-0.438,0.321-0.443,0.419c-0.311,0.292-0.607,0.588-0.904,0.892c-6.025,5.841-9.877,14.345-10.322,23.701v11.227
				v22.443v0.234v12.626v28.993v85.105v27.356v8.885v13.327v2.572v8.417v0.231c0.937,18.005,16.135,32.5,34.604,32.5
				c19.172,0,34.604-15.432,34.604-34.604v-0.234v-8.417v-15.896v-6.781v-27.356h0.47v-39.747h-0.47v-0.231h0.47v-45.36h-0.47V888.4
				v-0.234v-22.443v-0.234h0.47v-11.457c-0.47-9.82-4.677-18.472-11.457-24.784h-0.47c-0.164,0-0.259-0.062-0.325-0.14l2.433-2.434
				c0.938-0.938,1.637-1.639,2.104-2.571c0.603-0.845,1.266-1.814,1.929-2.874c0.145-0.229,0.28-0.458,0.414-0.69
				c0.48-0.802,0.958-1.635,1.396-2.516l0.7-0.701c2.104-4.676,3.509-9.352,3.509-14.964v-6.312l-0.7,0.69v-0.224h-0.011v-0.005
				H3237.239z"/>
			<path fill="#010101" stroke="#A8AAAD" stroke-width="1.5" stroke-miterlimit="10" d="M3328.008,755.33
				c-0.022-0.314-0.062-0.632-0.121-0.938c-0.066-0.5-0.146-0.998-0.232-1.493c-0.014-0.088-0.029-0.174-0.048-0.263
				c-0.682-3.646-1.94-7.115-3.696-10.295c-0.729-1.477-1.547-2.829-2.498-4.091v-0.197c-1.168-1.168-2.104-3.04-3.738-4.208
				c-0.938-0.938-1.639-1.169-2.571-2.104c-0.728-0.724-1.312-1.025-1.972-1.346c-0.613-0.426-1.242-0.83-1.887-1.216
				c-1.467-0.907-2.992-1.703-4.562-2.351l-0.03,0.031c-4.028-1.669-8.438-2.603-13.062-2.603c-0.076,0-0.153,0.005-0.231,0.006
				c-0.078,0-0.155-0.006-0.233-0.006h-0.468c-19.173,0-34.604,15.432-34.604,34.604v46.996c0,0,0,1.637,0.469,2.572
				c0.467,2.104,0.937,4.676,1.637,6.781c0.468,0.935,0.938,2.104,1.168,3.036v0.471c0.47,0.935,0.938,1.636,1.638,2.568
				c0.938,1.169,1.639,2.572,3.039,3.741c0,0.467,0.471,0.467,0.471,0.938c0.904,1.133,2.037,2.055,3.385,3.389
				c-0.188,0.168-0.364,0.343-0.546,0.516c-0.071,0.041-0.154,0.07-0.269,0.07c-6.779,6.079-10.988,14.964-11.457,24.784v221.888
				c0.938,18.004,16.135,32.5,34.604,32.5c3.93,0,7.688-0.662,11.188-1.868c13.875-4.056,24.084-16.521,24.776-31.564h0.041v-0.469
				v-1.17v-14.026v-17.536v-27.356v-39.748v-45.357V888.16v-22.444h-1.401v-0.233h0.938v-11.457
				c-0.469-9.818-4.677-18.472-11.458-24.784c-0.412,0-0.458-0.349-0.464-0.434c3.412-2.779,6.147-6.062,8.152-9.738
				c2.052-3.662,3.407-7.716,3.957-11.996l0.045-0.045c0.231-1.636,0.231-2.806,0.231-4.208v-11.924v-18.005v-14.03v-1.169h-0.03
				C3328.136,756.898,3328.09,756.11,3328.008,755.33z"/>
			<path fill="#010101" stroke="#A8AAAD" stroke-width="1.5" stroke-miterlimit="10" d="M3429.221,726.982
				c-18.952,0-34.207,15.255-34.207,34.207v5.548v11.325v15.716v9.246v51.079h-0.462v27.734c0,10.171,4.622,19.413,11.787,25.653
				c-0.463,0-0.463,0.463-0.925,0.463h0.885c-6.874,6.241-11.285,15.493-11.285,25.193v8.783v28.66v0.462v24.729v76.272
				c0,18.489,15.255,34.207,34.207,34.207c18.951,0,34.206-15.255,34.206-34.207v-76.272v-24.729v-0.462v-28.66v-8.552
				c0-10.17-4.622-19.415-11.786-25.655c7.164-6.473,11.786-15.717,11.786-25.888v-78.813v-11.095v-15.486v-9.706v-5.548
				C3463.427,742.699,3448.17,726.982,3429.221,726.982z"/>
			<path fill="#010101" stroke="#A8AAAD" stroke-width="1.5" stroke-miterlimit="10" d="M3517.74,726.982
				c-18.952,0-34.206,15.255-34.206,34.207v5.548v5.085v17.104v14.099v51.079h-0.229v27.735c0,10.17,4.622,19.414,11.785,25.652
				c-0.463,0-0.463,0.463-0.926,0.463h0.651c-6.872,6.241-11.282,15.493-11.282,25.193v8.783v28.66v0.462v24.729v76.272
				c0,18.488,15.253,34.207,34.206,34.207c18.952,0,34.207-15.254,34.207-34.207v-76.272v-24.729v-0.462v-28.66v-8.552
				c0-10.169-4.623-19.415-11.788-25.655c7.165-6.472,11.788-15.717,11.788-25.887v-78.814v-15.717V769.51v-2.772v-5.548
				C3551.948,742.699,3536.693,726.982,3517.74,726.982z"/>
			<path fill="#010101" stroke="#A8AAAD" stroke-width="1.5" stroke-miterlimit="10" d="M3652.196,745.362
				c-19.103,0-34.478,15.376-34.478,34.479v8.15v32.851v18.638c0,10.25,4.659,19.569,11.88,25.858
				c-7.221,6.29-11.88,15.842-11.88,25.856v2.563v25.158v62.667v9.783v17.706v3.494l0,0v18.638v28.89v17.006
				c0,18.637,15.375,34.479,34.478,34.479c19.104,0,34.479-15.375,34.479-34.479v-17.006v-28.89v-18.638v-5.592v-17.472v-7.922
				v-62.664v-25.159v-2.563c0-10.25-4.659-19.566-11.882-25.856c7.223-6.06,11.882-15.375,11.882-25.858v-18.638v-32.851v-8.15
				C3686.677,761.205,3671.302,745.362,3652.196,745.362z"/>
			<path fill="#010101" stroke="#A8AAAD" stroke-width="1.5" stroke-miterlimit="10" d="M3775.9,779.844
				c0-18.64-15.376-34.479-34.478-34.479c-19.104,0-34.479,15.376-34.479,34.479v59.639c0,10.25,4.659,19.569,11.882,25.858
				c-7.223,6.289-11.882,15.842-11.882,25.856v185.905c0,18.637,15.375,34.479,34.479,34.479c19.102,0,34.478-15.375,34.478-34.479
				v-17.006h0.233v-28.888h-0.233v-18.64h0.233v-30.981h-0.233v-62.667h0.233v-25.16h-0.233v-2.563
				c0-10.25-4.659-19.566-11.881-25.856c7.222-6.06,11.881-15.375,11.881-25.858v-18.638h0.233v-32.851h-0.233V779.844z"/>
			<path fill="#010101" stroke="#A8AAAD" stroke-width="1.5" stroke-miterlimit="10" d="M3915.936,799.146
				c-0.739-1.755-1.588-3.327-2.502-4.806c-5.896-10.955-17.467-18.606-30.843-18.606c-16.737,0-30.646,11.63-34.146,27.281
				c-0.048,0.049-0.084,0.088-0.146,0.149c-0.473,0.946-0.473,2.13-0.473,3.074v0.452c-0.075,0.67-0.14,1.344-0.178,2.025
				c-0.136,0.769-0.298,1.552-0.298,2.253v39.258c0,9.772,4.174,18.712,10.757,25.053c0.421,0.414,0.854,0.816,1.294,1.208
				c-7.089,6.384-11.812,15.84-11.812,26.24v0.473v18.21v66.455v32.873v16.318v16.081v9.934v14.662v0.946
				c0,18.919,15.605,35,35.001,35c19.393,0,35-15.608,35-35v-0.946v-14.662v-12.062v-0.236v-15.846v-14.189v-32.873v-66.455v-18.21
				c0-10.403-4.729-19.863-12.062-26.25c7.332-6.146,12.062-15.606,12.062-26.485v-20.338v-16.791v-0.476v-1.656v-0.473
				c0-3.937-0.688-7.746-1.931-11.317L3915.936,799.146z"/>
			<path fill="#010101" stroke="#A8AAAD" stroke-width="1.5" stroke-miterlimit="10" d="M4008.404,811.207h-0.235v-2.601
				l-1.125,1.124c-0.021-0.137-0.031-0.282-0.043-0.43l1.168-1.167c-0.474-5.203-1.653-9.46-3.782-13.716l-0.957,0.948
				c-0.025-0.051-0.05-0.103-0.073-0.151l0.557-0.562c-1.652-3.311-3.781-6.386-6.855-8.984l-0.478,0.474
				c-0.039-0.039-0.075-0.079-0.114-0.118l0.826-0.829c-3.072-3.075-6.854-5.203-11.113-6.856l-0.476,0.473
				c-3.782-1.893-7.565-2.602-12.298-2.602h-0.945c-2.479,0.062-4.893,0.391-7.218,0.939c-15.571,3.191-27.366,16.864-27.782,33.113
				v40.204c0,10.403,4.729,19.862,12.062,26.251c-7.332,6.621-12.062,16.081-12.062,26.484v175.008
				c0,12.051,6.338,22.939,15.947,29.268c5.615,3.895,12.417,6.206,19.762,6.206c19.395,0,35.002-15.608,35.002-35v-15.608v-0.943
				l-0.71,0.943v-0.233l0.71-0.71v-16.082v-17.977l-0.71,0.721v-0.244l0.237-0.237v-40.44h0.709v-66.455h-0.946v-1.183h1.185
				v-17.736c0-10.403-4.729-19.864-12.062-26.25c7.331-6.386,12.062-16.082,12.062-26.251V823.51l-0.235,0.244v-12.546
				L4008.404,811.207L4008.404,811.207z"/>
			<path fill="#010101" stroke="#A8AAAD" stroke-width="1.5" stroke-miterlimit="10" d="M4196.026,809.133
				c-18.718,0-33.784,15.063-33.784,33.781v6.62v24.654v22.826c0,5.479,1.143,10.729,3.652,15.521c0,0.457,0.455,0.457,0.455,0.913
				c1.974,3.505,4.367,6.379,7.181,9.229c-4.396,3.941-7.78,9.13-9.651,14.884c-0.41,1.169-0.754,2.372-1.037,3.597l-0.143,0.144
				c0,0.177-0.02,0.354-0.023,0.532c-0.426,1.104-0.434,2.012-0.434,3.349v2.511v0.229v4.563v53.188v0.228v24.654v34.469v0.229
				v7.761v0.228v2.971v0.457c0,3.649,0.913,7.073,1.6,10.5c1.143,4.106,3.422,7.987,6.162,11.185
				c2.51,2.968,5.021,5.022,8.446,7.077c3.649,2.511,8.444,3.652,13.01,4.563c1.601,0,2.967,0.457,4.565,0.457
				c4.564,0,9.131-0.913,13.236-2.968c7.99-3.425,14.609-10.044,18.035-18.035c1.6-4.105,2.514-8.443,2.514-13.011v-0.456v-4.793
				l0.229-0.229v-5.938h-0.229v-34.469v-24.654v-0.228v-52.731v-0.457v-4.564v-3.651c-0.393-2.532-1-4.849-1.787-7.055
				c-0.051-0.146-0.104-0.29-0.158-0.438c-0.109-0.301-0.221-0.604-0.338-0.899c-0.434-1.104-0.92-2.182-1.459-3.227
				c-0.074-0.146-0.146-0.293-0.223-0.438c-0.005-0.01-0.01-0.019-0.016-0.024c-0.602-1.158-1.252-2.302-1.959-3.443
				c-0.914-1.142-1.6-2.055-2.513-3.425v-0.456l-2.722-2.721c0.935-0.846,1.817-1.747,2.653-2.699
				c0.021-0.02,0.045-0.038,0.063-0.059l0.455-0.457c0.914-0.913,1.602-1.6,2.058-2.511v-0.285c0.565-0.831,1.092-1.69,1.585-2.57
				c0.141-0.195,0.287-0.388,0.471-0.567c2.97-5.021,4.564-10.5,4.564-16.664v-53.871
				C4229.812,824.197,4214.746,809.133,4196.026,809.133z"/>
			<path fill="#010101" stroke="#A8AAAD" stroke-width="1.5" stroke-miterlimit="10" d="M4108.48,809.177
				c-0.566-0.029-1.139-0.044-1.71-0.044c-18.717,0-33.782,15.063-33.782,33.782v6.619v24.654v22.826v2.968
				c0,0.283,0.046,0.545,0.106,0.812c0.098,0.734,0.21,1.477,0.351,2.219v0.851c0,0.914,0.456,1.602,0.456,2.515v0.911
				c0.455,0.912,0.455,1.6,0.912,2.512v0.457c0.455,0.913,0.913,1.598,1.144,2.511c2.055,3.652,4.563,7.076,7.533,10.043
				l0.311,0.309c-3.729,3.479-6.688,7.861-8.562,12.721c-1.737,3.997-2.705,8.396-2.705,12.996V1076.9
				c0,5.936,1.6,11.643,4.107,16.207c1.598,3.425,4.105,6.164,7.077,8.675c3.423,2.968,6.616,5.021,10.729,6.62
				c0.913,0.457,1.596,0.914,2.969,0.914c0.914,0.456,1.599,0.456,2.513,0.456h0.912c0.913,0,1.142,0.457,2.056,0.457h3.424
				c0.076,0,0.148-0.005,0.227-0.006c0.077,0.001,0.152,0.006,0.229,0.006h1.603l0.077-0.077
				c10.169-0.656,19.302-5.954,25.115-13.771c3.938-5.113,6.432-11.394,6.898-18.247l0.092-0.091v-2.282v-10.729v-34.013h-0.455
				v-0.456h0.455v-24.654h-0.455v-0.228h0.455v-57.756c0-10.044-4.562-19.178-11.642-25.339c7.077-6.162,11.642-15.521,11.642-25.34
				v-22.826l-0.685-0.003v-24.88h0.685v-6.62l0,0C4140.559,825.216,4126.399,810.088,4108.48,809.177z"/>
			<path fill="#010101" stroke="#A8AAAD" stroke-width="1.5" stroke-miterlimit="10" d="M4360.703,971.364
				c-2.108-4.219-5.158-8.672-8.905-11.482c3.981-4.688,7.267-10.313,9.375-16.645c0.938-3.047,1.172-6.329,1.172-9.375v-31.174
				l0.233-0.234v-15.938l-0.233,0.236v-8.205c0-1.173,0-2.578-0.47-4.222v-0.468c-0.938-7.733-4.221-14.532-9.375-19.688
				c-4.222-4.221-9.377-7.734-15.472-8.906c-1.173-0.469-2.578-0.938-4.222-0.938h-0.47c-1.172,0-3.047-0.468-4.22-0.468
				c-18.984,0-34.455,15.47-34.455,34.689v9.346l-0.471,0.498v15.704l0.471-0.471v30.003c0,6.327,1.642,12.424,4.688,17.578
				c2.108,3.519,4.22,6.097,7.269,8.675c-3.519,3.047-6.097,6.328-8.205,10.312c0,0.468-0.471,0.468-0.471,0.938
				c-0.468,0.468-0.468,1.172-0.938,1.641c0,0.469-0.471,0.938-0.471,1.172s-0.471,1.172-0.471,1.641c0,0.472-0.47,1.175-0.47,1.644
				c0,0.468-0.47,0.938-0.47,1.641c0,0.938-0.471,1.172-0.471,2.109v24.61h-0.471v23.438h0.471v17.812h-0.471v10.078l0.471-0.479
				v15.95l-0.471,0.469v3.516h0.48c0.256,18.549,15.618,34.224,34.677,34.224c19.222,0,35.157-15.002,35.157-34.224v-90.475
				c0-3.75-0.938-7.735-1.641-11.018C4361.405,973.709,4360.938,972.771,4360.703,971.364z"/>
			<path fill="#010101" stroke="#A8AAAD" stroke-width="1.5" stroke-miterlimit="10" d="M4418.129,843.388
				c-19.222,0-34.688,15.47-34.688,34.688v20.861v15.938v18.518c0,10.312,4.688,19.688,11.953,26.017
				c-7.267,6.329-11.953,15.939-11.953,26.021v20.157v23.438v17.813v20.858v7.97c0,18.75,15.472,34.689,34.688,34.689
				c19.222,0,34.688-15.47,34.688-34.689v-10.077v-18.05v-18.518v-23.438v-20.157c0-10.313-4.688-19.689-11.954-26.021
				c7.268-6.328,11.954-15.47,11.954-26.017v-20.158v-16.408v-18.751C4452.816,859.326,4437.351,843.388,4418.129,843.388z"/>
			<path fill="#010101" stroke="#A8AAAD" stroke-width="1.5" stroke-miterlimit="10" d="M4685.172,892.392l-0.08,0.08
				c-2.944-16.37-17.393-29.3-34.891-29.3c-18.202,0-33.104,13.582-35.188,31.206c-0.246,1.402-0.258,2.896-0.258,4.239v11.258
				v7.902c0,4.115,0.735,8.08,2.067,11.774c0.396,1.219,0.908,2.412,1.521,3.579c2.11,4.301,5.062,8.128,8.625,11.229
				c-5.847,5.09-10.045,12.261-11.571,20.104c-0.267,1.18-0.481,2.382-0.646,3.605v61.314h0.002v51.016
				c0,19.161,15.809,35.447,35.444,35.447c19.642,0,35.448-15.811,35.448-35.447v-51.016v-58.201v-3.593
				c-0.958-9.104-5.271-17.005-11.734-22.753c-0.235,0-0.354-0.117-0.476-0.235c-0.001-0.001-0.003-0.003-0.005-0.004
				c7.425-6.706,12.215-16.286,12.215-26.825v-19.16c0-1.864-0.152-3.702-0.441-5.5
				C4685.194,892.875,4685.172,892.629,4685.172,892.392z"/>
			<path fill="#010101" stroke="#A8AAAD" stroke-width="1.5" stroke-miterlimit="10" d="M4590.176,883.921
				c-5.609-12.104-17.877-20.748-32.186-20.748c-19.641,0-35.445,15.808-35.445,35.445v0.479v0.001l-0.479,0.478v18.442l0.479-0.479
				v0.235c0,10.539,4.791,20.119,12.215,26.586c-0.002,0-0.002,0.001-0.002,0.001c-0.119,0.119-0.24,0.238-0.479,0.238
				c-6.466,5.749-10.537,13.651-11.732,22.753v3.593v58.683v50.773c0,19.161,15.809,35.447,35.444,35.447
				c19.644,0,35.448-15.809,35.448-35.447v-50.773v-58.44v-3.593c-0.958-9.104-5.271-17.005-11.734-22.753h-0.217
				c-0.088-0.079-0.172-0.162-0.264-0.24c2.328-2.104,4.396-4.49,6.143-7.101l0.086-0.085c0.871-1.307,1.688-2.759,2.431-4.318
				c1.853-3.818,3.041-7.982,3.418-12.354c0.013-0.136,0.022-0.271,0.035-0.406c0.021-0.311,0.045-0.616,0.06-0.929
				c0.027-0.543,0.047-1.087,0.047-1.634v-2.395v-0.24v-16.526v-1.677c0-4.79-1.199-9.102-3.112-13.173L4590.176,883.921z"/>
			<path fill="#010101" stroke="#A8AAAD" stroke-width="1.5" stroke-miterlimit="10" d="M4889.521,953.997
				c-0.455,0-0.455-0.452-0.911-0.452c2.354-1.927,4.691-4.651,6.289-7.43l0.535-0.535c3.414-5.004,5.006-11.146,5.006-17.514
				v-2.958l-0.229,0.229v-0.229v-17.06v-0.229v-6.368v-0.228c0-2.957-0.457-5.459-0.912-7.961l-0.276,0.28
				c-1.142-4.042-2.938-8.287-5.407-11.429c-0.062-0.089-0.131-0.173-0.191-0.261l0.191-0.194c-2.047-2.956-5.006-5.459-7.962-7.507
				h0.001c-1.945-1.526-4.32-2.716-6.91-3.669c-1.627-0.661-3.33-1.245-5.146-1.79l-0.192,0.193
				c-2.438-0.443-4.875-0.875-7.312-0.875c-2.957,0-5.461,0.455-8.416,1.138c-11.828,2.957-21.383,12.513-24.34,24.566
				c-0.908,2.502-0.908,5.459-0.908,7.961v8.188v0.229v17.288l0.453-0.454v0.454v0.455v0.456c0,4.094,0.91,8.416,2.502,12.055l0,0
				l-0.455,0.455c1.596,4.094,3.643,7.506,6.6,10.688l0.454-0.453h0.001l2.777,2.776c-0.263,0.106-0.275,0.406-0.275,0.406
				c-6.598,6.142-11.146,15.013-11.146,25.021v0.229v33.21h-0.455v24.111v40.941c0,6.944,2.19,13.486,5.934,18.931
				c6,9.19,16.357,15.418,28.188,15.418c18.652,0,33.666-15.015,33.666-33.664v-65.511v-33.895
				C4900.664,969.011,4896.569,960.366,4889.521,953.997z"/>
			<path fill="#010101" stroke="#A8AAAD" stroke-width="1.5" stroke-miterlimit="10" d="M4811.953,901.681
				c0.008-0.654-0.008-1.303-0.039-1.949c0.033-0.495,0.051-0.986,0.047-1.471l0.221-0.22c-0.455-4.322-1.592-8.416-3.867-11.829
				c-0.293-0.542-0.605-1.062-0.923-1.577c-0.062-0.108-0.126-0.219-0.188-0.326c-0.035-0.055-0.068-0.109-0.104-0.164
				c-1.685-2.749-3.75-5.247-6.135-7.413l0.301-0.301c-3.187-2.502-6.144-4.322-9.776-5.915l-0.099,0.097
				c-3.961-1.667-8.31-2.599-12.873-2.599c-18.647,0-33.663,15.013-33.663,33.665v26.614c0,6.146,1.725,11.942,4.68,16.93
				l-0.127,0.129c1.479,3.173,3.752,5.559,6.438,7.89c-6.513,6.354-10.991,14.938-10.991,24.866v98.947
				c0,6.942,2.188,13.483,5.934,18.926c6,9.194,16.356,15.421,28.188,15.421c18.65,0,33.664-15.013,33.664-33.665v-40.941v-24.111
				v-33.665c0-10.009-4.096-18.652-11.146-25.021h-0.229c-0.455,0-0.455-0.453-0.91-0.453c2.43-2.116,4.553-4.617,6.305-7.378
				c0.133-0.202,0.265-0.405,0.392-0.611c0.062-0.105,0.125-0.211,0.188-0.317c0.854-1.42,1.599-2.91,2.224-4.464
				c0.088-0.214,0.168-0.432,0.25-0.646c0.084-0.225,0.172-0.442,0.25-0.667c0.963-2.655,1.599-5.442,1.854-8.293l0.824-0.825
				c-0.455-0.455,0-1.364,0-2.046v-13.193l-0.684,0.678L4811.953,901.681L4811.953,901.681z"/>
			<path fill="#010101" stroke="#A8AAAD" stroke-width="1.5" stroke-miterlimit="10" d="M5009.735,451.131
				c-21.903,0-39.537,17.631-39.537,39.534v59.037v0.535v69.188v48.353c0,0.735,0.021,1.465,0.062,2.191
				c0.617,10.885,5.799,20.698,13.562,27.461c-0.533,0-0.533,0.534-1.066,0.534h0.506c-7.955,7.448-13.062,17.901-13.062,29.385
				v7.212v195.276v0.268v21.639v18.166v20.305v18.163v5.345v0.533v52.093v0.534c0,21.37,17.633,39.536,39.537,39.536
				c21.905,0,39.537-17.632,39.537-39.536v-0.534v-52.092v-0.534v-7.212v-0.534v-17.634v-0.534v-20.035v-0.534v-15.493v-21.64
				v-0.267V734.562v-7.212c0-11.754-5.345-22.439-13.625-29.653c8.28-6.945,13.625-17.63,13.625-29.918v-48.353v-69.188v-0.535
				v-59.036C5049.272,469.297,5031.645,451.131,5009.735,451.131z"/>
			<path fill="#010101" stroke="#A8AAAD" stroke-width="1.5" stroke-miterlimit="10" d="M5147.709,451.131
				c-21.903,0-39.537,17.631-39.537,39.534v59.037v0.535v69.188v48.353c0,0.735,0.021,1.465,0.062,2.191
				c0.617,10.885,5.799,20.698,13.562,27.461c-0.535,0-0.535,0.534-1.067,0.534h0.505c-7.955,7.448-13.062,17.901-13.062,29.385
				v7.212v195.276v0.268v21.639v18.166v20.305v18.163v5.345v0.533v52.093v0.534c0,21.37,17.633,39.536,39.537,39.536
				s39.535-17.632,39.535-39.536v-0.534v-52.092v-0.534v-7.212v-0.534v-17.634v-0.534v-20.035v-0.534v-15.493v-21.64v-0.267V734.562
				v-7.212c0-11.754-5.342-22.439-13.623-29.653c8.279-6.945,13.623-17.63,13.623-29.918v-48.353v-69.188v-0.535v-59.036
				C5187.244,469.297,5169.615,451.131,5147.709,451.131z"/>
			<path fill="#010101" stroke="#A8AAAD" stroke-width="1.5" stroke-miterlimit="10" d="M5414.791,1032.916
				c0.047-1.188,0.088-2.382,0.088-3.59c-0.301-44.419-36.59-80.403-81.16-80.104c-44.568,0.301-80.559,36.288-80.254,80.857
				c0,0.035,0.002,0.072,0.002,0.109c0.002,0.064-0.004,0.127-0.002,0.191c0.301,44.567,36.588,80.255,81.158,80.104l-0.002-0.301
				c0,0,0,0,0.002,0c22.285,0,42.312-9.035,56.916-23.941c0.653-0.652,1.358-1.389,2.061-2.16
				c8.361-9.012,14.584-19.891,18.07-31.974l0.047-0.046c0.146-0.566,0.297-1.145,0.444-1.729c0.142-0.524,0.274-1.055,0.403-1.584
				c0.08-0.317,0.158-0.642,0.236-0.963c0.039-0.133,0.074-0.254,0.116-0.394c0.301-0.753,0.301-1.355,0.604-2.259
				c0.299-1.355,0.603-3.015,0.752-4.367c0-0.604,0.301-0.753,0.301-1.054c0-2.062,0.097-4.022,0.182-5.974
				C5414.771,1033.47,5414.777,1033.191,5414.791,1032.916z M5297.736,1030.049c0.102-19.792,16.316-36.105,35.98-36.105
				c19.984,0,36.224,15.9,36.586,35.873c-0.047,9.28-3.504,17.761-9.271,24.215c-0.314,0.303-0.628,0.607-0.964,0.896
				c-6.626,6.625-15.66,10.688-25.601,10.688l0.002,0.297c-0.051,0-0.103,0.006-0.15,0.006
				C5314.334,1065.916,5298.1,1050.018,5297.736,1030.049z"/>
		</g>
	</g>
	<g id="raynaud-svg">
		<g>
			
				<line fill="none" stroke="#EAE95D" stroke-width="12" stroke-linecap="round" stroke-linejoin="round" stroke-miterlimit="10" x1="1163.092" y1="636.668" x2="1225.231" y2="636.668"/>
			
				<line fill="none" stroke="#EAE95D" stroke-width="12" stroke-linecap="round" stroke-linejoin="round" stroke-miterlimit="10" x1="1252.092" y1="636.668" x2="1314.231" y2="636.668"/>
		</g>
	</g>
	<g id="various-derm-svg">
		
			<line fill="none" stroke="#EBA35A" stroke-width="12" stroke-linecap="round" stroke-linejoin="round" stroke-miterlimit="10" x1="2283.092" y1="889.668" x2="2345.231" y2="889.668"/>
		
			<line fill="none" stroke="#EBA35A" stroke-width="12" stroke-linecap="round" stroke-linejoin="round" stroke-miterlimit="10" x1="2372.092" y1="889.668" x2="2434.231" y2="889.668"/>
		
			<line fill="none" stroke="#EBA35A" stroke-width="12" stroke-linecap="round" stroke-linejoin="round" stroke-miterlimit="10" x1="41.092" y1="616.668" x2="103.231" y2="616.668"/>
		
			<line fill="none" stroke="#EBA35A" stroke-width="12" stroke-linecap="round" stroke-linejoin="round" stroke-miterlimit="10" x1="130.092" y1="616.668" x2="192.231" y2="616.668"/>
	</g>
	<g id="eoe-svg">
		
			<line fill="none" stroke="#A9D15A" stroke-width="12" stroke-linecap="round" stroke-linejoin="round" stroke-miterlimit="10" x1="1383.092" y1="802.668" x2="1445.231" y2="802.668"/>
		
			<line fill="none" stroke="#A9D15A" stroke-width="12" stroke-linecap="round" stroke-linejoin="round" stroke-miterlimit="10" x1="1472.092" y1="802.668" x2="1534.231" y2="802.668"/>
	</g>
	<g id="depression-svg">
		
			<line fill="none" stroke="#27AAE1" stroke-width="12" stroke-linecap="round" stroke-linejoin="round" stroke-miterlimit="10" x1="266.092" y1="231.667" x2="328.231" y2="231.667"/>
		
			<line fill="none" stroke="#27AAE1" stroke-width="12" stroke-linecap="round" stroke-linejoin="round" stroke-miterlimit="10" x1="355.092" y1="231.667" x2="417.231" y2="231.667"/>
		
			<line fill="none" stroke="#27AAE1" stroke-width="12" stroke-linecap="round" stroke-linejoin="round" stroke-miterlimit="10" x1="266.092" y1="635.668" x2="328.231" y2="635.668"/>
		
			<line fill="none" stroke="#27AAE1" stroke-width="12" stroke-linecap="round" stroke-linejoin="round" stroke-miterlimit="10" x1="355.092" y1="635.668" x2="417.231" y2="635.668"/>
		
			<line fill="none" stroke="#27AAE1" stroke-width="12" stroke-linecap="round" stroke-linejoin="round" stroke-miterlimit="10" x1="3399.092" y1="865.668" x2="3461.231" y2="865.668"/>
		
			<line fill="none" stroke="#27AAE1" stroke-width="12" stroke-linecap="round" stroke-linejoin="round" stroke-miterlimit="10" x1="3488.092" y1="865.668" x2="3550.231" y2="865.668"/>
		
			<line fill="none" stroke="#27AAE1" stroke-width="12" stroke-linecap="round" stroke-linejoin="round" stroke-miterlimit="10" x1="2731.092" y1="847.668" x2="2793.231" y2="847.668"/>
		
			<line fill="none" stroke="#27AAE1" stroke-width="12" stroke-linecap="round" stroke-linejoin="round" stroke-miterlimit="10" x1="2820.092" y1="847.668" x2="2882.231" y2="847.668"/>
		
			<line fill="none" stroke="#1C75BC" stroke-width="12" stroke-linecap="round" stroke-linejoin="round" stroke-miterlimit="10" x1="2503.092" y1="941.668" x2="2565.231" y2="941.668"/>
		
			<line fill="none" stroke="#1C75BC" stroke-width="12" stroke-linecap="round" stroke-linejoin="round" stroke-miterlimit="10" x1="2592.092" y1="941.668" x2="2654.231" y2="941.668"/>
		<g>
			
				<line fill="none" stroke="#1C75BC" stroke-width="12" stroke-linecap="round" stroke-linejoin="round" stroke-miterlimit="10" x1="3623.092" y1="903.668" x2="3685.231" y2="903.668"/>
			
				<line fill="none" stroke="#1C75BC" stroke-width="12" stroke-linecap="round" stroke-linejoin="round" stroke-miterlimit="10" x1="3712.092" y1="903.668" x2="3774.231" y2="903.668"/>
		</g>
		<g>
			
				<line fill="none" stroke="#1C75BC" stroke-width="12" stroke-linecap="round" stroke-linejoin="round" stroke-miterlimit="10" x1="4748.092" y1="896.668" x2="4810.23" y2="896.668"/>
			
				<line fill="none" stroke="#1C75BC" stroke-width="12" stroke-linecap="round" stroke-linejoin="round" stroke-miterlimit="10" x1="4837.092" y1="896.668" x2="4899.23" y2="896.668"/>
		</g>
		<g>
			
				<line fill="none" stroke="#1C75BC" stroke-width="12" stroke-linecap="round" stroke-linejoin="round" stroke-miterlimit="10" x1="4748.092" y1="880.668" x2="4810.23" y2="880.668"/>
			
				<line fill="none" stroke="#1C75BC" stroke-width="12" stroke-linecap="round" stroke-linejoin="round" stroke-miterlimit="10" x1="4837.092" y1="880.668" x2="4899.23" y2="880.668"/>
		</g>
		<g>
			
				<line fill="none" stroke="#1C75BC" stroke-width="12" stroke-linecap="round" stroke-linejoin="round" stroke-miterlimit="10" x1="4978.092" y1="728.668" x2="5040.23" y2="728.668"/>
		</g>
		
			<line fill="none" stroke="#2B3990" stroke-width="12" stroke-linecap="round" stroke-linejoin="round" stroke-miterlimit="10" x1="1163.092" y1="687.668" x2="1225.231" y2="687.668"/>
		
			<line fill="none" stroke="#2B3990" stroke-width="12" stroke-linecap="round" stroke-linejoin="round" stroke-miterlimit="10" x1="1252.092" y1="687.668" x2="1314.231" y2="687.668"/>
		<g>
			
				<line fill="none" stroke="#2B3990" stroke-width="12" stroke-linecap="round" stroke-linejoin="round" stroke-miterlimit="10" x1="4747.092" y1="912.668" x2="4809.23" y2="912.668"/>
			
				<line fill="none" stroke="#2B3990" stroke-width="12" stroke-linecap="round" stroke-linejoin="round" stroke-miterlimit="10" x1="4836.092" y1="912.668" x2="4898.23" y2="912.668"/>
		</g>
		<g>
			
				<line fill="none" stroke="#2B3990" stroke-width="12" stroke-linecap="round" stroke-linejoin="round" stroke-miterlimit="10" x1="4747.092" y1="928.668" x2="4809.23" y2="928.668"/>
			
				<line fill="none" stroke="#2B3990" stroke-width="12" stroke-linecap="round" stroke-linejoin="round" stroke-miterlimit="10" x1="4836.092" y1="928.668" x2="4898.23" y2="928.668"/>
		</g>
	</g>
	<g id="migraines-svg">
		<g>
			
				<line fill="none" stroke="#FFFFFF" stroke-width="12" stroke-linecap="round" stroke-linejoin="round" stroke-miterlimit="10" x1="266.092" y1="1032.668" x2="328.231" y2="1032.668"/>
			
				<line fill="none" stroke="#FFFFFF" stroke-width="12" stroke-linecap="round" stroke-linejoin="round" stroke-miterlimit="10" x1="355.092" y1="1032.668" x2="417.231" y2="1032.668"/>
		</g>
		<g>
			
				<line fill="none" stroke="#FFFFFF" stroke-width="12" stroke-linecap="round" stroke-linejoin="round" stroke-miterlimit="10" x1="42.092" y1="207.667" x2="104.231" y2="207.667"/>
			
				<line fill="none" stroke="#FFFFFF" stroke-width="12" stroke-linecap="round" stroke-linejoin="round" stroke-miterlimit="10" x1="131.092" y1="207.667" x2="193.231" y2="207.667"/>
		</g>
		<g>
			
				<line fill="none" stroke="#FFFFFF" stroke-width="12" stroke-linecap="round" stroke-linejoin="round" stroke-miterlimit="10" x1="1166.092" y1="783.668" x2="1228.231" y2="783.668"/>
			
				<line fill="none" stroke="#FFFFFF" stroke-width="12" stroke-linecap="round" stroke-linejoin="round" stroke-miterlimit="10" x1="1255.092" y1="783.668" x2="1317.231" y2="783.668"/>
		</g>
		<g>
			
				<line fill="none" stroke="#FFFFFF" stroke-width="12" stroke-linecap="round" stroke-linejoin="round" stroke-miterlimit="10" x1="1610.092" y1="971.668" x2="1672.231" y2="971.668"/>
			
				<line fill="none" stroke="#FFFFFF" stroke-width="12" stroke-linecap="round" stroke-linejoin="round" stroke-miterlimit="10" x1="1699.092" y1="971.668" x2="1761.231" y2="971.668"/>
		</g>
		<g>
			
				<line fill="none" stroke="#58595B" stroke-width="12" stroke-linecap="round" stroke-linejoin="round" stroke-miterlimit="10" x1="2505.092" y1="865.668" x2="2567.231" y2="865.668"/>
			
				<line fill="none" stroke="#58595B" stroke-width="12" stroke-linecap="round" stroke-linejoin="round" stroke-miterlimit="10" x1="2594.092" y1="865.668" x2="2656.231" y2="865.668"/>
		</g>
	</g>
	<g id="breastcancer-svg">
		<g>
			
				<line fill="none" stroke="#EC008C" stroke-width="12" stroke-linecap="round" stroke-linejoin="round" stroke-miterlimit="10" x1="2059.048" y1="1053.668" x2="2121.188" y2="1053.668"/>
			
				<line fill="none" stroke="#EC008C" stroke-width="12" stroke-linecap="round" stroke-linejoin="round" stroke-miterlimit="10" x1="2148.048" y1="1053.668" x2="2210.188" y2="1053.668"/>
		</g>
		<g>
			
				<line fill="none" stroke="#EC008C" stroke-width="12" stroke-linecap="round" stroke-linejoin="round" stroke-miterlimit="10" x1="3623.048" y1="813.669" x2="3685.188" y2="813.669"/>
			
				<line fill="none" stroke="#EC008C" stroke-width="12" stroke-linecap="round" stroke-linejoin="round" stroke-miterlimit="10" x1="3712.048" y1="813.669" x2="3774.188" y2="813.669"/>
		</g>
		<g>
			
				<line fill="none" stroke="#EC008C" stroke-width="12" stroke-linecap="round" stroke-linejoin="round" stroke-miterlimit="10" x1="2059.048" y1="1035.668" x2="2121.188" y2="1035.668"/>
			
				<line fill="none" stroke="#EC008C" stroke-width="12" stroke-linecap="round" stroke-linejoin="round" stroke-miterlimit="10" x1="2148.048" y1="1035.668" x2="2210.188" y2="1035.668"/>
		</g>
		<g>
			
				<line fill="none" stroke="#EC008C" stroke-width="12" stroke-linecap="round" stroke-linejoin="round" stroke-miterlimit="10" x1="4077.048" y1="975.669" x2="4139.188" y2="975.669"/>
			
				<line fill="none" stroke="#EC008C" stroke-width="12" stroke-linecap="round" stroke-linejoin="round" stroke-miterlimit="10" x1="4166.047" y1="975.669" x2="4228.188" y2="975.669"/>
		</g>
		<g>
			
				<line fill="none" stroke="#EC008C" stroke-width="12" stroke-linecap="round" stroke-linejoin="round" stroke-miterlimit="10" x1="1163.048" y1="998.669" x2="1225.188" y2="998.669"/>
			
				<line fill="none" stroke="#EC008C" stroke-width="12" stroke-linecap="round" stroke-linejoin="round" stroke-miterlimit="10" x1="1252.048" y1="998.669" x2="1314.188" y2="998.669"/>
		</g>
		<g>
			
				<line fill="none" stroke="#EC008C" stroke-width="12" stroke-linecap="round" stroke-linejoin="round" stroke-miterlimit="10" x1="939.048" y1="690.669" x2="1001.188" y2="690.669"/>
			
				<line fill="none" stroke="#EC008C" stroke-width="12" stroke-linecap="round" stroke-linejoin="round" stroke-miterlimit="10" x1="1028.048" y1="690.669" x2="1090.188" y2="690.669"/>
		</g>
		<g>
			
				<line fill="none" stroke="#EC008C" stroke-width="12" stroke-linecap="round" stroke-linejoin="round" stroke-miterlimit="10" x1="267.048" y1="964.669" x2="329.188" y2="964.669"/>
			
				<line fill="none" stroke="#EC008C" stroke-width="12" stroke-linecap="round" stroke-linejoin="round" stroke-miterlimit="10" x1="356.048" y1="964.669" x2="418.188" y2="964.669"/>
		</g>
		<g>
			
				<line fill="none" stroke="#EC008C" stroke-width="12" stroke-linecap="round" stroke-linejoin="round" stroke-miterlimit="10" x1="2059.048" y1="999.669" x2="2121.188" y2="999.669"/>
			
				<line fill="none" stroke="#EC008C" stroke-width="12" stroke-linecap="round" stroke-linejoin="round" stroke-miterlimit="10" x1="2148.048" y1="999.669" x2="2210.188" y2="999.669"/>
		</g>
		<g>
			
				<line fill="none" stroke="#EC008C" stroke-width="12" stroke-linecap="round" stroke-linejoin="round" stroke-miterlimit="10" x1="2059.048" y1="987.669" x2="2121.188" y2="987.669"/>
			
				<line fill="none" stroke="#EC008C" stroke-width="12" stroke-linecap="round" stroke-linejoin="round" stroke-miterlimit="10" x1="2148.048" y1="987.669" x2="2210.188" y2="987.669"/>
		</g>
	</g>
	<g id="alzh-svg">
		<g>
			
				<line fill="none" stroke="#92278F" stroke-width="12" stroke-linecap="round" stroke-linejoin="round" stroke-miterlimit="10" x1="4075.643" y1="1029.677" x2="4137.781" y2="1029.677"/>
			
				<line fill="none" stroke="#92278F" stroke-width="12" stroke-linecap="round" stroke-linejoin="round" stroke-miterlimit="10" x1="4164.643" y1="1029.677" x2="4226.781" y2="1029.677"/>
		</g>
		<g>
			
				<line fill="none" stroke="#92278F" stroke-width="12" stroke-linecap="round" stroke-linejoin="round" stroke-miterlimit="10" x1="4075.643" y1="1045.677" x2="4137.781" y2="1045.677"/>
			
				<line fill="none" stroke="#92278F" stroke-width="12" stroke-linecap="round" stroke-linejoin="round" stroke-miterlimit="10" x1="4164.643" y1="1045.677" x2="4226.781" y2="1045.677"/>
		</g>
		<g>
			
				<line fill="none" stroke="#92278F" stroke-width="12" stroke-linecap="round" stroke-linejoin="round" stroke-miterlimit="10" x1="4075.643" y1="1061.677" x2="4137.781" y2="1061.677"/>
			
				<line fill="none" stroke="#92278F" stroke-width="12" stroke-linecap="round" stroke-linejoin="round" stroke-miterlimit="10" x1="4164.643" y1="1061.677" x2="4226.781" y2="1061.677"/>
		</g>
		<g>
			
				<line fill="none" stroke="#92278F" stroke-width="12" stroke-linecap="round" stroke-linejoin="round" stroke-miterlimit="10" x1="4075.643" y1="1013.677" x2="4137.781" y2="1013.677"/>
			
				<line fill="none" stroke="#92278F" stroke-width="12" stroke-linecap="round" stroke-linejoin="round" stroke-miterlimit="10" x1="4164.643" y1="1013.677" x2="4226.781" y2="1013.677"/>
		</g>
		<g>
			
				<line fill="none" stroke="#92278F" stroke-width="12" stroke-linecap="round" stroke-linejoin="round" stroke-miterlimit="10" x1="265.26" y1="341.609" x2="327.399" y2="341.609"/>
			
				<line fill="none" stroke="#92278F" stroke-width="12" stroke-linecap="round" stroke-linejoin="round" stroke-miterlimit="10" x1="354.26" y1="341.609" x2="416.399" y2="341.609"/>
		</g>
	</g>
	<g id="arthritis-svg">
		<g>
			
				<line fill="none" stroke="#009444" stroke-width="12" stroke-linecap="round" stroke-linejoin="round" stroke-miterlimit="10" x1="1163.225" y1="975.688" x2="1225.364" y2="975.688"/>
			
				<line fill="none" stroke="#009444" stroke-width="12" stroke-linecap="round" stroke-linejoin="round" stroke-miterlimit="10" x1="1252.225" y1="975.688" x2="1314.364" y2="975.688"/>
		</g>
		<g>
			
				<line fill="none" stroke="#009444" stroke-width="12" stroke-linecap="round" stroke-linejoin="round" stroke-miterlimit="10" x1="266.769" y1="909.689" x2="328.909" y2="909.689"/>
			
				<line fill="none" stroke="#009444" stroke-width="12" stroke-linecap="round" stroke-linejoin="round" stroke-miterlimit="10" x1="355.769" y1="909.689" x2="417.908" y2="909.689"/>
		</g>
		<g>
			
				<line fill="none" stroke="#009444" stroke-width="12" stroke-linecap="round" stroke-linejoin="round" stroke-miterlimit="10" x1="40.78" y1="596.705" x2="102.92" y2="596.705"/>
			
				<line fill="none" stroke="#009444" stroke-width="12" stroke-linecap="round" stroke-linejoin="round" stroke-miterlimit="10" x1="129.78" y1="596.705" x2="191.92" y2="596.705"/>
		</g>
		<g>
			
				<line fill="none" stroke="#009444" stroke-width="12" stroke-linecap="round" stroke-linejoin="round" stroke-miterlimit="10" x1="1163.225" y1="654.704" x2="1225.364" y2="654.704"/>
			
				<line fill="none" stroke="#009444" stroke-width="12" stroke-linecap="round" stroke-linejoin="round" stroke-miterlimit="10" x1="1252.225" y1="654.704" x2="1314.364" y2="654.704"/>
		</g>
		<g>
			
				<line fill="none" stroke="#009444" stroke-width="12" stroke-linecap="round" stroke-linejoin="round" stroke-miterlimit="10" x1="1163.225" y1="619.205" x2="1225.364" y2="619.205"/>
			
				<line fill="none" stroke="#009444" stroke-width="12" stroke-linecap="round" stroke-linejoin="round" stroke-miterlimit="10" x1="1252.225" y1="619.205" x2="1314.364" y2="619.205"/>
		</g>
		<g>
			
				<line fill="none" stroke="#009444" stroke-width="12" stroke-linecap="round" stroke-linejoin="round" stroke-miterlimit="10" x1="1163.225" y1="670.203" x2="1225.364" y2="670.203"/>
			
				<line fill="none" stroke="#009444" stroke-width="12" stroke-linecap="round" stroke-linejoin="round" stroke-miterlimit="10" x1="1252.225" y1="670.203" x2="1314.364" y2="670.203"/>
		</g>
	</g>
	<g id="hemo-svg">
		<g>
			
				<line fill="none" stroke="#F7941E" stroke-width="12" stroke-linecap="round" stroke-linejoin="round" stroke-miterlimit="10" x1="1162.777" y1="567.959" x2="1224.916" y2="567.959"/>
			
				<line fill="none" stroke="#F7941E" stroke-width="12" stroke-linecap="round" stroke-linejoin="round" stroke-miterlimit="10" x1="1251.777" y1="567.959" x2="1313.916" y2="567.959"/>
		</g>
		<g>
			
				<line fill="none" stroke="#F7941E" stroke-width="12" stroke-linecap="round" stroke-linejoin="round" stroke-miterlimit="10" x1="1162.777" y1="588.957" x2="1224.916" y2="588.957"/>
			
				<line fill="none" stroke="#F7941E" stroke-width="12" stroke-linecap="round" stroke-linejoin="round" stroke-miterlimit="10" x1="1251.777" y1="588.957" x2="1313.916" y2="588.957"/>
		</g>
	</g>
	<g id="rosacea-svg">
	</g>
</g>
<g id="markers" display="none">
	
		<circle display="inline" fill="#010101" stroke="#A8AAAD" stroke-width="1.5" stroke-miterlimit="10" cx="71.199" cy="128.369" r="18"/>
	
		<circle display="inline" fill="#010101" stroke="#A8AAAD" stroke-width="1.5" stroke-miterlimit="10" cx="160.199" cy="128.369" r="18"/>
	
		<circle display="inline" fill="#010101" stroke="#A8AAAD" stroke-width="1.5" stroke-miterlimit="10" cx="299.199" cy="128.369" r="18"/>
	
		<circle display="inline" fill="#010101" stroke="#A8AAAD" stroke-width="1.5" stroke-miterlimit="10" cx="387.199" cy="128.369" r="18"/>
	
		<circle display="inline" fill="#010101" stroke="#A8AAAD" stroke-width="1.5" stroke-miterlimit="10" cx="524.199" cy="323.369" r="18"/>
	
		<circle display="inline" fill="#010101" stroke="#A8AAAD" stroke-width="1.5" stroke-miterlimit="10" cx="612.199" cy="323.369" r="18"/>
	
		<circle display="inline" fill="#010101" stroke="#A8AAAD" stroke-width="1.5" stroke-miterlimit="10" cx="740.199" cy="323.369" r="18"/>
	
		<circle display="inline" fill="#010101" stroke="#A8AAAD" stroke-width="1.5" stroke-miterlimit="10" cx="828.199" cy="323.369" r="18"/>
	
		<circle display="inline" fill="#010101" stroke="#A8AAAD" stroke-width="1.5" stroke-miterlimit="10" cx="967.199" cy="354.369" r="18"/>
	
		<circle display="inline" fill="#010101" stroke="#A8AAAD" stroke-width="1.5" stroke-miterlimit="10" cx="1055.199" cy="354.369" r="18"/>
	
		<circle display="inline" fill="#010101" stroke="#A8AAAD" stroke-width="1.5" stroke-miterlimit="10" cx="1192.199" cy="354.369" r="18"/>
	
		<circle display="inline" fill="#010101" stroke="#A8AAAD" stroke-width="1.5" stroke-miterlimit="10" cx="1280.199" cy="354.369" r="18"/>
	
		<circle display="inline" fill="#010101" stroke="#A8AAAD" stroke-width="1.5" stroke-miterlimit="10" cx="1412.199" cy="443.369" r="18"/>
	
		<circle display="inline" fill="#010101" stroke="#A8AAAD" stroke-width="1.5" stroke-miterlimit="10" cx="1500.199" cy="443.369" r="18"/>
	
		<circle display="inline" fill="#010101" stroke="#A8AAAD" stroke-width="1.5" stroke-miterlimit="10" cx="1635.199" cy="525.369" r="18"/>
	
		<circle display="inline" fill="#010101" stroke="#A8AAAD" stroke-width="1.5" stroke-miterlimit="10" cx="1723.199" cy="525.369" r="18"/>
	
		<circle display="inline" fill="#010101" stroke="#A8AAAD" stroke-width="1.5" stroke-miterlimit="10" cx="1858.199" cy="551.369" r="18"/>
	
		<circle display="inline" fill="#010101" stroke="#A8AAAD" stroke-width="1.5" stroke-miterlimit="10" cx="1946.199" cy="551.369" r="18"/>
	
		<circle display="inline" fill="#010101" stroke="#A8AAAD" stroke-width="1.5" stroke-miterlimit="10" cx="2086.199" cy="551.369" r="18"/>
	
		<circle display="inline" fill="#010101" stroke="#A8AAAD" stroke-width="1.5" stroke-miterlimit="10" cx="2174.199" cy="551.369" r="18"/>
	
		<circle display="inline" fill="#010101" stroke="#A8AAAD" stroke-width="1.5" stroke-miterlimit="10" cx="2309.199" cy="569.369" r="18"/>
	
		<circle display="inline" fill="#010101" stroke="#A8AAAD" stroke-width="1.5" stroke-miterlimit="10" cx="2397.199" cy="569.369" r="18"/>
	
		<circle display="inline" fill="#010101" stroke="#A8AAAD" stroke-width="1.5" stroke-miterlimit="10" cx="2532.199" cy="551.369" r="18"/>
	
		<circle display="inline" fill="#010101" stroke="#A8AAAD" stroke-width="1.5" stroke-miterlimit="10" cx="2620.199" cy="551.369" r="18"/>
	
		<circle display="inline" fill="#010101" stroke="#A8AAAD" stroke-width="1.5" stroke-miterlimit="10" cx="2760.199" cy="651.369" r="18"/>
	
		<circle display="inline" fill="#010101" stroke="#A8AAAD" stroke-width="1.5" stroke-miterlimit="10" cx="2848.199" cy="651.369" r="18"/>
	
		<circle display="inline" fill="#010101" stroke="#A8AAAD" stroke-width="1.5" stroke-miterlimit="10" cx="2984.199" cy="656.369" r="18"/>
	
		<circle display="inline" fill="#010101" stroke="#A8AAAD" stroke-width="1.5" stroke-miterlimit="10" cx="3072.199" cy="656.369" r="18"/>
	
		<circle display="inline" fill="#010101" stroke="#A8AAAD" stroke-width="1.5" stroke-miterlimit="10" cx="3200.199" cy="656.369" r="18"/>
	
		<circle display="inline" fill="#010101" stroke="#A8AAAD" stroke-width="1.5" stroke-miterlimit="10" cx="3288.199" cy="656.369" r="18"/>
	
		<circle display="inline" fill="#010101" stroke="#A8AAAD" stroke-width="1.5" stroke-miterlimit="10" cx="3428.199" cy="656.369" r="18"/>
	
		<circle display="inline" fill="#010101" stroke="#A8AAAD" stroke-width="1.5" stroke-miterlimit="10" cx="3516.199" cy="656.369" r="18"/>
	
		<circle display="inline" fill="#010101" stroke="#A8AAAD" stroke-width="1.5" stroke-miterlimit="10" cx="3652.199" cy="656.369" r="18"/>
	
		<circle display="inline" fill="#010101" stroke="#A8AAAD" stroke-width="1.5" stroke-miterlimit="10" cx="3740.199" cy="656.369" r="18"/>
	
		<circle display="inline" fill="#010101" stroke="#A8AAAD" stroke-width="1.5" stroke-miterlimit="10" cx="3884.199" cy="715.369" r="18"/>
	
		<circle display="inline" fill="#010101" stroke="#A8AAAD" stroke-width="1.5" stroke-miterlimit="10" cx="3972.199" cy="715.369" r="18"/>
	
		<circle display="inline" fill="#010101" stroke="#A8AAAD" stroke-width="1.5" stroke-miterlimit="10" cx="4108.199" cy="753.369" r="18"/>
	
		<circle display="inline" fill="#010101" stroke="#A8AAAD" stroke-width="1.5" stroke-miterlimit="10" cx="4196.199" cy="753.369" r="18"/>
	
		<circle display="inline" fill="#010101" stroke="#A8AAAD" stroke-width="1.5" stroke-miterlimit="10" cx="4332.199" cy="791.369" r="18"/>
	
		<circle display="inline" fill="#010101" stroke="#A8AAAD" stroke-width="1.5" stroke-miterlimit="10" cx="4420.199" cy="791.369" r="18"/>
	
		<circle display="inline" fill="#010101" stroke="#A8AAAD" stroke-width="1.5" stroke-miterlimit="10" cx="4564.199" cy="803.369" r="18"/>
	
		<circle display="inline" fill="#010101" stroke="#A8AAAD" stroke-width="1.5" stroke-miterlimit="10" cx="4652.199" cy="803.369" r="18"/>
	
		<circle display="inline" fill="#010101" stroke="#A8AAAD" stroke-width="1.5" stroke-miterlimit="10" cx="4776.199" cy="797.369" r="18"/>
	
		<circle display="inline" fill="#010101" stroke="#A8AAAD" stroke-width="1.5" stroke-miterlimit="10" cx="4864.199" cy="797.369" r="18"/>
	
		<circle display="inline" fill="#010101" stroke="#A8AAAD" stroke-width="1.5" stroke-miterlimit="10" cx="5009.199" cy="385.369" r="18"/>
	
		<circle display="inline" fill="#010101" stroke="#A8AAAD" stroke-width="1.5" stroke-miterlimit="10" cx="5147.199" cy="385.369" r="18"/>
</g>
<g id="mark-dep" display="none">
	
		<circle display="inline" fill="#010101" stroke="#A8AAAD" stroke-width="1.5" stroke-miterlimit="10" cx="71.199" cy="128.369" r="18"/>
	
		<circle display="inline" fill="#010101" stroke="#A8AAAD" stroke-width="1.5" stroke-miterlimit="10" cx="160.199" cy="128.369" r="18"/>
	
		<circle display="inline" fill="#010101" stroke="#A8AAAD" stroke-width="1.5" stroke-miterlimit="10" cx="299.199" cy="128.369" r="18"/>
	
		<circle display="inline" fill="#010101" stroke="#A8AAAD" stroke-width="1.5" stroke-miterlimit="10" cx="387.199" cy="128.369" r="18"/>
	
		<circle display="inline" fill="#010101" stroke="#A8AAAD" stroke-width="1.5" stroke-miterlimit="10" cx="524.199" cy="323.369" r="18"/>
	
		<circle display="inline" fill="#010101" stroke="#A8AAAD" stroke-width="1.5" stroke-miterlimit="10" cx="612.199" cy="323.369" r="18"/>
	
		<circle display="inline" fill="#010101" stroke="#A8AAAD" stroke-width="1.5" stroke-miterlimit="10" cx="740.199" cy="323.369" r="18"/>
	
		<circle display="inline" fill="#010101" stroke="#A8AAAD" stroke-width="1.5" stroke-miterlimit="10" cx="828.199" cy="323.369" r="18"/>
	
		<circle display="inline" fill="#010101" stroke="#A8AAAD" stroke-width="1.5" stroke-miterlimit="10" cx="967.199" cy="354.369" r="18"/>
	
		<circle display="inline" fill="#010101" stroke="#A8AAAD" stroke-width="1.5" stroke-miterlimit="10" cx="1055.199" cy="354.369" r="18"/>
	
		<circle display="inline" fill="#010101" stroke="#A8AAAD" stroke-width="1.5" stroke-miterlimit="10" cx="1192.199" cy="354.369" r="18"/>
	
		<circle display="inline" fill="#010101" stroke="#A8AAAD" stroke-width="1.5" stroke-miterlimit="10" cx="1280.199" cy="354.369" r="18"/>
	
		<circle display="inline" fill="#010101" stroke="#A8AAAD" stroke-width="1.5" stroke-miterlimit="10" cx="1412.199" cy="443.369" r="18"/>
	
		<circle display="inline" fill="#010101" stroke="#A8AAAD" stroke-width="1.5" stroke-miterlimit="10" cx="1500.199" cy="443.369" r="18"/>
	
		<circle display="inline" fill="#010101" stroke="#A8AAAD" stroke-width="1.5" stroke-miterlimit="10" cx="1635.199" cy="525.369" r="18"/>
	
		<circle display="inline" fill="#010101" stroke="#A8AAAD" stroke-width="1.5" stroke-miterlimit="10" cx="1723.199" cy="525.369" r="18"/>
	
		<circle display="inline" fill="#010101" stroke="#A8AAAD" stroke-width="1.5" stroke-miterlimit="10" cx="1858.199" cy="551.369" r="18"/>
	
		<circle display="inline" fill="#010101" stroke="#A8AAAD" stroke-width="1.5" stroke-miterlimit="10" cx="1946.199" cy="551.369" r="18"/>
	
		<circle display="inline" fill="#010101" stroke="#A8AAAD" stroke-width="1.5" stroke-miterlimit="10" cx="2086.199" cy="551.369" r="18"/>
	
		<circle display="inline" fill="#010101" stroke="#A8AAAD" stroke-width="1.5" stroke-miterlimit="10" cx="2174.199" cy="551.369" r="18"/>
	
		<circle display="inline" fill="#010101" stroke="#A8AAAD" stroke-width="1.5" stroke-miterlimit="10" cx="2309.199" cy="569.369" r="18"/>
	
		<circle display="inline" fill="#010101" stroke="#A8AAAD" stroke-width="1.5" stroke-miterlimit="10" cx="2397.199" cy="569.369" r="18"/>
	
		<circle display="inline" fill="#010101" stroke="#A8AAAD" stroke-width="1.5" stroke-miterlimit="10" cx="2532.199" cy="551.369" r="18"/>
	
		<circle display="inline" fill="#010101" stroke="#A8AAAD" stroke-width="1.5" stroke-miterlimit="10" cx="2620.199" cy="551.369" r="18"/>
	
		<circle display="inline" fill="#010101" stroke="#A8AAAD" stroke-width="1.5" stroke-miterlimit="10" cx="2760.199" cy="651.369" r="18"/>
	
		<circle display="inline" fill="#010101" stroke="#A8AAAD" stroke-width="1.5" stroke-miterlimit="10" cx="2848.199" cy="651.369" r="18"/>
	
		<circle display="inline" fill="#010101" stroke="#A8AAAD" stroke-width="1.5" stroke-miterlimit="10" cx="2984.199" cy="656.369" r="18"/>
	
		<circle display="inline" fill="#010101" stroke="#A8AAAD" stroke-width="1.5" stroke-miterlimit="10" cx="3072.199" cy="656.369" r="18"/>
	
		<circle display="inline" fill="#010101" stroke="#A8AAAD" stroke-width="1.5" stroke-miterlimit="10" cx="3200.199" cy="656.369" r="18"/>
	
		<circle display="inline" fill="#010101" stroke="#A8AAAD" stroke-width="1.5" stroke-miterlimit="10" cx="3288.199" cy="656.369" r="18"/>
	
		<circle display="inline" fill="#010101" stroke="#A8AAAD" stroke-width="1.5" stroke-miterlimit="10" cx="3428.199" cy="656.369" r="18"/>
	
		<circle display="inline" fill="#010101" stroke="#A8AAAD" stroke-width="1.5" stroke-miterlimit="10" cx="3516.199" cy="656.369" r="18"/>
	
		<circle display="inline" fill="#010101" stroke="#A8AAAD" stroke-width="1.5" stroke-miterlimit="10" cx="3652.199" cy="656.369" r="18"/>
	
		<circle display="inline" fill="#010101" stroke="#A8AAAD" stroke-width="1.5" stroke-miterlimit="10" cx="3740.199" cy="656.369" r="18"/>
	
		<circle display="inline" fill="#010101" stroke="#A8AAAD" stroke-width="1.5" stroke-miterlimit="10" cx="3884.199" cy="715.369" r="18"/>
	
		<circle display="inline" fill="#010101" stroke="#A8AAAD" stroke-width="1.5" stroke-miterlimit="10" cx="3972.199" cy="715.369" r="18"/>
	
		<circle display="inline" fill="#010101" stroke="#A8AAAD" stroke-width="1.5" stroke-miterlimit="10" cx="4108.199" cy="753.369" r="18"/>
	
		<circle display="inline" fill="#010101" stroke="#A8AAAD" stroke-width="1.5" stroke-miterlimit="10" cx="4196.199" cy="753.369" r="18"/>
	
		<circle display="inline" fill="#010101" stroke="#A8AAAD" stroke-width="1.5" stroke-miterlimit="10" cx="4332.199" cy="791.369" r="18"/>
	
		<circle display="inline" fill="#010101" stroke="#A8AAAD" stroke-width="1.5" stroke-miterlimit="10" cx="4420.199" cy="791.369" r="18"/>
	
		<circle display="inline" fill="#010101" stroke="#A8AAAD" stroke-width="1.5" stroke-miterlimit="10" cx="4564.199" cy="803.369" r="18"/>
	
		<circle display="inline" fill="#010101" stroke="#A8AAAD" stroke-width="1.5" stroke-miterlimit="10" cx="4652.199" cy="803.369" r="18"/>
	
		<circle display="inline" fill="#010101" stroke="#A8AAAD" stroke-width="1.5" stroke-miterlimit="10" cx="4776.199" cy="797.369" r="18"/>
	
		<circle display="inline" fill="#010101" stroke="#A8AAAD" stroke-width="1.5" stroke-miterlimit="10" cx="4864.199" cy="797.369" r="18"/>
	
		<circle display="inline" fill="#010101" stroke="#A8AAAD" stroke-width="1.5" stroke-miterlimit="10" cx="5009.199" cy="385.369" r="18"/>
	
		<circle display="inline" fill="#010101" stroke="#A8AAAD" stroke-width="1.5" stroke-miterlimit="10" cx="5147.199" cy="385.369" r="18"/>
</g>
<g id="mark-alz">
	<circle fill="#FFFFFF" cx="299.199" cy="128.369" r="18"/>
	<circle fill="#FFFFFF" cx="387.199" cy="128.369" r="18"/>
	<circle fill="#FFFFFF" cx="4108.199" cy="753.369" r="18"/>
	<circle fill="#FFFFFF" cx="4196.199" cy="753.369" r="18"/>
</g>
<g id="mark-breast" display="none">
	<circle display="inline" fill="#FFFFFF" cx="299.199" cy="128.369" r="18"/>
	<circle display="inline" fill="#FFFFFF" cx="387.199" cy="128.369" r="18"/>
	<circle display="inline" fill="#FFFFFF" cx="967.199" cy="354.369" r="18"/>
	<circle display="inline" fill="#FFFFFF" cx="1055.199" cy="354.369" r="18"/>
	<circle display="inline" fill="#FFFFFF" cx="1192.199" cy="354.369" r="18"/>
	<circle display="inline" fill="#FFFFFF" cx="1280.199" cy="354.369" r="18"/>
	<circle display="inline" fill="#FFFFFF" cx="2086.199" cy="551.369" r="18"/>
	<circle display="inline" fill="#FFFFFF" cx="2174.199" cy="551.369" r="18"/>
	<circle display="inline" fill="#FFFFFF" cx="3652.199" cy="656.369" r="18"/>
	<circle display="inline" fill="#FFFFFF" cx="3740.199" cy="656.369" r="18"/>
	<circle display="inline" fill="#FFFFFF" cx="4108.199" cy="753.369" r="18"/>
	<circle display="inline" fill="#FFFFFF" cx="4196.199" cy="753.369" r="18"/>
</g>
<g id="mark-derm" display="none">
	<circle display="inline" fill="#FFFFFF" cx="71.199" cy="128.369" r="18"/>
	<circle display="inline" fill="#FFFFFF" cx="160.199" cy="128.369" r="18"/>
	<circle display="inline" fill="#FFFFFF" cx="2309.199" cy="569.369" r="18"/>
	<circle display="inline" fill="#FFFFFF" cx="2397.199" cy="569.369" r="18"/>
</g>
<g id="mark-arth" display="none">
	<circle display="inline" fill="#FFFFFF" cx="71.199" cy="128.369" r="18"/>
	<circle display="inline" fill="#FFFFFF" cx="160.199" cy="128.369" r="18"/>
	<circle display="inline" fill="#FFFFFF" cx="299.199" cy="128.369" r="18"/>
	<circle display="inline" fill="#FFFFFF" cx="387.199" cy="128.369" r="18"/>
	<circle display="inline" fill="#FFFFFF" cx="1192.199" cy="354.369" r="18"/>
	<circle display="inline" fill="#FFFFFF" cx="1280.199" cy="354.369" r="18"/>
</g>
<g id="mark-gerd" display="none">
	<circle display="inline" fill="#FFFFFF" cx="1412.199" cy="443.369" r="18"/>
	<circle display="inline" fill="#FFFFFF" cx="1500.199" cy="443.369" r="18"/>
</g>
<g id="mark-rayn" display="none">
	<circle display="inline" fill="#FFFFFF" cx="1192.199" cy="354.369" r="18"/>
	<circle display="inline" fill="#FFFFFF" cx="1280.199" cy="354.369" r="18"/>
</g>
<g id="mark-migr_copy" display="none">
	<circle display="inline" fill="#FFFFFF" cx="71.199" cy="128.369" r="18"/>
	<circle display="inline" fill="#FFFFFF" cx="160.199" cy="128.369" r="18"/>
	<circle display="inline" fill="#FFFFFF" cx="1192.199" cy="354.369" r="18"/>
	<circle display="inline" fill="#FFFFFF" cx="1280.199" cy="354.369" r="18"/>
	<circle display="inline" fill="#FFFFFF" cx="1635.199" cy="525.369" r="18"/>
	<circle display="inline" fill="#FFFFFF" cx="1723.199" cy="525.369" r="18"/>
</g>
</svg>
