<?xml version="1.0" encoding="utf-8"?>
<!-- Generator: Adobe Illustrator 16.0.4, SVG Export Plug-In . SVG Version: 6.00 Build 0)  -->
<!DOCTYPE svg PUBLIC "-//W3C//DTD SVG 1.1//EN" "http://www.w3.org/Graphics/SVG/1.1/DTD/svg11.dtd">
<svg version="1.1" id="BG" xmlns="http://www.w3.org/2000/svg" xmlns:xlink="http://www.w3.org/1999/xlink" x="0px" y="0px"
	 width="5551.398px" height="1301.738px" viewBox="0 0 5551.398 1301.738" enable-background="new 0 0 5551.398 1301.738"
	 xml:space="preserve">
<g>
	<path stroke="#A7A9AC" stroke-width="2" stroke-miterlimit="10" d="M640.965,745.413l0.018-0.018
		c-0.979-1.823-2.306-3.473-3.762-4.956c-0.925-1.023-1.901-1.998-2.939-2.901c7.163-6.007,11.784-15.25,11.784-25.879v-0.229
		v-66.777v-0.229v-21.259v-0.691v-15.021v-0.689v-15.711v-96.583v-4.393v-76.712c0-2.443-0.274-4.844-0.782-7.164h0.089
		c-2.781-14.134-14.896-25.284-29.899-26.841c-0.05-0.005-0.102-0.011-0.146-0.016c-0.479-0.047-0.96-0.084-1.44-0.112
		c-0.104-0.006-0.207-0.016-0.312-0.021c-0.562-0.027-1.127-0.046-1.695-0.046c-0.561,0-1.111,0.018-1.668,0.043
		c-0.15,0.008-0.308,0.021-0.462,0.027c-0.402,0.024-0.81,0.055-1.212,0.091c-0.154,0.02-0.312,0.034-0.471,0.055
		c-0.409,0.044-0.814,0.096-1.221,0.15c-0.131,0.021-0.259,0.039-0.39,0.062c-0.458,0.069-0.913,0.149-1.36,0.243
		c-0.067,0.013-0.139,0.022-0.201,0.04c-5.504,1.126-10.518,3.559-14.688,6.99c-0.251,0.205-0.49,0.417-0.733,0.631
		c-0.104,0.089-0.201,0.173-0.3,0.261c-7.059,6.256-11.493,15.391-11.493,25.604v30.038v15.481v17.792v15.479v2.08v96.583v0.231
		v18.021v15.711v17.562l-0.23,0.229v69.086c0,4.622,0.925,9.243,3.004,13.402c0.339,0.749,0.707,1.479,1.095,2.205
		c0.14,0.265,0.28,0.525,0.43,0.788c0.116,0.209,0.233,0.419,0.354,0.625c0.209,0.354,0.43,0.709,0.646,1.059
		c0.117,0.188,0.233,0.37,0.354,0.555c0.166,0.25,0.337,0.497,0.509,0.742c1.566,2.271,3.373,4.377,5.396,6.272
		c-6.008,5.083-9.704,11.784-11.32,19.41l0.481-0.482c-0.081,0.384-0.164,0.771-0.229,1.153l-0.021,0.021
		c-0.462,2.08-0.924,4.16-0.924,6.239v11.784l0.462-0.462v52.451v0.462v17.561v11.784v17.792v103.052v18.947v71.167v0.692
		c0,18.482,15.25,34.193,34.195,34.193c18.944,0,34.194-15.25,34.194-34.193v-0.692v-71.167v-18.947v-105.13v-17.792v-9.704v-17.561
		v-0.462V781.9h0.463v-18.254c-0.187-4.282-1.059-8.258-2.487-11.895C643.228,749.525,642.194,747.402,640.965,745.413z"/>
	<path stroke="#A7A9AC" stroke-width="2" stroke-miterlimit="10" d="M556.969,756.203c-0.037-0.149-0.078-0.304-0.118-0.456
		c-0.104-0.394-0.213-0.781-0.329-1.173c-0.063-0.216-0.131-0.431-0.198-0.645c-0.146-0.471-0.308-0.938-0.473-1.399
		c-0.004-0.012-0.009-0.021-0.013-0.037c-0.204-0.563-0.42-1.126-0.646-1.677c-0.086-0.217-0.176-0.432-0.267-0.646
		c-0.052-0.11-0.099-0.224-0.146-0.329c-1.706-3.938-4.131-7.495-7.097-10.502l0.182-0.186c-0.242-0.121-0.479-0.242-0.714-0.355
		c-0.365-0.354-0.741-0.697-1.121-1.034c3.362-3.191,6.484-6.955,8.175-11.116c1.575-3.28,2.646-6.888,3.104-10.729
		c0.01-0.064,0.019-0.131,0.026-0.192c0.015-0.125,0.022-0.25,0.035-0.375c0.118-0.996,0.194-1.996,0.194-2.997v-0.693v-82.022
		v-0.23v-17.33V596.6v-5.545V434.618v-0.229v-21.026c0-5.461-1.34-10.675-3.704-15.314c-0.002-0.008-0.004-0.013-0.006-0.017
		c-0.168-0.329-0.336-0.657-0.515-0.979c-4.392-8.133-12.122-14.34-21.353-16.771c-0.073-0.021-0.149-0.038-0.229-0.057
		c-0.435-0.11-0.864-0.213-1.302-0.307c-0.156-0.034-0.315-0.064-0.478-0.1c-0.362-0.07-0.729-0.14-1.097-0.2
		c-0.189-0.027-0.38-0.062-0.571-0.09c-0.349-0.051-0.698-0.096-1.051-0.136c-0.198-0.023-0.396-0.047-0.595-0.066
		c-0.371-0.033-0.746-0.062-1.121-0.087c-0.177-0.011-0.353-0.023-0.524-0.035c-0.55-0.023-1.103-0.043-1.659-0.043
		c-0.559,0-1.11,0.02-1.667,0.042c-0.15,0.011-0.308,0.021-0.463,0.03c-0.403,0.024-0.809,0.053-1.21,0.091
		c-0.158,0.02-0.312,0.034-0.472,0.055c-0.409,0.045-0.816,0.096-1.222,0.15c-0.132,0.021-0.26,0.039-0.388,0.062
		c-0.46,0.068-0.916,0.149-1.369,0.243c-0.062,0.013-0.13,0.021-0.19,0.035c-13.188,2.696-23.563,12.907-26.522,26.325h0.061
		c-0.488,2.312-0.751,4.705-0.751,7.164v21.026v13.633v17.561v15.715v13.17v96.583v7.162v15.713v17.56v80.178v0.464
		c0,4.619,0.924,9.241,3.003,13.4c0.045,0.1,0.096,0.194,0.141,0.292c0.066,0.142,0.135,0.28,0.202,0.42
		c2.014,4.232,4.803,8.062,8.194,11.295c-7.021,6.24-11.541,15.604-11.541,25.424v1.618v15.711v1.853h-0.462v45.979h0.462v36.044
		v15.481v9.012v89.42v18.947v71.167v0.462c0,18.485,15.249,34.196,34.193,34.196c18.947,0,34.197-15.25,34.197-34.196v-0.462V997.02
		v-18.947v-89.42v-11.091V861.85v-79.946h0.462V763.65c-0.02-0.437-0.056-0.866-0.089-1.296l0.089-0.089
		C557.838,760.224,557.47,758.189,556.969,756.203z"/>
	<path stroke="#A7A9AC" stroke-width="2" stroke-miterlimit="10" d="M830.193,368.26c-19.135,0-34.536,15.398-34.536,34.537v66.506
		v34.065v69.541c0,10.271,4.667,19.604,11.901,25.901c-7.234,6.301-11.901,15.869-11.901,25.903v9.563v88.208v18.203v9.104v0.466
		v86.809v104.312v0.23v81.207v0.234v24.503v29.401c0,18.668,15.401,34.534,34.536,34.534s34.537-15.398,34.537-34.534v-29.401
		v-24.503v-0.234v-81.207v-0.23V837.066v-86.809v-0.469v-10.731v-16.569V634.28v-9.101c0-10.271-4.667-19.604-11.901-25.902
		c6.771-6.3,11.901-15.868,11.901-26.368v-69.541v-34.065v-66.506C864.73,384.125,849.327,368.26,830.193,368.26z"/>
	<path stroke="#A7A9AC" stroke-width="2" stroke-miterlimit="10" d="M739.886,368.26c-19.136,0-34.536,15.398-34.536,34.537v66.506
		v19.6v14.468v69.541c0,10.271,4.666,19.604,11.9,25.901c-7.234,6.534-11.9,15.869-11.9,26.137v9.333v88.208v7.701v15.635v3.972
		v0.466v86.809v104.312v0.23v81.207v0.234v24.503v25.668v3.732v0.232c0,18.668,15.4,34.536,34.536,34.536
		c19.134,0,34.536-15.401,34.536-34.536v-0.232v-29.4v-24.503v-0.234V941.61v-0.23V837.067v-86.809v-0.469v-5.603V728.32v-5.834
		V634.28v-9.101c0-10.271-4.667-19.604-11.901-25.902c7.234-6.3,11.901-15.868,11.901-26.368v-69.541v-34.065v-66.506
		C774.425,384.125,759.02,368.26,739.886,368.26z"/>
	<path stroke="#A7A9AC" stroke-width="2" stroke-miterlimit="10" d="M1317.691,730.439v-0.463v-1.622l-0.045,0.044
		c-0.45-9.562-4.958-18.196-11.764-24.124c6.716-6.02,11.809-15.281,11.809-25.699v-41.904v-30.104v-62.515v-15.744v-17.598v-8.566
		v-48.622c0-18.523-15.281-34.268-34.267-34.268c-18.986,0-34.271,15.277-34.271,34.268v48.622v10.65v17.598v15.744v60.431v30.104
		v41.904c0,9.947,4.422,19.003,11.312,25.244l-0.434-0.006l0.688,0.686c-5.815,5.171-9.911,12.478-11.158,20.413
		c-0.348,1.37-0.399,2.906-0.404,4.603l-0.466,0.465v15.281v0.462v2.547h0.462v198.657v30.562v0.928v17.6v15.744v63.672
		c0,18.521,15.281,34.267,34.271,34.267c18.981,0,34.267-15.279,34.267-34.267v-60.199v-5.558V993.93v-16.439v-30.562v-198.2v-4.63
		l0.231-0.231L1317.691,730.439z"/>
	<path stroke="#A7A9AC" stroke-width="2" stroke-miterlimit="10" d="M1227.626,730.439v-0.463c0-0.007-0.002-0.014-0.002-0.021
		c-0.002-1.854-0.033-3.401-0.464-5.532c-0.001-0.009-0.003-0.014-0.004-0.018c-0.288-1.707-0.713-3.37-1.248-4.981l0.326-0.326
		c-0.313,0-0.526-0.438-0.774-0.938c-2.028-5.396-5.384-10.172-9.644-13.883c7.177-6.02,11.81-15.281,11.81-25.699v-41.904v-30.104
		v-45.146v-9.728v-17.829v-15.744v-64.599c0-18.521-15.279-34.268-34.269-34.268s-34.267,15.278-34.267,34.268v66.914v15.512v17.365
		v8.104v45.146v11.345v18.755v41.907c0,10.185,4.625,19.438,11.796,25.688l0.012,0.011c-3.988,3.475-7.187,7.951-9.244,12.95
		l-0.017,0.017c0,0-0.003,0.021-0.003,0.028c-0.036,0.088-0.072,0.175-0.107,0.264c-0.065,0.091-0.165,0.172-0.354,0.172
		c-0.929,2.083-1.619,4.631-2.082,6.716c-0.466,2.084-0.466,3.936-0.466,6.021v5.093l0.466-0.464v0.464v13.197v198.194v30.562v8.336
		v15.744v13.661v60.199c0,18.521,15.278,34.267,34.268,34.267c18.986,0,34.267-15.28,34.267-34.267v-60.199V996.47v-15.978v-3.011
		v-30.562V748.729v-14.817l0.232-0.229L1227.626,730.439z"/>
	<path stroke="#A7A9AC" stroke-width="2" stroke-miterlimit="10" d="M105.559,210.556c-0.228-18.411-14.587-33.345-32.765-34.26
		c-0.586-0.026-1.177-0.044-1.771-0.044c-19.004,0-34.3,15.3-34.3,34.304v13.438v0.463V252.5v3.245v17.845v15.763v0.692v80.886
		v6.489v17.146v15.76v17.849V443.7v17.851v15.759v17.383v3.708v114.256v0.695c0,2.549,0.464,5.099,0.928,7.184
		c1.159,6.026,3.708,10.896,7.646,15.299c1.045,1.043,1.915,2.257,3.093,3.168l-0.078,0.074h0.174c0.1,0.074,0.187,0.162,0.29,0.231
		h-0.694c-3.264,2.841-5.896,6.261-7.809,10.097c-0.729,1.383-1.378,2.812-1.927,4.272l0.241-0.244
		c-1.215,3.547-1.864,7.367-1.864,11.369v8.343v15.76v17.381v15.764v15.523v46.584v22.021v1.158v254.935v1.623v3.013
		c0,2.34,0.282,4.673,0.732,6.795c0.204,1.607,0.505,3.157,0.891,4.562c3.938,14.138,17.383,25.03,33.143,25.03
		s29.2-10.896,32.909-25.729c0.927-2.549,1.159-5.562,1.159-8.573V664.343v-3.479c0-0.927,0-1.159-0.465-2.086v-1.159
		c0-0.926-0.466-1.623-0.93-2.549v-0.464c-1.623-6.258-5.562-11.356-10.196-15.76l-0.344-0.344c1.135-1.105,2.459-2.021,3.355-3.363
		c3.708-4.172,6.259-9.271,7.646-15.296c0.465-2.085,0.931-4.639,0.931-7.188v-0.229V498.4v-23.177l0.229-0.231v-15.759
		l-0.229,0.231v-18.078l0.229-0.231v-15.76l-0.229,0.231L105.559,210.556L105.559,210.556z"/>
	<path stroke="#A7A9AC" stroke-width="2" stroke-miterlimit="10" d="M193.394,453.902v-15.76v-17.614V404.77v-17.614v-15.76v-0.464
		V290.05v-37.545v-28.506V210.56c0-19.004-15.763-34.304-34.3-34.304c-19.007,0-34.303,15.3-34.303,34.304v13.438v28.506v15.065
		v17.845v4.635v80.886v2.55v15.759v17.614v15.76V440v13.905v19.467v15.764v9.271v0.231v114.256v0.464
		c0,2.549,0.464,5.099,0.931,7.184c1.156,6.026,3.708,10.896,7.646,15.299c1.082,1.081,1.978,2.352,3.218,3.271l-0.205,0.206h-0.23
		c-2.335,2.035-4.346,4.367-6.005,6.933l-0.251,0.251c-3.479,5.563-5.562,11.357-5.562,18.312v3.013l0.464-0.468v17.618v15.76
		v17.845v15.761v3.243v46.584v22.021v0.464v257.251v3.013c0,2.34,0.285,4.674,0.734,6.795c0.077,0.606,0.173,1.196,0.277,1.78
		h-0.084c0.069,0.283,0.151,0.562,0.23,0.843c0.141,0.668,0.292,1.318,0.461,1.938c3.708,14.833,17.381,25.726,32.909,25.726
		s29.201-10.894,32.909-25.726c0.727-1.994,1.021-4.272,1.118-6.611c0.202-1.534,0.271-3.139,0.271-4.745v-3.013h-0.229v-257.26
		v-0.464v-22.021v-46.584v-5.562v-15.527v-17.845v-15.76v-17.15v-0.931v-0.462v-3.479c0-0.927,0-1.159-0.464-2.086v-1.159
		c0-0.926-0.467-1.623-0.929-2.549V654.6c-1.623-6.258-5.562-11.356-10.195-15.76l-0.111-0.111c1.136-1.104,2.459-2.021,3.354-3.365
		c3.708-4.171,6.26-9.269,7.648-15.296c0.464-2.085,0.926-4.634,0.926-7.185V498.4h-0.229v-11.125l0.229-0.229v-15.764l-0.229,0.229
		L193.394,453.902L193.394,453.902z"/>
	<path stroke="#A7A9AC" stroke-width="2" stroke-miterlimit="10" d="M386.018,190.764c-19.029,0-34.347,15.312-34.347,34.344v93.75
		v26.917v13.692v17.869v15.546v17.864v2.092v107.209v15.312c0,10.211,4.643,19.493,11.833,25.759
		c-7.19,6.27-11.833,15.779-11.833,25.758v6.729v0.696v19.025v119.975v10.675v15.548v17.869v15.547v25.526V966.75v23.673v0.229
		v74.954c0,18.562,15.314,34.344,34.347,34.344s34.344-15.313,34.344-34.344v-74.954v-0.229V966.75V818.47v-25.526v-2.089v-15.548
		v-17.403v-15.78v-8.814V613.334v-19.026v-0.696v-6.034v-0.692c0-10.034-4.49-19.166-11.473-25.428
		c6.979-6.902,11.473-15.6,11.473-26.092V412.842v-4.18v-17.865v-15.551v-17.399v-12.068V318.86v-93.75v-0.464
		C420.361,206.08,405.049,190.764,386.018,190.764z"/>
	<path stroke="#A7A9AC" stroke-width="2" stroke-miterlimit="10" d="M316.4,196.001c-0.114-0.068-0.229-0.146-0.343-0.218
		c-0.205-0.124-0.414-0.242-0.621-0.362c-0.311-0.18-0.616-0.356-0.933-0.527c-0.021-0.017-0.048-0.024-0.068-0.037
		c-4.326-2.338-9.204-3.781-14.396-4.044c-0.576-0.03-1.155-0.045-1.734-0.045c-19.027,0-34.347,15.312-34.347,34.344v93.75v26.917
		V365.5v15.552v17.399v14.391v122.521c0,10.211,4.645,19.493,11.835,25.759c-7.191,6.497-11.835,15.779-11.835,25.99v6.729v0.464
		v19.025v134.36v17.869v15.548v37.361v148.277v23.672v0.229v74.954c0,18.562,15.315,34.344,34.347,34.344
		c19.026,0,34.344-15.314,34.344-34.344v-74.954v-0.229v-23.67V818.469V779.02v-15.548v-17.868v-132.27v-19.029v-0.464v-6.27v-0.463
		c0-10.094-4.539-19.271-11.592-25.537c5.935-5.822,10.075-12.938,11.242-21.333c0.223-1.527,0.35-3.081,0.35-4.646v-0.233V412.842
		v-0.467v-15.549v-17.862v-15.78v-17.405V318.86v-93.75v-0.464C332.645,212.656,326.061,202.03,316.4,196.001z"/>
	<path stroke="#A7A9AC" stroke-width="2" stroke-miterlimit="10" d="M1413.187,490.945c-19.022,0-34.334,15.312-34.334,34.334
		v123.188v13.224v13.688v20.646v16.472c0,10.208,4.641,19.487,11.832,25.75c-7.191,6.496-11.832,15.775-11.832,25.983v48.717v15.775
		v17.396v15.544v149.167v23.663v30.855v9.976c0,18.561,15.312,34.334,34.334,34.334s34.335-15.312,34.335-34.334v-9.976v-30.855
		v-23.663V863.75v-3.713v-15.771v-17.632v-15.775v-46.629c0-10.208-4.641-19.487-11.832-25.75
		c7.191-6.496,11.832-15.775,11.832-25.983v-16.472v-20.646v-15.312v-11.6V525.28C1447.521,506.72,1432.21,490.945,1413.187,490.945
		z"/>
	<path stroke="#A7A9AC" stroke-width="2" stroke-miterlimit="10" d="M1502.969,490.945c-19.023,0-34.335,15.312-34.335,34.334
		v123.188v7.651v15.775v3.479v20.646v16.472c0,10.208,4.641,19.487,11.832,25.75c-7.191,6.267-11.832,15.775-11.832,25.75v29.93
		v11.364v17.863v15.775v17.167v7.652v147.079v23.663v30.855v9.74c0,18.562,15.312,34.334,34.335,34.334
		c19.021,0,34.334-15.312,34.334-34.334v-9.74v-30.855v-23.663V863.75v-9.741v-17.399V821.76V803.2v-9.276V764.23
		c0-10.208-4.644-19.487-11.832-25.75c7.188-6.496,11.832-15.775,11.832-25.982v-16.473V675.38v-5.104v-16.239V525.28
		C1537.302,506.72,1521.988,490.945,1502.969,490.945z"/>
	<path stroke="#A7A9AC" stroke-width="2" stroke-miterlimit="10" d="M1093.102,652.665V640.64c0-10.328-4.695-19.717-11.971-26.055
		c7.271-6.104,11.971-15.492,11.971-26.29v-5.164v-28.641V529.61v-15.96v-17.839v-9.155v-16.897v-0.234v-26.525
		c0.001-19.244-15.257-34.736-34.74-34.736c-19.248,0-34.74,15.493-34.74,34.739v26.522v0.234v16.897v11.271v17.604v15.729v18.071
		v33.805v5.164c0,10.325,4.694,19.717,11.975,26.056c-7.276,6.337-11.975,15.962-11.975,26.055v12.26l0,0v70.962v66.896v8.919
		v15.962v17.605v63.378v4.225v15.962v17.605v15.962v3.756v80.861v5.765v25.455v8.216c0,18.778,15.492,34.74,34.74,34.74
		c19.247,0,34.74-15.493,34.74-34.74v-33.671h0.001v-86.626v-5.633v-15.729v-18.072v-15.963v-2.11v-47.65v-1.643V831.37v-18.072
		v-15.964v-6.807v-66.898L1093.102,652.665L1093.102,652.665z"/>
	<path stroke="#A7A9AC" stroke-width="2" stroke-miterlimit="10" d="M969.782,408.302c-0.594-0.03-1.188-0.045-1.793-0.045
		c-19.248,0-34.741,15.489-34.741,34.736v26.525v0.234v34.976v15.962v17.84v15.962v28.641v0.23v4.934v0.23
		c0,10.271,4.646,19.604,11.851,25.94c-7.204,6.563-11.851,15.901-11.851,26.17v14.553v0.47v65.959v66.9v14.083v17.604v15.963
		v10.562v0.469v47.186v9.389v17.604v15.962v14.555v82.391v0.235v0.938v38.265v0.47c0,18.778,15.493,34.74,34.741,34.74
		c19.247,0,34.74-15.493,34.74-34.74v-0.47v-39.2v-0.235v-82.391V935.7v-15.962v-18.074v-7.273v-47.186v-0.469v-12.207v-15.962
		v-18.074v-11.971v-66.899v-65.959v-0.471V640.64c0-10.328-4.695-19.717-11.972-26.055c7.272-6.337,11.972-15.962,11.972-26.06
		v-5.164v-0.23v-28.641v-2.109v-15.96v-17.605V503.09v-33.333v-0.234v-26.056v-0.474
		C1002.73,424.351,988.19,409.228,969.782,408.302z"/>
	<path stroke="#A7A9AC" stroke-width="2" stroke-miterlimit="10" d="M1638.189,569.26c-18.966,0-34.232,15.266-34.232,34.229v9.715
		v10.644v17.348v6.708v32.15v37.702v20.812c0,10.181,4.626,19.431,11.798,25.675c-7.172,6.479-11.798,15.729-11.798,25.905v59.675
		v6.246v17.812v15.498v4.854v12.259v0.694v15.728v17.352v134.151c0,18.506,15.271,34.231,34.232,34.231s34.232-15.266,34.232-34.231
		V938.411v-17.579v-14.341v-12.259v-6.938v-15.497v-17.353v-4.626v-59.675c0-10.177-4.627-19.429-11.798-25.674
		c7.171-6.479,11.798-15.729,11.798-25.906V717.75v-37.698V647.9v-8.558V621.53v-8.327v-9.715
		C1672.425,584.985,1657.155,569.26,1638.189,569.26z"/>
	<path stroke="#A7A9AC" stroke-width="2" stroke-miterlimit="10" d="M1728.63,569.26c-18.97,0-34.232,15.266-34.232,34.229v13.416
		v15.729v47.416v37.702v20.812c0,10.178,4.627,19.43,11.797,25.675c-7.17,6.246-11.797,15.729-11.797,25.679v59.902v15.498v17.812
		v11.103v12.259v9.717v15.495v17.812v124.67c0,18.503,15.267,34.232,34.232,34.232c18.965,0,34.229-15.27,34.229-34.232V954.139
		v-24.056v-15.729v-7.864v-12.259v-13.185v-17.812v-13.416v-59.675c0-10.177-4.626-19.429-11.797-25.674
		c7.171-6.479,11.797-15.729,11.797-25.906V717.75v-37.698V647.9v-16.885v-15.729V603.49
		C1762.859,584.985,1747.594,569.26,1728.63,569.26z"/>
	<path stroke="#A7A9AC" stroke-width="2" stroke-miterlimit="10" d="M1951.64,599.26c-9.438,0-18.178,3.682-23.931,10.124
		c-6.216,6.212-10.123,14.726-10.123,23.93v49.699l-0.23,0.229v15.646l0.23-0.232v17.258l-0.23,0.232v13.806h0.23v37.965
		c0,1.15,0,2.531,0.459,3.685c0,0.354,0.065,0.604,0.148,0.833c0.104,0.681,0.225,1.354,0.363,2.021
		c0.003,0.017,0.005,0.026,0.008,0.039c0.6,2.775,1.552,5.419,2.929,7.922c1.15,2.991,3.451,5.522,5.522,8.057l2.531,2.527h0.688
		c-0.204,0.146-0.395,0.311-0.591,0.46h-0.562c-5.062,4.146-8.741,10.125-10.584,16.801c-0.462,1.607-0.922,2.988-0.922,4.602
		l-0.165,33.527l-0.062,0.062v13.348h1.607V988.81h-1.607V1027h1.607v50.854c0,18.407,15.188,34.053,34.057,34.053
		c18.867,0,34.054-15.187,34.054-34.053v-258.86v-2.99v-1.147v-1.15v-0.46v-0.921c0-0.92-0.46-1.148-0.46-2.07v-0.46
		c0,0,0-0.462-0.46-0.462c-0.461-1.146-0.921-2.527-1.147-3.681c0-0.46,0-0.46-0.463-0.92c-0.921-1.15-1.147-2.531-2.067-4.145
		c-0.461-0.922-0.922-1.147-1.15-2.068c-0.461-0.46-0.921-1.15-1.148-1.611l-0.462-0.46c-0.92-0.92-1.607-1.61-2.988-2.53
		l-0.46-0.461l0.46-0.46c0.921-0.92,1.607-1.148,2.068-2.07c0,0,0-0.46,0.459-0.46c0.461-0.461,0.461-0.922,0.922-1.147
		c0.459-0.46,0.923-1.15,1.149-1.611l0.459-0.46c0-0.46,0.461-0.46,0.461-0.92c0.921-1.149,1.611-2.53,2.071-3.681
		c0.46-0.922,0.92-1.611,1.15-2.532c0-0.46,0.46-0.92,0.46-0.92c0.46-0.921,0.46-1.61,0.92-2.531c0-0.46,0.461-0.92,0.461-0.92
		c0-0.921,0.46-1.609,0.46-2.531c0-0.92,0.46-1.607,0.46-2.067V633.77c-2.531-9.664-6.213-18.177-12.425-24.39
		C1969.356,602.938,1961.073,599.26,1951.64,599.26z"/>
	<path stroke="#A7A9AC" stroke-width="2" stroke-miterlimit="10" d="M1861.443,599.26c-9.204,0-18.177,3.682-23.93,10.124
		c-6.212,6.212-10.124,14.726-10.124,23.93v40.726h-0.46v15.647l0.46-0.453v17.479l-0.46,0.461v15.646l0.46-0.456v41.872h-0.46
		v3.452c0,5.521,1.146,10.584,3.681,15.186c1.15,2.991,3.452,5.522,5.523,8.057l2.526,2.527h0.46
		c-1.438,1.181-2.752,2.521-3.962,3.969c-0.562,0.569-1.037,1.091-1.409,1.804c-0.94,1.306-1.807,2.687-2.576,4.136
		c-1.234,2.188-2.224,4.481-2.862,6.896c-0.921,2.989-1.382,5.752-1.382,8.739v2.531v18.178v15.646v6.212h0.229v127.241h-0.229V1027
		h0.229v50.394c0,18.407,15.188,34.054,34.053,34.054c18.868,0,34.058-15.188,34.058-34.054v-259.32c0-1.146,0-2.992-0.46-4.142
		c0-1.61-0.46-3.451-0.922-4.604c-0.462-1.606-1.148-3.447-1.609-5.062c-0.46-0.92-0.92-1.611-1.15-2.531
		c-0.921-1.609-2.068-3.452-3.449-4.602v-0.46c-1.117-1.565-2.459-2.91-4.015-4.042l1.712-1.714
		c0.368-0.447,0.707-0.898,1.051-1.354c0.034-0.007,0.06-0.027,0.104-0.027c0.92-0.92,1.609-2.067,2.53-2.987
		c0-0.461,0.461-0.461,0.461-0.922c0.46-0.463,0.46-0.923,0.92-1.149c0.461-0.92,0.921-1.61,1.151-2.53v-0.323
		c0.27-0.502,0.521-1.011,0.759-1.521c0.051-0.077,0.094-0.157,0.161-0.229c0-0.052,0.003-0.083,0.003-0.125
		c0.09-0.196,0.184-0.396,0.27-0.602c0.058-0.058,0.105-0.112,0.188-0.194c0-0.46,0.46-0.92,0.46-0.92
		c0-0.461,0.461-0.921,0.461-1.146c0.46-0.921,0.46-1.151,0.92-2.072c0-0.46,0.46-1.15,0.46-1.61c0-0.92,0.46-1.146,0.46-2.066
		c0-1.151,0.46-2.532,0.46-3.686V632.85c0-9.204-3.681-17.717-10.124-23.93C1879.391,602.938,1871.107,599.26,1861.443,599.26z"/>
	<path stroke="#A7A9AC" stroke-width="2" stroke-miterlimit="10" d="M2089.285,599.26c-18.592,0-33.555,14.963-33.555,33.555v6.575
		v10.882V667.5v15.416v44.664v33.104c0,9.976,4.535,19.045,11.562,25.166c-7.024,6.349-11.562,15.417-11.562,25.392v12.924v69.604
		v43.303v6.353v17.458v15.188v6.575v33.1v14.966v40.131c0,18.137,14.963,33.555,33.555,33.555c18.591,0,33.556-14.964,33.556-33.555
		v-40.131v-14.966v-33.1v-8.616V958.61v-16.773v-4.766v-43.303v-69.604V811.24c0-9.976-4.532-19.043-11.562-25.165
		c7.027-5.896,11.562-14.964,11.562-25.393V727.58v-44.662v-2.04v-15.417v-17.007v-9.065v-6.575
		C2122.843,614.677,2107.876,599.26,2089.285,599.26z"/>
	<path stroke="#A7A9AC" stroke-width="2" stroke-miterlimit="10" d="M2179.066,599.26c-18.591,0-33.554,14.963-33.554,33.555v6.575
		v3.854v15.19v17.004v7.481v44.661v33.104c0,9.976,4.533,19.045,11.562,25.166c-7.023,6.122-11.562,15.417-11.562,25.166v13.146
		v69.604v43.303v14.511v17.007v14.057v33.1v14.966v40.131c0,18.137,14.963,33.555,33.554,33.555s33.554-14.964,33.554-33.555
		v-40.131v-14.966v-33.1v-0.454v-15.188V949.54v-12.472v-43.303v-69.604v-12.925c0-9.976-4.533-19.043-11.562-25.165
		c7.028-5.896,11.562-14.964,11.562-25.393v-33.104v-44.663v-9.066v-17.458V640.97v-8.162
		C2212.619,614.677,2197.656,599.26,2179.066,599.26z"/>
	<path stroke="#A7A9AC" stroke-width="2" stroke-miterlimit="10" d="M2313.585,624.091c-18.445,0-33.3,14.85-33.3,33.299v58.724
		v16.874v15.299v14.399v17.1v39.823v0.45c0,9.783,4.4,18.682,11.233,24.753c-6.833,6.288-11.233,15.187-11.233,24.97v78.522v35.771
		v7.875v15.074v16.874v1.575v33.299v8.55v6.75c0,17.999,14.854,33.299,33.3,33.299c18.448,0,33.302-14.85,33.302-33.299v-6.75v-8.55
		v-33.299v-20.478v-13.049v-7.875v-35.771v-78.073c0-9.899-4.5-18.898-11.479-24.974c6.979-6.303,11.479-15.303,11.479-25.649
		v-56.923v-16.198v-15.075v-17.322v-56.696C2346.885,639.387,2332.033,624.091,2313.585,624.091z"/>
	<path stroke="#A7A9AC" stroke-width="2" stroke-miterlimit="10" d="M2424.28,845.257c6.75-6.303,11.249-15.303,11.249-25.649
		v-39.823v-17.1v-8.324v-15.3v-17.099v-15.303v-2.475v-46.798c0-17.999-14.624-33.299-33.298-33.299
		c-18.449,0-33.074,14.85-33.074,33.299v46.798v4.5v15.299v17.324v15.075v6.299v17.1v39.823c0,9.9,4.501,18.899,11.479,24.974
		c-0.387,0-0.438,0.313-0.445,0.409c-6.715,6.076-11.029,15.104-11.029,24.565v78.748v35.771v7.875v2.699v4.95v15.299v10.575v26.099
		v7.2v9.225v6.075c0,17.999,14.854,33.299,33.303,33.299c18.445,0,33.299-14.85,33.299-33.299v-82.122v-7.875V870.227
		C2435.755,860.328,2431.255,851.329,2424.28,845.257z"/>
	<path stroke="#A7A9AC" stroke-width="2" stroke-miterlimit="10" d="M2532.386,598.26c-18.886,0-34.083,15.195-34.083,34.083v25.332
		v17.042v15.656v17.732v28.555c0,10.133,4.604,19.349,11.744,25.562c-0.166,0.146-0.323,0.308-0.485,0.461h-0.438
		c-6.218,5.988-10.593,13.813-11.281,23.029l0.514-0.517c-0.02,0.171-0.039,0.34-0.053,0.517l0.098-0.101
		c-0.061,0.794-0.098,1.592-0.098,2.399v13.354v6.447v62.179v28.099v35.925v17.501v15.66v5.758v32.471v24.41v25.562v12.666v7.601
		c0,18.423,15.195,34.083,34.082,34.083c18.886,0,34.082-15.2,34.082-34.083v-7.601v-12.666v-25.562v-24.41v-32.471v-7.83v-15.66
		v-17.729v-33.622v-28.099v-62.179v-8.06v-11.744c0-1.183-0.066-2.348-0.188-3.495l0.188-0.19c-0.213-1.121-0.47-2.227-0.752-3.312
		c-0.812-3.771-2.252-7.317-4.207-10.523c0.115,0.161,0.234,0.333,0.354,0.479c-0.535-0.938-1.146-1.783-1.743-2.562
		c-0.611-0.854-1.26-1.686-1.945-2.479c0.08,0.063,0.152,0.142,0.233,0.207l-0.448-0.448c-1.01-1.148-2.085-2.235-3.234-3.237
		c7.142-6.443,11.743-15.66,11.743-25.792v-25.792v-4.835v-17.271V673.1v-17.732v-23.024
		C2566.469,613.916,2551.27,598.26,2532.386,598.26z"/>
	<path stroke="#A7A9AC" stroke-width="2" stroke-miterlimit="10" d="M2622.428,598.26c-18.885,0-34.083,15.195-34.083,34.083v16.811
		v13.357v15.657v17.731v40.76c0,10.132,4.604,19.348,11.743,25.562c-3.856,3.356-6.969,7.666-9.02,12.473l-0.193,0.193
		c-0.687,1.765-1.236,3.573-1.654,5.421c-0.037,0.157-0.069,0.314-0.104,0.473c-0.062,0.294-0.122,0.59-0.177,0.89
		c-0.075,0.389-0.146,0.776-0.203,1.172c-0.011,0.071-0.021,0.146-0.032,0.226c-0.155,1.066-0.266,2.145-0.312,3.229
		c-0.001,0.02,0,0.039-0.002,0.06c-0.021,0.479-0.041,0.953-0.041,1.434v0.229v7.139V870v28.098v21.877v7.599v15.66V960.5v44.906
		v24.41v25.562v12.666v7.365c0,18.426,15.196,34.082,34.083,34.082c18.884,0,34.082-15.195,34.082-34.082v-7.365v-12.666v-25.562
		v-24.41v-46.749v-17.501v-15.66v-5.523v-21.877v-28.097V793.08v-5.062c0-3.688-0.461-7.139-1.611-10.594l-0.095,0.095
		c-1.951-5.883-5.476-11.087-10.038-15.064c6.906-6.443,11.74-15.657,11.74-25.792V710.87v-1.608v-15.433v-17.271v-15.66v-11.745
		v-16.811C2656.51,613.916,2641.312,598.26,2622.428,598.26z"/>
	<path stroke="#A7A9AC" stroke-width="2" stroke-miterlimit="10" d="M2875.78,794.373l-0.457-0.458l-0.916-0.915
		c0.916-0.916,1.604-1.145,2.521-2.061c-0.557-0.138-0.604-0.36-0.51-0.615c0.526-0.587,1.031-1.189,1.521-1.813
		c3.031-3.679,5.229-7.949,6.312-12.77c0.219-0.604,0.31-1.2,0.577-2.091l0.334-0.334c0.458-2.06,0.458-3.662,0.458-5.95v-11.673
		v-0.458v-15.104l-0.229,0.229v-0.229c0-1.146,0-2.521-0.459-4.121v-0.458c0-1.146-0.457-2.062-0.457-3.437v-0.458
		c-0.457-1.145-0.457-2.06-0.915-3.433c-0.458-1.144-0.916-2.06-1.146-3.433c-1.603-3.437-3.662-6.184-6.18-9.155l-2.062-2.062
		c-0.916-0.916-1.604-1.144-2.52-1.603c-2.062-1.146-3.662-2.062-5.723-2.746c-0.915-0.458-2.062-0.916-2.979-1.146
		c-0.915-0.456-2.06-0.913-2.975-0.913c-2.521-0.458-5.036-0.916-7.782-0.916c-5.507,0-10.925,1.333-15.619,3.78
		c-11.361,5.455-19.17,17.059-19.17,30.549v27.234c0,10.07,4.578,19.229,11.674,25.405l-1.146,1.144h0.226
		c-6.488,6.16-10.295,14.535-10.295,24.032v36.62h0.688v0.458h-0.688v27.923v68.205v61.567v21.972v0.229v7.322v17.396v0.229v10.528
		c0,11.663,6.137,22.204,15.438,28.326c5.438,3.769,12.02,6.005,19.126,6.005c18.771,0,33.873-15.105,33.873-33.874V818.635
		C2886.309,809.021,2882.188,800.323,2875.78,794.373z"/>
	<path stroke="#A7A9AC" stroke-width="2" stroke-miterlimit="10" d="M2786.52,793.915h-0.229l-0.916-0.915
		c1.528-1.528,3.008-3.173,4.356-4.964l0,0c1.479-1.956,2.805-4.091,3.88-6.479c1.449-2.897,2.32-6.25,2.718-9.734
		c0.022-0.187,0.05-0.374,0.065-0.561c0.014-0.142,0.021-0.276,0.033-0.414c0.098-1.001,0.154-2.009,0.154-3.023v-0.458v-4.578
		v-17.166v-5.031c0-1.604-0.121-3.181-0.346-4.729c0.283-0.171,0.188-0.468-0.111-0.767c-0.016-0.075-0.033-0.15-0.049-0.229
		c-0.471-2.688-1.264-5.274-2.342-7.729c-0.74-1.78-1.611-3.496-2.646-5.092c-0.543-0.854-1.121-1.644-1.717-2.405l0.114-0.112
		c-1.44-2.082-3.335-3.935-5.358-5.565c-0.918-0.883-1.951-1.78-3.106-2.442c-0.916-0.458-1.604-1.146-2.979-1.604
		c-0.914-0.458-2.06-0.913-2.976-1.145c-2.979-1.146-6.181-2.062-9.613-2.519h-3.202c-1.604,0-2.977,0-4.576,0.456h-1.146
		c-1.604,0.459-2.978,0.459-4.12,0.916c-1.373,0.229-2.746,0.688-3.893,1.146c-0.459,0-0.459,0.458-0.916,0.458
		c-0.916,0.458-1.604,0.688-2.52,1.146c-0.458,0-0.915,0.457-0.915,0.457c-0.687,0.459-1.603,0.916-2.519,1.604
		c-0.457,0-0.457,0.458-0.916,0.458c-1.83,1.831-3.662,3.434-5.267,5.493c0,0.458-0.457,0.458-0.457,0.915
		c-0.457,0.687-1.146,1.602-1.604,2.518c0,0.229-0.457,0.229-0.457,0.688c-0.457,0.916-0.916,1.83-1.146,2.519
		c0,0.458-0.457,0.458-0.457,0.916c-0.457,1.146-0.916,2.519-1.146,3.662c-0.457,1.146-0.914,2.977-0.914,4.12v0.182
		c-0.489,2.16-0.916,4.489-0.916,7.146v7.095l0.457-0.46v16.938l-0.229,0.229v2.519c0,1.113,0.093,2.25,0.229,3.382v0.053
		c0,0.272,0.045,0.524,0.104,0.771c0.328,2.306,0.846,4.562,1.271,6.554l0.213-0.214c0.057,0.177,0.104,0.353,0.166,0.521
		l-0.148,0.146c1.146,4.119,3.662,8.014,6.181,10.76l0.05-0.052c0.935,1.123,1.939,2.183,3.008,3.176l-0.08,0.078l-0.458,0.457
		c-6.638,6.182-10.527,14.646-10.527,24.264v251.988c0,1.866,0.166,3.703,0.468,5.5c1.961,16.565,16.219,29.979,33.637,29.979
		c18.77,0,33.873-15.106,33.873-33.874v-10.528v-0.229v-24.719v-0.229v-21.972V951.61v-68.205v-27.923h-0.229v-0.458h0.688v-36.849
		C2797.05,808.563,2792.928,799.866,2786.52,793.915z"/>
	<path stroke="#A7A9AC" stroke-width="2" stroke-miterlimit="10" d="M2980.908,714.304c-14.467,0-26.778,8.852-31.862,21.453
		c-0.738,1.688-1.355,3.437-1.804,5.248l0.212-0.212c-0.021,0.1-0.046,0.196-0.068,0.3l-0.144,0.143
		c-0.465,2.555-0.93,5.108-0.93,8.126v10.681l0.229-0.23v1.627h-0.464v7.894l0.464-0.447v6.021l-0.464,0.464v17.414l0.464-0.464
		c0,0.303,0.021,0.604,0.025,0.903l-0.025,0.021c0,3.305,0.599,6.364,1.604,9.28c1.205,3.778,3.044,7.289,5.396,10.384
		c0.956,1.312,1.999,2.548,3.104,3.666l-0.354,0.354l1.606,1.604c-6.918,6.271-11.358,15.571-11.358,25.327v8.591V869.4v21.361
		v2.554v15.556v17.882v108.657v22.06v17.182c0,18.574,15.324,34.363,34.363,34.363c19.038,0,34.361-15.324,34.361-34.363v-17.182
		v-22.06V924.66v-17.88v-15.556v-0.464v-21.361V852.45v-8.355c0-10.155-4.593-19.393-11.718-25.655
		c7.125-6.271,11.718-15.732,11.718-25.656v-0.465v-0.696v-0.464v-17.182v-0.232v-15.788v-8.819v-0.467
		C3015.271,730.094,2999.947,714.304,2980.908,714.304z"/>
	<path stroke="#A7A9AC" stroke-width="2" stroke-miterlimit="10" d="M3107.217,748.666c0-2.569-0.306-5.089-0.861-7.52
		c0.055,0.105,0.106,0.212,0.165,0.323c-0.102-0.198-0.169-0.411-0.235-0.625c-0.089-0.373-0.184-0.744-0.282-1.113
		c-0.062-0.275-0.143-0.542-0.229-0.804c-4.233-14.033-17.328-24.622-32.917-24.622c-19.038,0-34.362,15.324-34.362,34.362v1.389
		l-0.696,0.702v17.877l0.231-0.232v0.232l0.465-0.465v15.32l-0.465,0.467v8.821c0,2.557,0.465,5.572,0.929,8.125l0.465-0.464
		c0.468,1.625,0.696,3.483,1.627,5.108c-0.931-1.857-1.159-3.483-1.627-5.108l0.064-0.062c0.963,3.891,2.595,7.53,4.77,10.788
		l-0.188,0.188c0.062,0.092,0.129,0.183,0.188,0.275l-0.396,0.396c1.643,2.472,3.521,4.667,5.639,6.833
		c-6.714,6.264-11.001,15.413-11.001,24.999v8.591v16.95v21.361v10.448v15.787v15.321v103.087v22.061v17.182
		c0,18.574,15.324,34.363,34.362,34.363s34.362-15.324,34.362-34.363v-17.182v-22.061V932.32v-16.949v-15.789v-8.818V869.4v-16.95
		v-8.355c0-10.188-4.617-19.446-11.779-25.714c0.832-0.648,1.583-1.428,2.231-2.194c4.058-4.135,7.056-9.417,8.522-15.416
		l0.325-0.325c0.464-2.554,0.929-5.104,0.929-7.662v-11.145l-0.231,0.229L3107.217,748.666L3107.217,748.666z M3095.38,818.328
		c-0.002-0.002-0.004-0.005-0.009-0.007c0.065-0.055,0.126-0.114,0.191-0.169C3095.503,818.209,3095.441,818.269,3095.38,818.328z"
		/>
	<path stroke="#A7A9AC" stroke-width="2" stroke-miterlimit="10" d="M3041.275,805.782c0.231,1.396,0.696,2.322,1.161,2.559
		C3041.972,807.407,3041.51,806.715,3041.275,805.782z"/>
	<path stroke="#A7A9AC" stroke-width="2" stroke-miterlimit="10" d="M3043.597,812.283l0.255-0.255
		c-0.491-0.741-0.967-1.501-1.415-2.299C3042.669,810.658,3043.135,811.354,3043.597,812.283z"/>
	<path stroke="#A7A9AC" stroke-width="2" stroke-miterlimit="10" d="M3041.04,806.152c-0.002-0.354-0.037-0.41-0.461-0.834
		C3040.971,805.906,3041.031,805.998,3041.04,806.152z"/>
	<path stroke="#A7A9AC" stroke-width="2" stroke-miterlimit="10" d="M3041.04,806.152c0.002,0.034,0.004,0.055,0.004,0.095
		C3041.044,806.215,3041.042,806.181,3041.04,806.152z"/>
	<path stroke="#A7A9AC" stroke-width="2" stroke-miterlimit="10" d="M3237.239,796.508v-0.471v-15.432l0.469-0.468v-17.536
		l-0.469,0.468v-0.23v-3.979c0.469-1.637,0.469-3.04,0-4.677v-0.938c-0.468-1.636-0.468-3.038-1.169-4.676
		c-1.169-4.208-3.507-8.184-6.312-11.457l-3.741-3.739l-0.468-0.47c-1.169-1.169-3.039-2.104-4.208-3.506
		c-3.742-2.572-8.188-4.209-12.86-4.677c-0.936,0-1.637-0.468-2.571-0.468h-0.23h-5.849h-0.23c-0.938,0-1.637,0-2.572,0.468h-0.697
		h-0.233c-0.937,0-2.104,0.467-3.04,0.936c-0.936,0.471-2.104,0.471-3.04,0.938h-0.233c-0.468,0.23-1.168,0.23-1.637,0.701
		c-0.468,0.468-1.402,0.468-1.637,0.698c-0.468,0.471-0.936,0.471-1.87,0.938c-0.468,0.468-1.169,0.936-1.637,1.403
		c-0.468,0.229-0.938,0.697-1.402,0.697c-0.233,0.472-1.17,0.938-1.638,1.403c-0.469,0.467-0.938,0.702-1.169,1.169
		c-0.468,0.467-0.938,0.938-1.403,1.636c-0.467,0.472-0.701,0.938-1.168,1.403c-0.468,0.467-0.938,1.169-1.403,1.636
		c-0.393,0.396-0.462,0.786-0.61,1.183c-0.746,1.022-1.44,2.09-2.089,3.188c-0.086,0.121-0.185,0.231-0.34,0.312
		c-0.028,0.168-0.067,0.321-0.113,0.475c-0.334,0.6-0.646,1.211-0.95,1.829c-0.071,0.125-0.146,0.254-0.218,0.388l-0.354,0.35
		c-0.47,0.937-0.938,1.639-0.938,3.039c-0.469,0.938-0.469,1.64-0.936,3.039v0.472v0.468v0.467c0,0.045-0.014,0.083-0.016,0.128
		c-0.146,0.296-0.194,0.651-0.211,1.071c-0.121,0.361-0.241,0.666-0.241,0.904v47.465c0,3.738,0.935,7.716,2.104,11.457
		c0.47,1.637,1.169,3.507,2.104,5.145c0,0,0,0.467,0.469,0.467c0.936,1.641,2.104,3.04,3.039,4.68
		c1.096,1.531,2.801,3.267,3.977,4.438v0.001l0,0c0.074,0.076,0.154,0.156,0.229,0.229c-0.005,0.004-0.009,0.008-0.013,0.012
		c-0.377,0.014-0.438,0.321-0.443,0.419c-0.312,0.292-0.606,0.588-0.904,0.893c-6.024,5.841-9.877,14.345-10.321,23.7v11.228v22.442
		v0.234v12.626v28.993v85.104v27.356v8.885v13.327v2.572v8.417v0.23c0.937,18.005,16.135,32.5,34.604,32.5
		c19.172,0,34.604-15.432,34.604-34.604v-0.234v-8.417v-15.896v-6.781v-27.356h0.471v-39.747h-0.471v-0.23h0.471v-45.36h-0.471
		V888.4v-0.234v-22.442v-0.234h0.471v-11.457c-0.471-9.819-4.678-18.472-11.457-24.784h-0.471c-0.164,0-0.259-0.062-0.324-0.14
		l2.433-2.434c0.938-0.938,1.638-1.64,2.104-2.571c0.603-0.845,1.266-1.814,1.929-2.874c0.146-0.229,0.28-0.458,0.414-0.69
		c0.479-0.802,0.958-1.635,1.396-2.516l0.7-0.701c2.104-4.676,3.509-9.352,3.509-14.964v-6.312l-0.699,0.689v-0.224h-0.012v-0.005
		H3237.239z"/>
	<path stroke="#A7A9AC" stroke-width="2" stroke-miterlimit="10" d="M3328.01,755.33c-0.022-0.313-0.062-0.632-0.121-0.938
		c-0.066-0.5-0.146-0.998-0.232-1.493c-0.014-0.088-0.028-0.174-0.048-0.263c-0.682-3.646-1.939-7.115-3.696-10.295
		c-0.729-1.478-1.547-2.829-2.498-4.091v-0.197c-1.168-1.168-2.104-3.04-3.737-4.208c-0.938-0.938-1.64-1.169-2.571-2.104
		c-0.729-0.724-1.312-1.024-1.972-1.346c-0.613-0.426-1.242-0.83-1.888-1.216c-1.467-0.907-2.991-1.703-4.562-2.352l-0.03,0.031
		c-4.028-1.669-8.438-2.603-13.062-2.603c-0.076,0-0.153,0.005-0.231,0.006c-0.078,0-0.155-0.006-0.233-0.006h-0.468
		c-19.173,0-34.604,15.432-34.604,34.604v46.996c0,0,0,1.637,0.469,2.572c0.467,2.104,0.937,4.676,1.637,6.78
		c0.468,0.936,0.938,2.104,1.168,3.036v0.472c0.47,0.935,0.938,1.636,1.638,2.567c0.938,1.169,1.64,2.572,3.039,3.741
		c0,0.467,0.472,0.467,0.472,0.938c0.903,1.133,2.037,2.055,3.385,3.389c-0.188,0.168-0.364,0.343-0.546,0.516
		c-0.071,0.041-0.154,0.07-0.27,0.07c-6.778,6.079-10.987,14.964-11.457,24.784v221.888c0.938,18.004,16.136,32.5,34.604,32.5
		c3.93,0,7.688-0.662,11.188-1.868c13.875-4.056,24.084-16.521,24.775-31.563h0.041v-0.47v-1.17v-14.025v-17.536v-27.356v-39.748
		v-45.356V888.16v-22.443h-1.4v-0.233h0.938v-11.457c-0.469-9.817-4.677-18.472-11.458-24.784c-0.412,0-0.458-0.349-0.464-0.434
		c3.412-2.779,6.146-6.062,8.152-9.738c2.052-3.662,3.406-7.716,3.957-11.996l0.045-0.045c0.23-1.636,0.23-2.806,0.23-4.208v-11.924
		V772.89v-14.03v-1.169h-0.03C3328.135,756.898,3328.092,756.11,3328.01,755.33z"/>
	<path stroke="#A7A9AC" stroke-width="2" stroke-miterlimit="10" d="M3429.22,726.982c-18.952,0-34.207,15.255-34.207,34.207v5.548
		v11.325v15.716v9.246v51.079h-0.462v27.734c0,10.171,4.622,19.412,11.787,25.652c-0.463,0-0.463,0.463-0.924,0.463h0.884
		c-6.874,6.241-11.285,15.493-11.285,25.193v8.783v28.66v0.462v24.729v76.272c0,18.488,15.255,34.207,34.207,34.207
		c18.951,0,34.206-15.256,34.206-34.207V995.78v-24.729v-0.462v-28.66v-8.553c0-10.17-4.622-19.414-11.786-25.654
		c7.164-6.474,11.786-15.717,11.786-25.889v-78.812v-11.095V776.44v-9.706v-5.548
		C3463.427,742.699,3448.171,726.982,3429.22,726.982z"/>
	<path stroke="#A7A9AC" stroke-width="2" stroke-miterlimit="10" d="M3517.74,726.982c-18.952,0-34.206,15.255-34.206,34.207v5.548
		v5.085v17.104v14.099v51.079h-0.229v27.735c0,10.17,4.622,19.414,11.785,25.651c-0.463,0-0.463,0.463-0.927,0.463h0.651
		c-6.872,6.241-11.282,15.493-11.282,25.193v8.783v28.66v0.462v24.729v76.272c0,18.487,15.253,34.207,34.206,34.207
		c18.952,0,34.207-15.255,34.207-34.207v-76.272v-24.729v-0.462v-28.66v-8.552c0-10.17-4.623-19.415-11.788-25.655
		c7.165-6.473,11.788-15.717,11.788-25.888v-78.813v-15.717V769.51v-2.772v-5.548
		C3551.948,742.699,3536.693,726.982,3517.74,726.982z"/>
	<path stroke="#A7A9AC" stroke-width="2" stroke-miterlimit="10" d="M3652.196,745.362c-19.103,0-34.478,15.376-34.478,34.479v8.149
		v32.852v18.638c0,10.25,4.659,19.569,11.88,25.858c-7.221,6.29-11.88,15.842-11.88,25.855v2.563v25.158v62.666v9.783v17.706v3.494
		l0,0v18.638v28.891v17.006c0,18.637,15.375,34.479,34.478,34.479c19.104,0,34.479-15.375,34.479-34.479v-17.006v-28.891v-18.638
		v-5.592v-17.472v-7.922v-62.664v-25.159v-2.563c0-10.25-4.659-19.565-11.882-25.855c7.223-6.061,11.882-15.375,11.882-25.858
		v-18.638V787.99v-8.149C3686.677,761.205,3671.302,745.362,3652.196,745.362z"/>
	<path stroke="#A7A9AC" stroke-width="2" stroke-miterlimit="10" d="M3775.9,779.844c0-18.641-15.376-34.479-34.478-34.479
		c-19.104,0-34.479,15.376-34.479,34.479v59.639c0,10.25,4.659,19.569,11.882,25.858c-7.223,6.289-11.882,15.842-11.882,25.855
		v185.905c0,18.637,15.375,34.479,34.479,34.479c19.102,0,34.478-15.375,34.478-34.479v-17.006h0.233v-28.888h-0.233v-18.641h0.233
		v-30.98h-0.233v-62.667h0.233v-25.16h-0.233v-2.563c0-10.25-4.659-19.565-11.881-25.855c7.222-6.061,11.881-15.375,11.881-25.858
		v-18.638h0.233v-32.852h-0.233V779.844z"/>
	<path stroke="#A7A9AC" stroke-width="2" stroke-miterlimit="10" d="M3915.935,799.146c-0.739-1.755-1.588-3.327-2.502-4.806
		c-5.896-10.955-17.467-18.606-30.843-18.606c-16.737,0-30.646,11.63-34.146,27.281c-0.048,0.049-0.084,0.088-0.146,0.148
		c-0.472,0.946-0.472,2.131-0.472,3.074v0.452c-0.076,0.67-0.142,1.344-0.18,2.025c-0.136,0.769-0.298,1.552-0.298,2.253v39.258
		c0,9.771,4.174,18.712,10.757,25.053c0.421,0.414,0.854,0.816,1.294,1.208c-7.089,6.384-11.812,15.84-11.812,26.24v0.473v18.21
		v66.455v32.873v16.318v16.081v9.934v14.662v0.946c0,18.919,15.604,35,35.001,35c19.393,0,35-15.608,35-35v-0.946v-14.662v-12.062
		v-0.236v-15.846v-14.189v-32.873V921.41V903.2c0-10.402-4.729-19.862-12.062-26.25c7.332-6.146,12.062-15.605,12.062-26.484
		v-20.338v-16.791v-0.477v-1.656v-0.473c0-3.937-0.688-7.746-1.931-11.317L3915.935,799.146z"/>
	<path stroke="#A7A9AC" stroke-width="2" stroke-miterlimit="10" d="M4008.404,811.207h-0.235v-2.601l-1.125,1.124
		c-0.021-0.137-0.03-0.282-0.043-0.43l1.168-1.167c-0.474-5.203-1.652-9.46-3.781-13.716l-0.957,0.947
		c-0.025-0.051-0.051-0.103-0.073-0.15l0.557-0.562c-1.651-3.311-3.78-6.386-6.854-8.984l-0.479,0.475
		c-0.039-0.039-0.074-0.079-0.113-0.118l0.825-0.829c-3.071-3.075-6.854-5.203-11.112-6.855l-0.477,0.473
		c-3.782-1.893-7.564-2.602-12.298-2.602h-0.945c-2.479,0.062-4.894,0.391-7.218,0.938c-15.571,3.191-27.366,16.864-27.782,33.113
		v40.204c0,10.402,4.729,19.861,12.062,26.251c-7.332,6.621-12.062,16.081-12.062,26.483v175.008
		c0,12.052,6.338,22.939,15.947,29.269c5.614,3.895,12.417,6.206,19.762,6.206c19.396,0,35.002-15.608,35.002-35v-15.608v-0.942
		l-0.71,0.942v-0.232l0.71-0.71v-16.082v-17.978l-0.71,0.721v-0.243l0.237-0.237v-40.44h0.709v-66.455h-0.946v-1.183h1.186v-17.736
		c0-10.403-4.729-19.864-12.062-26.25c7.331-6.386,12.062-16.082,12.062-26.251V823.51l-0.235,0.244v-12.546L4008.404,811.207
		L4008.404,811.207z"/>
	<path stroke="#A7A9AC" stroke-width="2" stroke-miterlimit="10" d="M4196.027,809.134c-18.718,0-33.784,15.062-33.784,33.78v6.62
		v24.654v22.826c0,5.479,1.143,10.729,3.652,15.521c0,0.457,0.455,0.457,0.455,0.913c1.974,3.505,4.367,6.379,7.181,9.229
		c-4.396,3.94-7.78,9.13-9.651,14.884c-0.41,1.169-0.754,2.372-1.037,3.597l-0.143,0.145c0,0.177-0.02,0.354-0.023,0.531
		c-0.426,1.104-0.434,2.013-0.434,3.35v2.511v0.229v4.562v53.188v0.228v24.654v34.469v0.229v7.762v0.228v2.972v0.457
		c0,3.648,0.913,7.072,1.6,10.5c1.144,4.105,3.422,7.986,6.162,11.185c2.51,2.968,5.021,5.022,8.446,7.077
		c3.649,2.511,8.444,3.652,13.01,4.562c1.601,0,2.967,0.457,4.565,0.457c4.563,0,9.131-0.912,13.235-2.968
		c7.99-3.425,14.608-10.044,18.035-18.035c1.601-4.104,2.515-8.442,2.515-13.011v-0.456v-4.793l0.229-0.229v-5.938h-0.229v-34.469
		V1005.9v-0.228v-52.731v-0.457v-4.564v-3.65c-0.394-2.532-1-4.85-1.787-7.055c-0.051-0.146-0.104-0.29-0.158-0.438
		c-0.109-0.301-0.222-0.604-0.338-0.899c-0.435-1.104-0.92-2.182-1.459-3.227c-0.074-0.146-0.146-0.293-0.224-0.438
		c-0.005-0.011-0.01-0.02-0.017-0.024c-0.602-1.158-1.252-2.302-1.959-3.443c-0.914-1.142-1.6-2.055-2.513-3.425v-0.456
		l-2.722-2.721c0.935-0.846,1.816-1.747,2.652-2.699c0.021-0.02,0.045-0.038,0.062-0.059l0.455-0.457
		c0.914-0.913,1.603-1.601,2.059-2.511v-0.285c0.564-0.831,1.092-1.69,1.585-2.57c0.142-0.195,0.287-0.388,0.472-0.567
		c2.97-5.021,4.563-10.5,4.563-16.663v-53.871C4229.812,824.197,4214.747,809.134,4196.027,809.134z"/>
	<path stroke="#A7A9AC" stroke-width="2" stroke-miterlimit="10" d="M4108.481,809.177c-0.566-0.029-1.139-0.044-1.71-0.044
		c-18.717,0-33.782,15.062-33.782,33.781v6.619v24.654v22.826v2.968c0,0.283,0.046,0.545,0.106,0.812
		c0.098,0.733,0.21,1.477,0.351,2.219v0.851c0,0.914,0.456,1.603,0.456,2.516v0.911c0.455,0.911,0.455,1.6,0.912,2.512v0.457
		c0.455,0.913,0.913,1.598,1.145,2.511c2.055,3.652,4.562,7.076,7.532,10.043l0.312,0.31c-3.729,3.479-6.688,7.86-8.562,12.721
		c-1.737,3.997-2.705,8.396-2.705,12.996V1076.9c0,5.937,1.6,11.643,4.106,16.207c1.598,3.425,4.104,6.164,7.077,8.675
		c3.423,2.969,6.615,5.021,10.729,6.62c0.913,0.457,1.598,0.914,2.971,0.914c0.914,0.456,1.599,0.456,2.513,0.456h0.912
		c0.913,0,1.142,0.457,2.056,0.457h3.424c0.076,0,0.148-0.005,0.228-0.006c0.077,0.001,0.151,0.006,0.229,0.006h1.603l0.077-0.077
		c10.169-0.656,19.302-5.954,25.115-13.771c3.938-5.113,6.432-11.395,6.898-18.247l0.092-0.091v-2.282v-10.729v-34.014h-0.455
		v-0.456h0.455v-24.653h-0.455v-0.229h0.455v-57.756c0-10.044-4.562-19.178-11.643-25.339c7.077-6.162,11.643-15.521,11.643-25.34
		v-22.826l-0.686-0.003v-24.88h0.686v-6.62l0,0C4140.561,825.217,4126.4,810.089,4108.481,809.177z"/>
	<path stroke="#A7A9AC" stroke-width="2" stroke-miterlimit="10" d="M4360.704,971.364c-2.107-4.219-5.158-8.672-8.904-11.481
		c3.98-4.688,7.268-10.313,9.375-16.646c0.938-3.047,1.172-6.329,1.172-9.375v-31.174l0.232-0.234v-15.938l-0.232,0.236v-8.205
		c0-1.173,0-2.578-0.471-4.223v-0.468c-0.938-7.732-4.221-14.532-9.375-19.688c-4.222-4.222-9.377-7.734-15.472-8.906
		c-1.173-0.469-2.578-0.938-4.222-0.938h-0.471c-1.172,0-3.047-0.468-4.221-0.468c-18.983,0-34.455,15.47-34.455,34.689v9.346
		l-0.471,0.498v15.704l0.471-0.472v30.004c0,6.326,1.643,12.424,4.688,17.577c2.108,3.52,4.22,6.098,7.269,8.676
		c-3.519,3.047-6.097,6.327-8.205,10.312c0,0.468-0.471,0.468-0.471,0.938c-0.468,0.468-0.468,1.172-0.938,1.641
		c0,0.469-0.472,0.938-0.472,1.172s-0.472,1.172-0.472,1.641c0,0.473-0.47,1.176-0.47,1.645c0,0.468-0.47,0.938-0.47,1.641
		c0,0.938-0.472,1.172-0.472,2.109v24.61h-0.472v23.438h0.472v17.812h-0.472v10.077l0.472-0.479v15.95l-0.472,0.469v3.516h0.48
		c0.256,18.549,15.618,34.225,34.677,34.225c19.222,0,35.157-15.002,35.157-34.225v-90.475c0-3.75-0.938-7.735-1.641-11.019
		C4361.406,973.709,4360.938,972.771,4360.704,971.364z"/>
	<path stroke="#A7A9AC" stroke-width="2" stroke-miterlimit="10" d="M4418.13,843.387c-19.222,0-34.688,15.47-34.688,34.688v20.861
		v15.938v18.517c0,10.312,4.688,19.688,11.953,26.017c-7.268,6.329-11.953,15.939-11.953,26.021v20.157v23.438v17.813v20.857v7.971
		c0,18.75,15.473,34.688,34.688,34.688c19.223,0,34.688-15.47,34.688-34.688v-10.077v-18.05v-18.519v-23.438v-20.156
		c0-10.313-4.688-19.689-11.954-26.021c7.268-6.327,11.954-15.47,11.954-26.017V913.23v-16.408v-18.751
		C4452.817,859.326,4437.353,843.387,4418.13,843.387z"/>
	<path stroke="#A7A9AC" stroke-width="2" stroke-miterlimit="10" d="M4685.173,892.391l-0.08,0.08
		c-2.943-16.37-17.393-29.3-34.891-29.3c-18.202,0-33.104,13.582-35.188,31.206c-0.246,1.401-0.258,2.896-0.258,4.238v11.259v7.901
		c0,4.115,0.734,8.08,2.066,11.774c0.396,1.219,0.908,2.412,1.521,3.579c2.109,4.301,5.062,8.128,8.625,11.229
		c-5.848,5.09-10.045,12.261-11.571,20.104c-0.267,1.18-0.481,2.382-0.646,3.604v61.314h0.002v51.016
		c0,19.161,15.809,35.447,35.443,35.447c19.643,0,35.448-15.812,35.448-35.447v-51.016V971.18v-3.593
		c-0.958-9.104-5.271-17.006-11.733-22.754c-0.235,0-0.354-0.116-0.477-0.234c-0.001-0.001-0.003-0.003-0.005-0.004
		c7.425-6.706,12.215-16.286,12.215-26.825v-19.16c0-1.863-0.151-3.702-0.44-5.5C4685.195,892.875,4685.173,892.63,4685.173,892.391
		z"/>
	<path stroke="#A7A9AC" stroke-width="2" stroke-miterlimit="10" d="M4590.177,883.922c-5.608-12.104-17.877-20.748-32.186-20.748
		c-19.641,0-35.445,15.808-35.445,35.444v0.479v0.001l-0.479,0.478v18.442l0.479-0.479v0.235c0,10.539,4.791,20.119,12.215,26.586
		c-0.002,0-0.002,0.001-0.002,0.001c-0.119,0.119-0.24,0.238-0.479,0.238c-6.466,5.749-10.537,13.65-11.732,22.753v3.593v58.684
		v50.772c0,19.161,15.81,35.447,35.444,35.447c19.644,0,35.448-15.81,35.448-35.447v-50.772v-58.44v-3.593
		c-0.958-9.104-5.271-17.005-11.734-22.753h-0.217c-0.088-0.079-0.172-0.162-0.264-0.24c2.328-2.104,4.396-4.49,6.143-7.101
		l0.086-0.086c0.871-1.307,1.688-2.759,2.432-4.317c1.854-3.818,3.041-7.982,3.418-12.354c0.014-0.136,0.021-0.271,0.035-0.405
		c0.021-0.312,0.045-0.616,0.061-0.93c0.026-0.543,0.047-1.087,0.047-1.634v-2.395v-0.24v-16.526v-1.677
		c0-4.79-1.199-9.102-3.112-13.173L4590.177,883.922z"/>
	<path stroke="#A7A9AC" stroke-width="2" stroke-miterlimit="10" d="M4889.521,953.997c-0.455,0-0.455-0.451-0.911-0.451
		c2.354-1.928,4.691-4.651,6.289-7.431l0.535-0.535c3.414-5.004,5.006-11.146,5.006-17.514v-2.958l-0.229,0.229v-0.229v-17.06
		v-0.229v-6.368v-0.228c0-2.957-0.457-5.459-0.912-7.961l-0.276,0.28c-1.142-4.042-2.938-8.287-5.407-11.43
		c-0.062-0.089-0.131-0.173-0.191-0.261l0.191-0.194c-2.047-2.956-5.006-5.459-7.962-7.507h0.001
		c-1.945-1.525-4.32-2.716-6.91-3.669c-1.627-0.661-3.33-1.245-5.146-1.79l-0.191,0.193c-2.438-0.443-4.875-0.875-7.312-0.875
		c-2.957,0-5.461,0.455-8.416,1.138c-11.828,2.957-21.383,12.513-24.34,24.566c-0.908,2.502-0.908,5.459-0.908,7.961v8.188v0.229
		v17.288l0.453-0.454v0.454v0.455v0.456c0,4.094,0.91,8.416,2.502,12.055l0,0l-0.455,0.455c1.597,4.094,3.644,7.506,6.601,10.688
		l0.454-0.453h0.001l2.776,2.776c-0.263,0.106-0.274,0.406-0.274,0.406c-6.599,6.142-11.146,15.013-11.146,25.021v0.229v33.21
		h-0.455v24.11v40.941c0,6.944,2.189,13.486,5.934,18.932c6,9.189,16.357,15.418,28.188,15.418
		c18.652,0,33.666-15.016,33.666-33.664v-65.512V979.01C4900.665,969.01,4896.57,960.366,4889.521,953.997z"/>
	<path stroke="#A7A9AC" stroke-width="2" stroke-miterlimit="10" d="M4811.954,901.68c0.008-0.654-0.008-1.303-0.039-1.949
		c0.033-0.495,0.051-0.986,0.047-1.471l0.222-0.22c-0.455-4.322-1.592-8.416-3.867-11.829c-0.293-0.542-0.604-1.062-0.923-1.577
		c-0.062-0.108-0.126-0.219-0.188-0.326c-0.035-0.055-0.068-0.109-0.104-0.164c-1.685-2.749-3.75-5.247-6.135-7.413l0.301-0.301
		c-3.187-2.502-6.144-4.322-9.776-5.915l-0.099,0.097c-3.961-1.667-8.31-2.599-12.873-2.599c-18.647,0-33.663,15.013-33.663,33.665
		v26.614c0,6.146,1.725,11.941,4.68,16.93l-0.127,0.129c1.479,3.173,3.752,5.559,6.438,7.89
		c-6.513,6.354-10.991,14.938-10.991,24.866v98.947c0,6.943,2.188,13.484,5.934,18.926c6,9.194,16.356,15.421,28.188,15.421
		c18.649,0,33.664-15.013,33.664-33.665v-40.94v-24.111v-33.665c0-10.009-4.097-18.652-11.146-25.021h-0.229
		c-0.455,0-0.455-0.453-0.91-0.453c2.431-2.116,4.554-4.617,6.306-7.378c0.133-0.202,0.265-0.405,0.392-0.611
		c0.062-0.105,0.125-0.211,0.188-0.317c0.854-1.42,1.599-2.91,2.224-4.464c0.088-0.214,0.168-0.432,0.25-0.646
		c0.084-0.226,0.172-0.442,0.25-0.667c0.963-2.655,1.599-5.442,1.854-8.293l0.824-0.825c-0.455-0.455,0-1.364,0-2.046v-13.193
		l-0.685,0.678L4811.954,901.68L4811.954,901.68z"/>
	<path stroke="#A7A9AC" stroke-width="2" stroke-miterlimit="10" d="M5009.736,451.132c-21.903,0-39.537,17.631-39.537,39.533
		v59.037v0.535v69.188v48.353c0,0.735,0.021,1.465,0.062,2.191c0.617,10.885,5.799,20.698,13.562,27.461
		c-0.533,0-0.533,0.534-1.066,0.534h0.506c-7.955,7.447-13.062,17.9-13.062,29.385v7.212v195.276v0.268v21.639v18.166v20.306v18.163
		v5.345v0.533v52.093v0.534c0,21.37,17.633,39.536,39.537,39.536c21.905,0,39.537-17.633,39.537-39.536v-0.534v-52.092v-0.534
		v-7.212v-0.534v-17.634v-0.534v-20.035v-0.534v-15.492v-21.641v-0.267V734.561v-7.212c0-11.754-5.345-22.439-13.625-29.653
		c8.28-6.946,13.625-17.63,13.625-29.918v-48.353v-69.188v-0.535v-59.037C5049.273,469.298,5031.646,451.132,5009.736,451.132z"/>
	<path stroke="#A7A9AC" stroke-width="2" stroke-miterlimit="10" d="M5147.71,451.132c-21.902,0-39.537,17.631-39.537,39.533v59.037
		v0.535v69.188v48.353c0,0.735,0.021,1.465,0.062,2.191c0.617,10.885,5.799,20.698,13.562,27.461c-0.535,0-0.535,0.534-1.067,0.534
		h0.505c-7.955,7.447-13.062,17.9-13.062,29.385v7.212v195.276v0.268v21.639v18.166v20.306v18.163v5.345v0.533v52.093v0.534
		c0,21.37,17.633,39.536,39.537,39.536s39.535-17.633,39.535-39.536v-0.534v-52.092v-0.534v-7.212v-0.534v-17.634v-0.534v-20.035
		v-0.534v-15.492v-21.641v-0.267V734.561v-7.212c0-11.754-5.342-22.439-13.623-29.653c8.279-6.946,13.623-17.63,13.623-29.918
		v-48.353v-69.188v-0.535v-59.037C5187.245,469.298,5169.616,451.132,5147.71,451.132z"/>
	<path stroke="#A7A9AC" stroke-width="2" stroke-miterlimit="10" d="M5414.792,1032.916c0.047-1.188,0.088-2.382,0.088-3.59
		c-0.301-44.419-36.59-80.402-81.16-80.104c-44.567,0.301-80.559,36.288-80.254,80.857c0,0.034,0.002,0.071,0.002,0.108
		c0.002,0.064-0.004,0.127-0.002,0.191c0.301,44.566,36.588,80.255,81.158,80.104l-0.002-0.301c0,0,0,0,0.002,0
		c22.285,0,42.312-9.035,56.916-23.941c0.653-0.651,1.358-1.389,2.062-2.159c8.36-9.013,14.584-19.892,18.069-31.975l0.047-0.046
		c0.146-0.566,0.297-1.146,0.444-1.729c0.142-0.523,0.274-1.055,0.403-1.584c0.08-0.316,0.158-0.642,0.235-0.963
		c0.039-0.133,0.074-0.254,0.116-0.394c0.301-0.753,0.301-1.355,0.604-2.259c0.299-1.355,0.604-3.016,0.752-4.367
		c0-0.604,0.301-0.753,0.301-1.054c0-2.062,0.098-4.022,0.183-5.975C5414.771,1033.469,5414.778,1033.191,5414.792,1032.916z
		 M5297.737,1030.05c0.102-19.792,16.316-36.105,35.98-36.105c19.983,0,36.224,15.9,36.586,35.873
		c-0.047,9.28-3.504,17.761-9.271,24.215c-0.314,0.304-0.628,0.607-0.964,0.896c-6.626,6.625-15.66,10.688-25.601,10.688
		l0.002,0.297c-0.051,0-0.104,0.007-0.15,0.007C5314.335,1065.916,5298.102,1050.017,5297.737,1030.05z"/>
</g>
<path fill="#58595B" d="M115.735,1164.043h-0.089l-5.035,2.719l-0.757-2.985l6.327-3.386h3.341v28.961h-3.787V1164.043
	L115.735,1164.043z"/>
<path fill="#58595B" d="M332.224,1189.349v-2.406l3.072-2.984c7.396-7.038,10.738-10.781,10.783-15.147
	c0-2.938-1.426-5.659-5.748-5.659c-2.629,0-4.812,1.337-6.147,2.451l-1.248-2.763c2.005-1.693,4.854-2.94,8.197-2.94
	c6.237,0,8.866,4.277,8.866,8.421c0,5.349-3.876,9.669-9.979,15.552l-2.317,2.139v0.089h13.01v3.253h-18.488L332.224,1189.349
	L332.224,1189.349z"/>
<path fill="#58595B" d="M560.881,1184.849c1.112,0.713,3.696,1.826,6.416,1.826c5.033,0,6.595-3.207,6.55-5.613
	c-0.044-4.055-3.698-5.793-7.485-5.793h-2.183v-2.939h2.183c2.854,0,6.461-1.471,6.461-4.9c0-2.316-1.471-4.366-5.08-4.366
	c-2.315,0-4.544,1.025-5.792,1.916l-1.022-2.852c1.515-1.114,4.456-2.229,7.573-2.229c5.702,0,8.287,3.386,8.287,6.906
	c0,2.984-1.78,5.522-5.347,6.816v0.09c3.564,0.713,6.46,3.386,6.46,7.438c0,4.634-3.607,8.688-10.56,8.688
	c-3.253,0-6.104-1.025-7.53-1.963L560.881,1184.849z"/>
<path fill="#58595B" d="M784.594,1189.349v-7.887h-13.456v-2.584l12.921-18.49h4.232v18h4.056v3.074h-4.056v7.887H784.594z
	 M784.594,1178.388v-9.668c0-1.518,0.045-3.03,0.134-4.545h-0.134c-0.893,1.691-1.604,2.938-2.406,4.275l-7.084,9.849v0.089H784.594
	z"/>
<path fill="#58595B" d="M1017.762,1163.685h-11.05l-1.114,7.439c0.668-0.09,1.292-0.179,2.361-0.179c2.228,0,4.455,0.49,6.236,1.562
	c2.272,1.292,4.146,3.787,4.146,7.438c0,5.659-4.5,9.894-10.783,9.894c-3.164,0-5.837-0.894-7.218-1.782l0.979-2.985
	c1.203,0.713,3.564,1.604,6.193,1.604c3.697,0,6.859-2.405,6.859-6.282c-0.044-3.742-2.539-6.416-8.332-6.416
	c-1.646,0-2.938,0.179-4.01,0.312l1.871-13.901h13.857v3.296H1017.762z"/>
<path fill="#58595B" d="M1247.51,1163.15c-0.803-0.044-1.827,0-2.941,0.179c-6.146,1.024-9.4,5.524-10.068,10.292h0.135
	c1.381-1.826,3.787-3.342,6.995-3.342c5.124,0,8.731,3.698,8.731,9.357c0,5.302-3.607,10.203-9.624,10.203
	c-6.191,0-10.248-4.812-10.248-12.344c0-5.701,2.049-10.201,4.901-13.055c2.406-2.361,5.614-3.832,9.268-4.277
	c1.159-0.179,2.141-0.223,2.854-0.223L1247.51,1163.15L1247.51,1163.15z M1246.396,1179.859c0-4.144-2.361-6.639-5.971-6.639
	c-2.361,0-4.544,1.47-5.614,3.562c-0.268,0.445-0.446,1.024-0.446,1.737c0.089,4.768,2.272,8.287,6.372,8.287
	C1244.124,1186.809,1246.396,1184.005,1246.396,1179.859z"/>
<path fill="#58595B" d="M1466.028,1160.388v2.584l-12.609,26.377h-4.055l12.565-25.619v-0.09h-14.169v-3.252H1466.028z"/>
<path fill="#58595B" d="M1670.009,1181.998c0-3.651,2.184-6.236,5.748-7.753l-0.046-0.134c-3.207-1.515-4.589-4.01-4.589-6.505
	c0-4.589,3.875-7.708,8.955-7.708c5.614,0,8.423,3.52,8.423,7.129c0,2.45-1.203,5.079-4.77,6.772v0.134
	c3.609,1.426,5.837,3.965,5.837,7.484c0,5.033-4.322,8.422-9.847,8.422C1673.66,1189.842,1670.009,1186.23,1670.009,1181.998z
	 M1685.601,1181.819c0-3.52-2.451-5.213-6.372-6.326c-3.386,0.979-5.213,3.208-5.213,5.97c-0.134,2.941,2.094,5.525,5.792,5.525
	C1683.329,1186.988,1685.601,1184.804,1685.601,1181.819z M1674.819,1167.341c0,2.896,2.184,4.456,5.525,5.347
	c2.495-0.847,4.411-2.629,4.411-5.258c0-2.316-1.382-4.725-4.901-4.725C1676.601,1162.705,1674.819,1164.844,1674.819,1167.341z"/>
<path fill="#58595B" d="M1901.635,1186.589c0.847,0.089,1.827,0,3.164-0.136c2.271-0.312,4.41-1.246,6.06-2.807
	c1.916-1.737,3.297-4.277,3.832-7.708h-0.134c-1.604,1.96-3.921,3.119-6.817,3.119c-5.213,0-8.555-3.921-8.555-8.867
	c0-5.479,3.965-10.292,9.892-10.292c5.928,0,9.58,4.812,9.58,12.208c0,6.372-2.139,10.827-4.99,13.59
	c-2.228,2.185-5.302,3.521-8.421,3.876c-1.426,0.225-2.673,0.27-3.607,0.225v-3.208H1901.635z M1903.059,1169.926
	c0,3.606,2.183,6.146,5.568,6.146c2.63,0,4.68-1.292,5.702-3.029c0.225-0.355,0.356-0.803,0.356-1.427
	c0-4.943-1.827-8.73-5.926-8.73C1905.423,1162.885,1903.059,1165.824,1903.059,1169.926z"/>
<g>
	<path fill="#58595B" d="M2122.486,1164.043h-0.089l-5.035,2.719l-0.757-2.985l6.327-3.386h3.341v28.961h-3.787V1164.043
		L2122.486,1164.043z"/>
	<path fill="#58595B" d="M2156.083,1174.556c0,9.848-3.651,15.283-10.067,15.283c-5.659,0-9.49-5.305-9.58-14.884
		c0-9.713,4.188-15.06,10.069-15.06C2152.608,1159.898,2156.083,1165.334,2156.083,1174.556z M2140.355,1175.005
		c0,7.527,2.317,11.807,5.881,11.807c4.011,0,5.927-4.678,5.927-12.074c0-7.129-1.826-11.808-5.882-11.808
		C2142.85,1162.927,2140.355,1167.116,2140.355,1175.005z"/>
</g>
<g>
	<path fill="#58595B" d="M2346.486,1164.043h-0.089l-5.035,2.719l-0.757-2.985l6.327-3.386h3.341v28.961h-3.787V1164.043
		L2346.486,1164.043z"/>
	<path fill="#58595B" d="M2369.345,1164.043h-0.089l-5.035,2.719l-0.758-2.985l6.326-3.386h3.342v28.961h-3.787L2369.345,1164.043
		L2369.345,1164.043z"/>
</g>
<g>
	<path fill="#58595B" d="M2560.486,1164.043h-0.089l-5.035,2.719l-0.757-2.985l6.327-3.386h3.341v28.961h-3.787V1164.043
		L2560.486,1164.043z"/>
	<path fill="#58595B" d="M2574.835,1189.349v-2.406l3.074-2.984c7.396-7.038,10.738-10.781,10.783-15.147
		c0-2.938-1.426-5.659-5.748-5.659c-2.629,0-4.812,1.337-6.148,2.451l-1.248-2.763c2.004-1.693,4.855-2.94,8.197-2.94
		c6.238,0,8.867,4.277,8.867,8.421c0,5.349-3.876,9.669-9.98,15.552l-2.315,2.139v0.089h13.01v3.253h-18.489v-0.004H2574.835z"/>
</g>
<g>
	<path fill="#58595B" d="M2792.236,1164.043h-0.09l-5.034,2.719l-0.758-2.985l6.327-3.386h3.342v28.961h-3.787V1164.043
		L2792.236,1164.043z"/>
	<path fill="#58595B" d="M2807.52,1184.849c1.114,0.713,3.698,1.826,6.416,1.826c5.035,0,6.595-3.207,6.55-5.613
		c-0.045-4.055-3.698-5.793-7.485-5.793h-2.183v-2.939h2.183c2.854,0,6.461-1.471,6.461-4.9c0-2.316-1.471-4.366-5.077-4.366
		c-2.317,0-4.545,1.025-5.793,1.916l-1.024-2.852c1.516-1.114,4.455-2.229,7.574-2.229c5.702,0,8.287,3.386,8.287,6.906
		c0,2.984-1.782,5.522-5.347,6.816v0.09c3.562,0.713,6.461,3.386,6.461,7.438c0,4.634-3.609,8.688-10.562,8.688
		c-3.253,0-6.104-1.025-7.529-1.963L2807.52,1184.849z"/>
</g>
<g>
	<path fill="#58595B" d="M3006.236,1164.043h-0.09l-5.034,2.719l-0.758-2.985l6.327-3.386h3.342v28.961h-3.787V1164.043
		L3006.236,1164.043z"/>
	<path fill="#58595B" d="M3032.704,1189.349v-7.887h-13.455v-2.584l12.923-18.49h4.23v18h4.056v3.074h-4.056v7.887H3032.704z
		 M3032.704,1178.388v-9.668c0-1.518,0.045-3.03,0.136-4.545h-0.136c-0.891,1.691-1.604,2.938-2.404,4.275l-7.084,9.849v0.089
		H3032.704z"/>
</g>
<g>
	<path fill="#58595B" d="M3231.236,1164.043h-0.09l-5.034,2.719l-0.758-2.985l6.327-3.386h3.342v28.961h-3.787V1164.043
		L3231.236,1164.043z"/>
	<path fill="#58595B" d="M3262.874,1163.685h-11.051l-1.113,7.439c0.668-0.09,1.291-0.179,2.36-0.179
		c2.229,0,4.456,0.49,6.238,1.562c2.271,1.292,4.144,3.787,4.144,7.438c0,5.659-4.5,9.894-10.78,9.894
		c-3.164,0-5.837-0.894-7.22-1.782l0.979-2.985c1.203,0.713,3.563,1.604,6.193,1.604c3.698,0,6.86-2.405,6.86-6.282
		c-0.045-3.742-2.539-6.416-8.332-6.416c-1.647,0-2.939,0.179-4.011,0.312l1.871-13.901h13.857v3.296H3262.874z"/>
</g>
<g>
	<path fill="#58595B" d="M3461.986,1164.043h-0.09l-5.034,2.719l-0.758-2.985l6.327-3.386h3.342v28.961h-3.787V1164.043
		L3461.986,1164.043z"/>
	<path fill="#58595B" d="M3492.865,1163.15c-0.802-0.044-1.827,0-2.938,0.179c-6.149,1.024-9.401,5.524-10.069,10.292h0.133
		c1.384-1.826,3.787-3.342,6.996-3.342c5.123,0,8.732,3.698,8.732,9.357c0,5.302-3.609,10.203-9.624,10.203
		c-6.193,0-10.248-4.812-10.248-12.344c0-5.701,2.05-10.201,4.899-13.055c2.406-2.361,5.614-3.832,9.27-4.277
		c1.157-0.179,2.139-0.223,2.852-0.223L3492.865,1163.15L3492.865,1163.15z M3491.751,1179.859c0-4.144-2.359-6.639-5.97-6.639
		c-2.36,0-4.545,1.47-5.614,3.562c-0.268,0.445-0.443,1.024-0.443,1.737c0.089,4.768,2.271,8.287,6.371,8.287
		C3489.478,1186.809,3491.751,1184.005,3491.751,1179.859z"/>
</g>
<g>
	<path fill="#58595B" d="M3683.986,1164.043h-0.09l-5.034,2.719l-0.758-2.985l6.327-3.386h3.342v28.961h-3.787V1164.043
		L3683.986,1164.043z"/>
	<path fill="#58595B" d="M3717.137,1160.388v2.584l-12.609,26.377h-4.055l12.564-25.619v-0.09h-14.168v-3.252H3717.137z"/>
</g>
<g>
	<path fill="#58595B" d="M3914.736,1164.043h-0.09l-5.034,2.719l-0.758-2.985l6.327-3.386h3.342v28.961h-3.787V1164.043
		L3914.736,1164.043z"/>
	<path fill="#58595B" d="M3928.728,1181.998c0-3.651,2.185-6.236,5.748-7.753l-0.045-0.134c-3.208-1.515-4.589-4.01-4.589-6.505
		c0-4.589,3.876-7.708,8.955-7.708c5.613,0,8.421,3.52,8.421,7.129c0,2.45-1.202,5.079-4.769,6.772v0.134
		c3.608,1.426,5.837,3.965,5.837,7.484c0,5.033-4.321,8.422-9.848,8.422C3932.384,1189.842,3928.728,1186.23,3928.728,1181.998z
		 M3944.323,1181.819c0-3.52-2.449-5.213-6.372-6.326c-3.386,0.979-5.213,3.208-5.213,5.97c-0.133,2.941,2.095,5.525,5.793,5.525
		C3942.052,1186.988,3944.323,1184.804,3944.323,1181.819z M3933.542,1167.341c0,2.896,2.184,4.456,5.523,5.347
		c2.495-0.847,4.411-2.629,4.411-5.258c0-2.316-1.382-4.725-4.901-4.725C3935.323,1162.705,3933.542,1164.844,3933.542,1167.341z"/>
</g>
<g>
	<path fill="#58595B" d="M4138.736,1164.043h-0.09l-5.034,2.719l-0.758-2.985l6.327-3.386h3.342v28.961h-3.787V1164.043z"/>
	<path fill="#58595B" d="M4155.357,1186.589c0.847,0.089,1.827,0,3.163-0.136c2.271-0.312,4.411-1.246,6.061-2.807
		c1.916-1.737,3.297-4.277,3.832-7.708h-0.135c-1.604,1.96-3.92,3.119-6.814,3.119c-5.214,0-8.557-3.921-8.557-8.867
		c0-5.479,3.965-10.292,9.893-10.292s9.58,4.812,9.58,12.208c0,6.372-2.141,10.827-4.99,13.59c-2.229,2.185-5.305,3.521-8.421,3.876
		c-1.426,0.225-2.674,0.27-3.608,0.225L4155.357,1186.589L4155.357,1186.589z M4156.784,1169.926c0,3.606,2.185,6.146,5.568,6.146
		c2.629,0,4.68-1.292,5.703-3.029c0.223-0.355,0.355-0.803,0.355-1.427c0-4.943-1.826-8.73-5.926-8.73
		C4159.146,1162.885,4156.784,1165.824,4156.784,1169.926z"/>
</g>
<g>
	<path fill="#58595B" d="M4346.228,1189.349v-2.406l3.074-2.984c7.396-7.038,10.736-10.781,10.782-15.147
		c0-2.938-1.426-5.659-5.747-5.659c-2.629,0-4.812,1.337-6.146,2.451l-1.248-2.763c2.004-1.693,4.854-2.94,8.196-2.94
		c6.237,0,8.867,4.277,8.867,8.421c0,5.349-3.877,9.669-9.979,15.552l-2.316,2.139v0.089h13.012v3.253h-18.492v-0.004H4346.228z"/>
	<path fill="#58595B" d="M4388.333,1174.556c0,9.848-3.651,15.283-10.067,15.283c-5.658,0-9.49-5.305-9.58-14.884
		c0-9.713,4.188-15.06,10.069-15.06C4384.857,1159.898,4388.333,1165.334,4388.333,1174.556z M4372.605,1175.005
		c0,7.527,2.315,11.807,5.881,11.807c4.01,0,5.926-4.678,5.926-12.074c0-7.129-1.826-11.808-5.881-11.808
		C4375.102,1162.927,4372.605,1167.116,4372.605,1175.005z"/>
</g>
<g>
	<path fill="#58595B" d="M4585.978,1189.349v-2.406l3.074-2.984c7.396-7.038,10.736-10.781,10.782-15.147
		c0-2.938-1.426-5.659-5.747-5.659c-2.629,0-4.812,1.337-6.146,2.451l-1.248-2.763c2.004-1.693,4.854-2.94,8.196-2.94
		c6.237,0,8.867,4.277,8.867,8.421c0,5.349-3.877,9.669-9.979,15.552l-2.316,2.139v0.089h13.012v3.253h-18.492v-0.004H4585.978z"/>
	<path fill="#58595B" d="M4617.348,1164.043h-0.09l-5.034,2.719l-0.758-2.985l6.327-3.386h3.342v28.961h-3.787V1164.043z"/>
</g>
<g>
	<path fill="#58595B" d="M4795.978,1189.349v-2.406l3.074-2.984c7.396-7.038,10.736-10.781,10.782-15.147
		c0-2.938-1.426-5.659-5.747-5.659c-2.629,0-4.812,1.337-6.146,2.451l-1.248-2.763c2.004-1.693,4.854-2.94,8.196-2.94
		c6.237,0,8.867,4.277,8.867,8.421c0,5.349-3.877,9.669-9.979,15.552l-2.316,2.139v0.089h13.012v3.253h-18.492v-0.004H4795.978z"/>
	<path fill="#58595B" d="M4818.835,1189.349v-2.406l3.074-2.984c7.396-7.038,10.738-10.781,10.783-15.147
		c0-2.938-1.426-5.659-5.748-5.659c-2.629,0-4.812,1.337-6.146,2.451l-1.248-2.763c2.005-1.693,4.855-2.94,8.198-2.94
		c6.237,0,8.867,4.277,8.867,8.421c0,5.349-3.877,9.669-9.979,15.552l-2.316,2.139v0.089h13.012v3.253h-18.494v-0.004H4818.835z"/>
</g>
<path fill="#58595B" d="M5017.575,1189.349l-3.832-6.639c-1.56-2.541-2.539-4.188-3.475-5.928h-0.09
	c-0.848,1.737-1.691,3.344-3.252,5.973l-3.609,6.594h-4.455l9.18-15.193l-8.82-14.837h4.5l3.965,7.04
	c1.113,1.96,1.961,3.475,2.764,5.079h0.134c0.847-1.782,1.604-3.164,2.718-5.079l4.1-7.04h4.455l-9.133,14.614l9.355,15.416
	H5017.575L5017.575,1189.349z"/>
<path fill="#58595B" d="M5157.528,1189.349l-3.832-6.639c-1.561-2.541-2.539-4.188-3.475-5.928h-0.09
	c-0.849,1.737-1.692,3.344-3.252,5.973l-3.609,6.594h-4.455l9.178-15.193l-8.819-14.837h4.5l3.965,7.04
	c1.112,1.96,1.961,3.475,2.765,5.079h0.133c0.848-1.782,1.604-3.164,2.719-5.079l4.1-7.04h4.455l-9.133,14.614l9.355,15.416
	H5157.528L5157.528,1189.349z"/>
<g>
	<path fill="#58595B" d="M5335.945,1176.161c-0.224-4.188-0.489-9.223-0.444-12.966h-0.135c-1.022,3.521-2.271,7.265-3.787,11.406
		l-5.301,14.57h-2.939l-4.855-14.305c-1.426-4.23-2.629-8.107-3.477-11.674h-0.089c-0.09,3.743-0.312,8.777-0.58,13.277
		l-0.802,12.877h-3.698l2.097-30.03h4.943l5.124,14.524c1.247,3.697,2.271,6.996,3.028,10.113h0.133
		c0.758-3.028,1.828-6.325,3.164-10.113l5.349-14.524h4.944l1.871,30.03h-3.787L5335.945,1176.161z"/>
	<path fill="#58595B" d="M5351.727,1162.616h-9.135v-3.297h22.231v3.297h-9.179v26.733h-3.92L5351.727,1162.616L5351.727,1162.616z"
		/>
</g>
<g>
	<g>
		<path fill="#939598" d="M1824.135,152.323h-15.395v-3.964h34.885v3.964h-15.13l-0.066,43.739h-4.229L1824.135,152.323z"/>
		<path fill="#939598" d="M1851.624,196.062v-47.901h4.295v47.901H1851.624z"/>
		<path fill="#939598" d="M1869.333,196.062v-47.703h6.872l17.905,41.559l18.302-41.559h6.541v47.703h-4.294v-44.069h-0.132
			l-18.235,44.069h-4.295l-18.235-43.871h-0.132v43.871H1869.333z"/>
		<path fill="#939598" d="M1932.04,196.062v-47.703h28.344v3.964h-24.05v17.112h23.125v3.964h-23.125v18.698h25.041v3.964H1932.04z"
			/>
		<path fill="#939598" d="M1972.281,196.062v-47.703h4.295v43.739h23.983v3.964H1972.281z"/>
		<path fill="#939598" d="M2009.482,196.062v-47.901h4.295v47.901H2009.482z"/>
		<path fill="#939598" d="M2026.861,148.359h4.889l26.296,41.955h0.132v-41.955h4.294v47.703h-5.417l-25.768-41.228h-0.132v41.228
			h-4.294V148.359z"/>
		<path fill="#939598" d="M2075.229,196.062v-47.703h28.344v3.964h-24.05v17.112h23.125v3.964h-23.125v18.698h25.041v3.964H2075.229
			z"/>
		<path fill="#939598" d="M2152.933,197.053c-13.677,0-21.275-9.977-21.275-24.843c0-14.866,7.598-24.842,21.275-24.842
			c13.676,0,21.274,9.977,21.274,24.842C2174.208,187.077,2166.61,197.053,2152.933,197.053z M2152.933,193.089
			c11.893,0,16.649-10.439,16.649-20.878c0-10.439-4.757-20.878-16.649-20.878c-11.893,0-16.65,10.439-16.65,20.878
			C2136.283,182.65,2141.04,193.089,2152.933,193.089z"/>
		<path fill="#939598" d="M2184.917,196.062v-47.703h26.957v3.964h-22.662v16.848h21.869v3.964h-21.869v22.926H2184.917z"/>
		<path fill="#939598" d="M2275.439,171.748v22.332c-5.748,2.246-10.968,2.973-17.112,2.973c-13.016,0-20.35-10.175-20.35-24.843
			c0-12.289,6.541-24.842,20.35-24.842c7.929,0,16.055,4.294,16.782,12.751h-4.889c-0.859-6.079-6.211-8.788-11.893-8.788
			c-11.43,0-15.725,10.968-15.725,20.878c0,12.157,5.087,20.878,17.971,20.878c3.568,0,7.202-0.991,10.571-1.982v-15.395h-11.959
			v-3.964H2275.439z"/>
		<path fill="#939598" d="M2288.195,196.062v-47.703h28.344v3.964h-24.05v17.112h23.125v3.964h-23.125v18.698h25.041v3.964H2288.195
			z"/>
		<path fill="#939598" d="M2327.907,148.359h4.889l26.296,41.955h0.132v-41.955h4.294v47.703h-5.417l-25.768-41.228h-0.132v41.228
			h-4.294V148.359z"/>
		<path fill="#939598" d="M2376.275,196.062v-47.703h28.344v3.964h-24.05v17.112h23.125v3.964h-23.125v18.698h25.041v3.964H2376.275
			z"/>
		<path fill="#939598" d="M2434.687,196.062v-47.703h6.872l17.905,41.559l18.302-41.559h6.541v47.703h-4.295v-44.069h-0.132
			l-18.236,44.069h-4.294l-18.235-43.871h-0.132v43.871H2434.687z"/>
		<path fill="#939598" d="M2491.249,196.062l18.896-47.703h5.021l19.028,47.703h-4.69l-5.088-12.884h-23.719l-5.021,12.884H2491.249
			z M2522.897,179.214l-10.307-26.891l-10.505,26.891H2522.897z"/>
		<path fill="#939598" d="M2540.806,148.359h4.89l26.296,41.955h0.132v-41.955h4.295v47.703H2571l-25.768-41.228h-0.132v41.228
			h-4.295V148.359z"/>
		<path fill="#939598" d="M2589.504,196.062v-47.901h4.295v47.901H2589.504z"/>
		<path fill="#939598" d="M2607.081,196.062v-47.703h26.957v3.964h-22.662v16.848h21.869v3.964h-21.869v22.926H2607.081z"/>
		<path fill="#939598" d="M2644.282,196.062v-47.703h28.344v3.964h-24.049v17.112h23.124v3.964h-23.124v18.698h25.04v3.964H2644.282
			z"/>
		<path fill="#939598" d="M2695.953,197.053c-7.598,0-14.007-5.55-14.205-13.413h4.625c0.132,7.334,5.55,9.448,11.959,9.448
			c5.352,0,11.496-3.105,11.496-9.184c0-4.757-3.436-7.003-7.466-8.325c-7.73-2.577-19.491-5.021-19.491-15.328
			c0-8.325,7.664-12.884,15.196-12.884c6.276,0,14.47,2.18,15.526,11.364h-4.625c-0.132-5.88-5.483-7.4-10.373-7.4
			c-4.955,0-11.1,2.511-11.1,8.325c0,13.544,26.957,7.4,26.957,23.852C2714.453,193.882,2705.533,197.053,2695.953,197.053z"/>
		<path fill="#939598" d="M2733.302,152.323h-15.395v-3.964h34.886v3.964h-15.131l-0.065,43.739h-4.229L2733.302,152.323z"/>
		<path fill="#939598" d="M2749.365,196.062l18.896-47.703h5.021l19.029,47.703h-4.691l-5.088-12.884h-23.718l-5.021,12.884
			H2749.365z M2781.011,179.214l-10.306-26.891l-10.505,26.891H2781.011z"/>
		<path fill="#939598" d="M2804.209,152.323h-15.395v-3.964h34.887v3.964h-15.131l-0.066,43.739h-4.229L2804.209,152.323z"/>
		<path fill="#939598" d="M2831.699,196.062v-47.901h4.295v47.901H2831.699z"/>
		<path fill="#939598" d="M2868.699,197.053c-13.676,0-21.273-9.977-21.273-24.843c0-14.866,7.598-24.842,21.273-24.842
			c13.678,0,21.275,9.977,21.275,24.842C2889.974,187.077,2882.377,197.053,2868.699,197.053z M2868.699,193.089
			c11.893,0,16.65-10.439,16.65-20.878c0-10.439-4.758-20.878-16.65-20.878s-16.648,10.439-16.648,20.878
			C2852.051,182.65,2856.806,193.089,2868.699,193.089z"/>
		<path fill="#939598" d="M2900.486,148.359h4.889l26.297,41.955h0.131v-41.955h4.295v47.703h-5.418l-25.768-41.228h-0.131v41.228
			h-4.295V148.359z"/>
		<path fill="#939598" d="M3012.816,148.359h4.295l-17.246,54.046h-4.162L3012.816,148.359z"/>
		<path fill="#939598" d="M3106.511,159.525c-0.793-5.814-5.814-8.193-11.232-8.193c-12.223,0-15.922,11.1-15.922,20.878
			s3.699,20.878,15.922,20.878c5.287,0,10.572-2.643,11.762-8.589h4.625c-1.389,7.995-8.723,12.554-16.387,12.554
			c-14.469,0-20.547-11.628-20.547-24.843c0-13.082,6.145-24.842,20.547-24.842c7.797,0,15.197,3.568,15.857,12.157H3106.511z"/>
		<path fill="#939598" d="M3121.316,196.062v-47.703h4.295v20.944h26.031v-20.944h4.295v47.703h-4.295v-22.794h-26.031v22.794
			H3121.316z"/>
		<path fill="#939598" d="M3173.582,196.062h-4.295v-47.703h15.592c4.164,0,7.6,0.265,11.232,2.511
			c3.305,1.982,4.891,5.418,4.891,9.977c0,5.154-3.635,8.854-9.186,10.241v0.132c6.08,0.991,7.4,5.088,7.996,10.638
			c0.857,7.73,0.594,11.298,2.51,14.205h-4.955c-1.123-3.171-1.387-6.541-1.652-9.911c-0.99-10.901-1.65-12.818-10.307-12.818
			h-11.826V196.062z M3182.765,169.37c6.078,0,13.611-0.396,13.611-8.523c0-9.184-8.59-8.523-13.148-8.523h-9.646v17.046H3182.765z"
			/>
		<path fill="#939598" d="M3230.949,197.053c-13.676,0-21.273-9.977-21.273-24.843c0-14.866,7.598-24.842,21.273-24.842
			c13.678,0,21.275,9.977,21.275,24.842C3252.224,187.077,3244.627,197.053,3230.949,197.053z M3230.949,193.089
			c11.893,0,16.65-10.439,16.65-20.878c0-10.439-4.758-20.878-16.65-20.878s-16.648,10.439-16.648,20.878
			C3214.301,182.65,3219.056,193.089,3230.949,193.089z"/>
		<path fill="#939598" d="M3263.066,196.062v-47.703h6.871l17.904,41.559l18.303-41.559h6.539v47.703h-4.293v-44.069h-0.133
			l-18.236,44.069h-4.293l-18.236-43.871h-0.133v43.871H3263.066z"/>
		<path fill="#939598" d="M3344.734,197.053c-13.676,0-21.273-9.977-21.273-24.843c0-14.866,7.598-24.842,21.273-24.842
			c13.678,0,21.275,9.977,21.275,24.842C3366.01,187.077,3358.412,197.053,3344.734,197.053z M3344.734,193.089
			c11.893,0,16.65-10.439,16.65-20.878c0-10.439-4.758-20.878-16.65-20.878s-16.648,10.439-16.648,20.878
			C3328.086,182.65,3332.842,193.089,3344.734,193.089z"/>
		<path fill="#939598" d="M3388.478,197.053c-7.598,0-14.006-5.55-14.205-13.413h4.625c0.133,7.334,5.551,9.448,11.959,9.448
			c5.352,0,11.496-3.105,11.496-9.184c0-4.757-3.436-7.003-7.465-8.325c-7.73-2.577-19.492-5.021-19.492-15.328
			c0-8.325,7.664-12.884,15.197-12.884c6.275,0,14.469,2.18,15.525,11.364h-4.625c-0.131-5.88-5.482-7.4-10.373-7.4
			c-4.955,0-11.1,2.511-11.1,8.325c0,13.544,26.957,7.4,26.957,23.852C3406.978,193.882,3398.058,197.053,3388.478,197.053z"/>
		<path fill="#939598" d="M3436.515,197.053c-13.676,0-21.273-9.977-21.273-24.843c0-14.866,7.598-24.842,21.273-24.842
			c13.678,0,21.275,9.977,21.275,24.842C3457.791,187.077,3450.193,197.053,3436.515,197.053z M3436.515,193.089
			c11.893,0,16.65-10.439,16.65-20.878c0-10.439-4.758-20.878-16.65-20.878s-16.648,10.439-16.648,20.878
			C3419.867,182.65,3424.623,193.089,3436.515,193.089z"/>
		<path fill="#939598" d="M3468.633,196.062v-47.703h6.871l17.904,41.559l18.303-41.559h6.539v47.703h-4.293v-44.069h-0.133
			l-18.236,44.069h-4.293l-18.236-43.871h-0.133v43.871H3468.633z"/>
		<path fill="#939598" d="M3531.338,196.062v-47.703h28.344v3.964h-24.049v17.112h23.125v3.964h-23.125v18.698h25.041v3.964
			H3531.338z"/>
		<path fill="#939598" d="M3598.804,191.768h0.133l15.129-43.409h4.295l-17.244,47.703h-4.889l-17.443-47.703h4.691
			L3598.804,191.768z"/>
		<path fill="#939598" d="M3625.832,196.062v-47.901h4.295v47.901H3625.832z"/>
		<path fill="#939598" d="M3643.871,196.062v-47.703h28.344v3.964h-24.049v17.112h23.123v3.964h-23.123v18.698h25.039v3.964
			H3643.871z"/>
		<path fill="#939598" d="M3696.664,196.062h-6.078l-12.42-47.703h4.559l11.1,43.409h0.131l13.941-43.409h5.221l14.535,43.409h0.131
			l11.035-43.409h4.162l-12.553,47.703h-5.881l-14.074-43.276h-0.131L3696.664,196.062z"/>
	</g>
	<g>
		<g>
			<g>
				<path fill="#939598" d="M1744.066,193.737c-11.338,0-20.562-9.226-20.562-20.566c0-11.338,9.224-20.562,20.562-20.562
					c11.339,0,20.564,9.224,20.564,20.562C1764.631,184.511,1755.406,193.737,1744.066,193.737z M1744.066,155.608
					c-9.684,0-17.562,7.878-17.562,17.562c0,9.686,7.878,17.566,17.562,17.566c9.685,0,17.564-7.88,17.564-17.566
					C1761.631,163.487,1753.751,155.608,1744.066,155.608z"/>
			</g>
			<g>
				<path fill="#939598" d="M1744.066,185.457c-6.774,0-12.286-5.512-12.286-12.286s5.511-12.286,12.286-12.286
					c6.776,0,12.288,5.512,12.288,12.286S1750.842,185.457,1744.066,185.457z M1744.066,163.885c-5.12,0-9.286,4.166-9.286,9.286
					s4.166,9.286,9.286,9.286c5.122,0,9.288-4.166,9.288-9.286S1749.188,163.885,1744.066,163.885z"/>
			</g>
		</g>
		<g>
			<g>
				<polygon fill="#939598" points="1725.004,174.671 1538,174.671 1538,147.985 1541,147.985 1541,171.671 1725.004,171.671 				
					"/>
			</g>
		</g>
		<g>
			<g>
				<polygon fill="#939598" points="1530.349,148.369 1549.349,148.369 1539.349,140.869 				"/>
			</g>
		</g>
	</g>
	<g>
		<g>
			<g>
				<path fill="#939598" d="M3815.136,191.284c-11.339,0-20.564-9.224-20.564-20.562c0-11.34,9.226-20.566,20.564-20.566
					c11.338,0,20.562,9.226,20.562,20.566C3835.699,182.06,3826.474,191.284,3815.136,191.284z M3815.136,153.155
					c-9.686,0-17.564,7.88-17.564,17.566c0,9.684,7.879,17.562,17.564,17.562c9.684,0,17.562-7.878,17.562-17.562
					C3832.699,161.035,3824.82,153.155,3815.136,153.155z"/>
			</g>
			<g>
				<path fill="#939598" d="M3815.136,183.008c-6.775,0-12.288-5.512-12.288-12.286s5.513-12.286,12.288-12.286
					c6.774,0,12.285,5.512,12.285,12.286S3821.911,183.008,3815.136,183.008z M3815.136,161.435c-5.121,0-9.288,4.166-9.288,9.286
					s4.167,9.286,9.288,9.286c5.12,0,9.285-4.166,9.285-9.286S3820.257,161.435,3815.136,161.435z"/>
			</g>
		</g>
		<g>
			<g>
				<polygon fill="#939598" points="3834.199,169.221 4021.203,169.221 4021.203,195.907 4018.203,195.907 4018.203,172.221 
					3834.199,172.221 				"/>
			</g>
		</g>
		<g>
			<g>
				<polygon fill="#939598" points="4028.853,195.523 4009.853,195.523 4019.853,203.023 				"/>
			</g>
		</g>
	</g>
</g>
</svg>
